<?xml version="1.0" encoding="utf-8"?>
<!-- Generator: Adobe Illustrator 24.3.0, SVG Export Plug-In . SVG Version: 6.00 Build 0)  -->
<svg version="1.1" id="Layer_3" xmlns="http://www.w3.org/2000/svg" xmlns:xlink="http://www.w3.org/1999/xlink" x="0px" y="0px"
	 width="389.7px" height="768.8px" viewBox="0 0 389.7 768.8" style="enable-background:new 0 0 389.7 768.8;" xml:space="preserve"
	>
<g>
	<path d="M43.7,617.5c-0.7,0-1.4,0-2,0c-0.1,0-0.1,0-0.2,0c-0.4,0-0.8,0.1-1.1,0.2c-0.7,0.2-1.3,0.8-1.6,1.6c-0.4,1-0.2,1.7,0.1,2.2
		c0.2,0.5,0.6,1,1.1,1.4l0,0l0,0c0.5,0.4,1.2,0.6,1.8,0.8c1.1,0.3,1.9,0.7,2.4,1.3c0,0.1,0.1,0.2,0.1,0.3c0.1,0.2,0.3,0.4,0.5,0.6
		c0.2,0.6,0.3,1.2,0.3,2l0,0l0,0c0,2,0,4,0,6c0.1,4.3,0.1,8.6,0,12.8c0,1.9-0.1,3.8,0,5.6v0l0,0c0.1,3,0,6.1-0.2,9.1
		c-0.1,1.2-0.4,2.2-0.9,2.8c-0.4,0.6-1.1,0.9-2.2,1c-0.9,0.1-1.7,0.4-2.3,0.8c-0.5,0.4-1.2,1.2-1.2,2.6v0l0,0.1
		c0,0.6,0.2,1.1,0.4,1.5c0,0.1,0,0.3,0.1,0.4c1,0.8,2,1.6,3.1,2.3c0.5,0.3,1.1,0.7,1.7,1c0.3,0.1,0.5,0.3,0.8,0.4c0,0,0,0,0,0
		c0.1,0.1,0.2,0.2,0.4,0.2c0,0,0,0,0,0c0.2,0.1,0.3,0.1,0.5,0.1c0,0,0,0,0,0c0.3,0,0.5,0.1,0.8,0.1c0.1,0,0.2,0,0.2,0l0.1,0
		c0.6,0,1.3,0,2.2,0c0.9,0,2,0,3.2,0c2.4,0,5-0.1,7.7-0.1c2.7,0,4.9-0.1,6.6-0.1c0.6,0,1,0,1.4,0c0.1,0,0.1,0,0.2,0
		c0.4,0,0.8-0.1,1.2-0.2c0.2-0.1,0.4-0.3,0.6-0.5c0.2-0.2,0.3-0.4,0.4-0.6c0.3-0.8-0.3-1.6-0.7-2.2c-0.9-1.2-1.8-2.4-2.6-3.7
		c-0.2-0.3-0.4-0.6-0.6-0.8c-0.1-0.1-0.1-0.2-0.2-0.3c-0.1-0.2-0.3-0.2-0.4-0.1c-0.4-0.2-0.7-0.4-1.2-0.5l0,0l0,0
		c-0.2-0.1-0.4-0.1-0.6-0.1l-0.1,0l0,0l0,0l-0.1,0c0-3.4,0-6.5,0-9.3v-5c0-0.5,0.1-0.9,0.4-1.2c0.3-0.3,0.7-0.5,1.2-0.6
		c1-0.3,2-0.4,2.9-0.4c0.4,0,0.7,0,1.1,0.1c0.5,1,0.9,2.1,1,3.4c0.1,1.1,0.2,2.1,0.2,3.2c0.1,1.7,0.3,3.4,0.5,5.1
		c0.3,2.6,1,4.9,2.3,7c1.3,2.2,3.3,3.7,6,4.6l0,0l0,0c0,0,0,0,0.1,0c1.1,1.4,2.7,2.4,4.6,3.1c1.2,0.4,2.4,0.5,3.6,0.5
		c2.9,0,5.6-1.2,8-3.7c1.5-1.6,2.5-3.4,3-5.4c0.3-1,0.5-2.1,0.6-3.2c0.1-0.1,0.2-0.2,0.2-0.4c0-0.4,0-0.7,0-1.1c0-0.5,0.1-1,0.1-1.4
		c0-0.2,0-0.3,0-0.4c0.1-0.1,0.1-0.2,0.1-0.3c0-0.4-0.2-0.7-0.4-1c-0.2-0.3-0.3-0.5-0.5-0.8c-0.1-0.2-0.2-0.3-0.4-0.5
		c-0.1-0.2-0.2-0.3-0.3-0.5c-0.6-0.9-1.2-1.8-1.8-2.7c0,0-0.1-0.1-0.1-0.1c0,0,0-0.1-0.1-0.1c-0.3-0.5-1-1.1-2.2-1.2l-0.1,0l-0.1,0
		c-1.5,0-2.2,0.8-2.5,1.3c-0.3,0.5-0.5,1.1-0.6,1.6l0,0l0,0c-0.1,0.7-0.2,1.4-0.2,2.1c0,0.6-0.1,1.2-0.2,1.8
		c-0.1,0.6-0.3,1.1-0.7,1.5c-0.1,0.1-0.2,0.2-0.3,0.3c-0.6-2.5-1.4-4.8-2.5-6.9c-0.1-0.1-0.2-0.3-0.2-0.4c-0.4-0.9-0.8-1.7-1.2-2.5
		c-1-2-2.3-3.8-3.7-5.4c1.4-0.5,2.7-1.1,3.9-1.6c1.7-0.8,3.4-1.9,4.8-3.2c2.7-2.7,3.5-6.6,3.5-9.1c0-4.5-2.8-8.7-4.1-9.9
		c-2.8-2.4-6.6-3.8-10.2-4.4c-1.1-0.2-2.1-0.3-3.2-0.3c-1-0.2-2.1-0.3-3.2-0.3c-5.6-0.2-11.2-0.4-16.8-0.4c-3.5,0-7,0-10.5,0.1
		C44.8,617.4,44.2,617.4,43.7,617.5z M55.8,619c5.5,0,11.2,0.1,16.7,0.4c3.8,0.1,7.5,1.1,11,2.9c1.7,0.9,3,2.2,3.9,3.9
		c0.9,1.6,1.2,3.4,0.9,5.3c-0.3,1.9-1.4,3.8-3.2,5.6c-1.4,1.3-3,2.4-4.7,3.2c-1.7,0.8-3.5,1.5-5.4,2.2c-0.1,0-0.1,0-0.2,0.1
		c-0.3,0.1-0.5,0.2-0.8,0.3c-0.3,0.2-0.4,0.4-0.5,0.8c-0.1,0.5,0.1,0.8,0.4,1c0.2,0.2,0.5,0.3,0.8,0.4l0,0l0,0
		c0.1,0,0.2,0.1,0.3,0.1c3.1,1.4,5.2,3.3,6.4,5.7c1.2,2.4,2.1,5.1,2.7,8.1c0.1,0.6,0.3,1.2,0.5,1.9c0.2,0.9,0.6,1.6,1.1,2.2
		c0.5,0.5,1.2,0.8,2,0.8c0.1,0,0.2,0,0.4,0c1-0.1,1.7-0.5,2.2-1.1c0.5-0.6,0.8-1.4,1-2.2c0.1-0.7,0.2-1.3,0.3-2
		c0-0.6,0.1-1.3,0.2-1.9c0.1-0.4,0.2-0.7,0.4-1.1c0.2-0.3,0.5-0.4,1-0.4c0.4,0,0.7,0.2,0.9,0.5c0.2,0.3,0.3,0.7,0.3,1.1
		c0,2.1-0.3,4.1-0.8,6.1c-0.5,1.9-1.4,3.7-2.9,5.2c-2.2,2.3-4.8,3.5-7.6,3.5c-1.1,0-2.2-0.2-3.4-0.5c-2.3-0.8-4-2.1-5.1-3.9
		c-1.1-1.8-1.8-3.9-2-6.3c-0.2-1.7-0.4-3.4-0.5-5c-0.1-1.1-0.2-2.2-0.3-3.2c-0.4-3.1-1.6-5.3-3.6-6.7c-1.3-0.9-2.8-1.4-4.5-1.4
		c-0.9,0-1.9,0.1-3,0.4c-0.5,0.1-1,0.4-1.4,0.7c-0.4,0.3-0.6,0.8-0.6,1.5v5c0,3.5,0,7.1,0,10.5c0,1.4,0.4,2.4,1.1,3.2
		c0.7,0.7,1.7,1.3,2.9,1.6c0.1,0,0.3,0.1,0.5,0.1c0.2,0,0.4,0.1,0.6,0.1c0.4,0.1,0.8,0.3,1.1,0.5c0.2,0.2,0.3,0.5,0.2,1
		c-0.1,0.4-0.3,0.7-0.6,0.9c-0.3,0.1-0.6,0.2-1,0.2c-0.1,0-0.1,0-0.2,0h0c-0.4,0-0.8,0-1.4,0c-1.7,0-3.9,0.1-6.5,0.1
		c-2.7,0-5.3,0.1-7.7,0.1c-1.2,0-2.3,0-3.2,0c-0.9,0-1.6,0-2.2,0h-0.1c-0.1,0-0.2,0-0.2,0c-0.4,0-0.9-0.1-1.3-0.2
		c-0.4-0.1-0.6-0.5-0.6-1.1c0-0.6,0.2-1,0.5-1.2c0.4-0.3,0.8-0.4,1.4-0.5c1.6-0.2,2.7-0.8,3.4-1.8c0.7-0.9,1.1-2.2,1.2-3.7
		c0.2-3.1,0.3-6.2,0.2-9.3c0-1.9,0-3.7,0-5.6c0.1-4.3,0.1-8.6,0-12.9c0-2,0-4,0-6c0.1-3.2-1.4-5.2-4.6-6c-0.5-0.1-0.9-0.3-1.2-0.5
		c-0.3-0.2-0.5-0.5-0.6-0.7c-0.1-0.3-0.1-0.6,0-0.9c0.1-0.3,0.2-0.4,0.5-0.5c0.2-0.1,0.4-0.1,0.6-0.1c0.1,0,0.1,0,0.2,0l0,0l0,0
		c0.7,0,1.4,0,2.1,0c0.5,0,1,0,1.6,0C48.8,619.1,52.3,619,55.8,619z"/>
	<path d="M102.5,618.6h-0.3c-0.1,0-0.2,0-0.3,0c-0.6,0-1.1,0.1-1.6,0.2c-1.1,0.3-1.8,1.1-2,2.2l0,0l0,0c-0.3,1.7,0.6,2.5,1.2,2.9
		c0.5,0.3,1.2,0.5,1.9,0.7c0.2,0,0.4,0.1,0.6,0.1c0.8,0.3,1.5,0.6,2,1.1c0.7,0.6,0.7,1.5,0.7,1.9c0,0,0,0.1,0,0.1l0,8
		c0,8.6,0,17.4-0.1,26v0l0,0c0,1.1-0.2,2-0.6,2.8c-0.3,0.7-1,1.2-1.9,1.6c-0.2,0.1-0.4,0.1-0.7,0.1c-0.7,0-1.4,0.2-1.9,0.5
		c-0.5,0.3-1.4,1-1.3,2.8l0,0.1l0,0l0,0l0,0.1c0.2,0.9,0.5,1.4,0.9,1.8c0,0.1,0.1,0.1,0.2,0.2c0.7,0.4,1.3,0.9,1.9,1.4
		c0.6,0.4,1.3,0.8,1.9,1.2c0.5,0.3,1,0.6,1.5,0.9c0.1,0.1,0.3,0.2,0.4,0.2c0.1,0,0.2,0,0.2,0c0.5,0.1,1,0.2,1.5,0.1c0,0,0.1,0,0.1,0
		h0.8c3.1,0,8.1,0,14.7,0.1c4.9,0,9.6,0.1,14,0.1c4.4,0,7.7,0.1,9.7,0.1c0.3,0,0.5,0,0.8,0c1.4,0,2.4-0.3,3.1-0.9
		c0.8-0.7,1.2-1.9,1.1-3.8c0-1.8,0-3.6,0.1-5.4c0-1.4,0.1-2.7,0.1-4v-0.3c0-0.1,0.1-0.1,0.1-0.2c0-0.9,0.2-1.7-0.2-2.5
		c-0.4-0.8-0.9-1.6-1.4-2.3c-0.6-0.8-1.1-1.6-1.8-2.3c-0.3-0.6-0.9-1.4-2.5-1.7l0,0l-0.1,0c-0.2,0-0.3,0-0.4,0c0,0,0,0,0,0
		c0,0,0,0,0,0c0,0,0,0,0,0c-1,0-1.8,0.4-2.3,1.2c-0.4,0.6-0.7,1.2-0.9,1.9c-0.1,0.2-0.2,0.4-0.2,0.6l0,0l0,0
		c-1.8,4.4-3.9,7.4-6.4,8.9c-2,1.2-4.7,1.9-8,1.9c-0.8,0-1.7,0-2.6-0.1l0,0l0,0c-0.6,0-1.1-0.1-1.6-0.2c0-0.1,0-0.2,0-0.3
		c0-3.2,0-6.4,0-9.7l0-0.8c0.1-3.9,1.4-5.8,4-5.8c0.3,0,0.6,0,0.9,0.1c0.1,0.1,0.3,0.2,0.4,0.3c0,0,0.1,0,0.1,0.1c0,0,0,0,0,0
		c0,0,0,0,0,0c0,0,0.1,0.1,0.1,0.1c0.1,0.2,0.3,0.4,0.4,0.6c0.3,0.7,0.5,1.3,0.7,2c0,0.2,0.1,0.3,0.1,0.5c0,0.6,0.2,1.2,0.5,1.8
		c0.1,0.2,0.2,0.3,0.4,0.5c0,0,0,0,0,0c0.9,1.1,2.1,1.9,3.4,2.6c0.7,0.4,1.3,0.9,2.1,1.1c0.4,0.2,0.9,0.2,1.3,0.1
		c0.4,0,0.7-0.1,1-0.4c0,0,0.1-0.1,0.1-0.2c0.1-0.1,0.3-0.3,0.3-0.5c0.2-0.5,0.3-1.1,0.2-1.8c0-4.4,0.9-17.8,0.2-20.2
		c-0.3-1-1.1-1.6-1.9-2.2c-0.9-0.8-1.8-1.5-2.7-2.2c-0.1-0.1-0.2-0.1-0.4-0.1c-0.3-0.1-0.6-0.2-1-0.3l0,0l-0.1,0c-0.2,0-0.3,0-0.5,0
		c-1.4,0-2,0.6-2.3,1.2c-0.3,0.5-0.5,1.1-0.6,1.8c0,0.2,0,0.4-0.1,0.6c-0.6,2.1-1.6,3.6-3.1,4.6c-1,0.6-2.1,1-3.4,1.1
		c0-3.1,0.1-6.3,0.2-9.3c0.1-1.6,0.6-2.8,1.6-3.5c1-0.7,2.2-1.1,3.8-1.2c0.9-0.1,1.8-0.1,2.6-0.1c2.5,0,4.7,0.3,6.5,0.8
		c1.4,1.7,2.7,4,3.9,6.8l0.2,0.5c0.1,0.5,0.3,1,0.6,1.4c0.2,0.3,0.5,0.7,1.2,0.8c0.7,0.5,1.3,0.9,2,1.4c0.5,0.3,1,0.7,1.4,1
		c0.3,0.2,0.5,0.3,0.8,0.5c0.3,0.2,0.6,0.4,0.9,0.4c0.1,0,0.2,0,0.3-0.1c0,0,0.1,0,0.1,0c0.7-0.1,1.2-0.5,1.3-1
		c0.1-0.4,0.2-0.9,0.2-1.4l0,0l0,0c0-0.1,0-0.3,0-0.4c0-1,0-2.1,0-3.1c0-2.1,0-4.2,0-6.3c0-0.7,0-1.3-0.2-1.9c0-0.6,0-1.1,0-1.7
		c0-0.6,0-1.2-0.3-1.8c-0.5-1-1.6-1.7-2.4-2.3c-0.7-0.5-1.4-1-2.1-1.4c-0.1-0.1-0.3-0.2-0.4-0.2c-0.2-0.1-0.3-0.2-0.5-0.3
		c-0.1-0.1-0.2-0.1-0.3,0c-0.6-0.2-1.3-0.3-2.1-0.3c-0.1,0-0.1,0-0.2,0c-8,0-16.1,0-24.1-0.1c-5,0-10,0-15-0.1L102.5,618.6z
		 M141.7,620.5c0.1,0,0.1,0,0.2,0c1.3,0,2.2,0.3,2.8,0.8c0.6,0.6,0.9,1.6,0.8,3c-0.1,2.1-0.1,4.2,0,6.3c0,1.1,0,2.1,0,3.1
		c0,0.2,0,0.3,0,0.5c0,0.5,0,0.9-0.1,1.3c-0.1,0.3-0.4,0.5-1,0.6c-0.1,0-0.2,0-0.3,0c-0.3,0-0.5-0.1-0.6-0.2
		c-0.2-0.3-0.3-0.6-0.4-0.9l0,0l0,0l-0.2-0.6c-1.8-4.7-4.1-8-6.9-9.7c-2.3-1.4-5.4-2.1-9.4-2.1c-0.9,0-1.8,0-2.7,0.1
		c-1.7,0-3.1,0.5-4.1,1.3c-1,0.8-1.6,2.1-1.7,3.8c-0.2,3.7-0.2,7.5-0.2,11.2l0,1.8c0,1.3,0.8,2.1,2.2,2.2c0.6,0.1,1.2,0.1,1.7,0.1
		c1.9,0,3.6-0.5,5.1-1.4c1.9-1.2,3.2-3.1,3.8-5.6c0.1-0.3,0.1-0.5,0.1-0.8c0-0.4,0.2-0.8,0.3-1.1c0.1-0.2,0.4-0.3,0.8-0.3
		c0.1,0,0.2,0,0.3,0c0.6,0.1,1,0.3,1.1,0.7c0.1,0.4,0.2,0.9,0.2,1.5l0,0.4c0,5.4,0,10.9,0,16.3c0,0.6-0.1,1.2-0.2,1.7
		c-0.2,0.4-0.6,0.7-1.4,0.7c-0.5,0-0.8-0.2-1-0.4c-0.2-0.3-0.3-0.7-0.3-1.1c0-0.3-0.1-0.5-0.1-0.7c-0.3-1.3-0.8-2.6-1.4-3.7
		c-0.6-1.1-1.7-2.1-3.1-2.7c-1.6-0.7-3-1.1-4.2-1.1c-2.8,0-4.3,2.1-4.4,6.2l0,0.8c-0.1,3.2-0.1,6.5,0,9.7c0,2.3,0.5,4,1.4,4.9
		c0.9,0.9,2.6,1.4,4.9,1.5c0.9,0.1,1.9,0.1,2.7,0.1c3.7,0,6.6-0.7,8.9-2.1c2.8-1.7,5.2-5,7.1-9.7c0.1-0.2,0.2-0.5,0.3-0.8
		c0.1-0.5,0.4-1,0.6-1.4c0.2-0.3,0.5-0.4,1-0.4c0.1,0,0.2,0,0.3,0c0.7,0.1,1.1,0.4,1.2,0.9c0.1,0.5,0.2,1.1,0.1,1.7l0,0v0.8
		c0,1.3-0.1,2.7-0.1,4c-0.1,1.8-0.1,3.6-0.1,5.4c0.1,1.7-0.2,2.8-1,3.4c-0.6,0.5-1.6,0.8-2.8,0.8c-0.2,0-0.5,0-0.8,0
		c-2,0-5.3-0.1-9.7-0.1c-4.3,0-9.1-0.1-14-0.1c-6.7,0-11.6,0-14.7-0.1h-0.8l0,0c-0.2,0-0.4,0-0.6,0c-0.4,0-0.7,0-1.1-0.1
		c-0.5-0.1-0.8-0.5-0.9-1.2c0-0.6,0.1-1,0.4-1.1c0.4-0.2,0.8-0.3,1.3-0.3c0.4-0.1,0.8-0.1,1.1-0.2c1.4-0.6,2.4-1.4,2.9-2.5
		c0.5-1.1,0.8-2.3,0.7-3.6c0.1-8.6,0.1-17.4,0.1-26v-8c0-1.4-0.4-2.4-1.1-3.2c-0.7-0.7-1.7-1.3-2.9-1.6c-0.2-0.1-0.5-0.1-0.7-0.1
		c-0.5-0.1-0.9-0.2-1.3-0.5c-0.3-0.2-0.4-0.5-0.3-1.1c0.1-0.5,0.3-0.8,0.7-0.9c0.4-0.1,0.8-0.1,1.2-0.1c0.1,0,0.2,0,0.3,0l0.3,0
		c5,0,10.1,0,15.1,0.1C125.5,620.5,133.6,620.5,141.7,620.5z"/>
	<path d="M155.3,655c1.1,3.1,2.8,6,4.9,8.8c2.3,2.9,5.1,5.1,8.4,6.6c2.2,1.9,4.8,3.3,7.6,4.2c2.9,1,5.8,1.4,8.7,1.4
		c1.4,0,2.8-0.1,4.1-0.3c4.3-0.7,7.8-2.4,10.5-5.2c1.5-1.5,2.9-3.2,4-4.9c1.2-1.7,2.1-3.7,2.7-5.8c0-0.1,0-0.2,0.1-0.2c0,0,0,0,0,0
		c0.2-0.4,0.3-0.7,0.5-1.1c0.2-0.5,0.4-0.9,0.2-1.4c0,0,0,0,0-0.1c0.1-0.2,0.1-0.5,0-0.7c-0.2-0.5-0.7-0.8-1-1.2
		c-0.7-0.8-1.5-1.5-2.3-2.1c-0.2-0.2-0.4-0.3-0.7-0.4c-0.3-0.4-0.7-0.7-1.4-0.9c-0.4-0.2-0.9-0.2-1.2-0.2c-0.6,0-1.1,0.2-1.6,0.5
		c-0.5,0.4-0.9,0.9-1.3,1.5c-0.1,0.2-0.2,0.4-0.3,0.5c-0.4,0.7-0.8,1.4-1.1,2.2c-1.3,3-3.4,5.4-6.2,7.1l0,0l0,0
		c-2.3,1.5-4.6,2.3-7,2.4c-0.2,0-0.4,0-0.6,0c-2.1,0-4-0.6-5.7-1.7c-0.4-0.2-0.7-0.5-1.1-0.9c0,0,0-0.1-0.1-0.1
		c0-0.1-0.1-0.2-0.1-0.3c-0.9-2.6-1.5-5.2-1.8-7.9c-0.3-2.7-0.3-5.4-0.2-8.1c0-2.3,0.2-4.6,0.6-6.8c0.3-2.2,1-4.4,1.9-6.6
		c1.1-2.4,2.6-4.3,4.4-5.7c1.8-1.4,4.1-2.1,6.9-2.2l0.2,0c1.8,0,3.5,0.3,5,0.8c0.7,0.7,1.3,1.4,1.8,2.2c0.8,1.1,1.4,2.2,1.9,3.5
		c0.5,1.3,1.1,2.5,1.5,3.8l0,0l0,0c0.2,0.5,0.4,1,0.6,1.5c0,0,0,0.1,0,0.1c0.1,0.5,0.3,1,0.7,1.4c0.2,0.3,0.6,0.6,1.2,0.7
		c0.5,0.4,1,0.8,1.6,1.2c0.4,0.3,0.8,0.6,1.2,0.9c0.4,0.3,0.9,0.6,1.3,0.9c0.2,0.1,0.4,0.1,0.6,0c0,0,0.1,0,0.1,0c0.1,0,0.2,0,0.4,0
		c0.4-0.1,0.8-0.2,1.1-0.4c0.3-0.2,0.5-0.6,0.6-1.1l0-0.2l0-0.2c0-0.2,0.1-0.5,0.1-0.7c-0.3-4.7-0.6-9.4-0.9-14.2
		c0.1-0.1,0.1-0.2,0.1-0.3c0-0.8-0.2-1.7-0.2-2.5c-0.1-0.6,0-1.3-0.3-1.9c0,0,0,0,0,0c0-0.5,0-1-0.4-1.4c-0.3-0.3-0.7-0.6-1-0.8
		c-0.4-0.3-0.7-0.6-1.1-0.8c-0.3-0.2-0.7-0.4-1.1-0.6c-0.2-0.2-0.5-0.3-0.8-0.5l-0.1,0l0,0l0,0l-0.1,0c-0.4-0.1-0.7-0.2-1.1-0.2
		c-0.8,0-2,0.3-3,1.7c-0.7,0.8-1.2,0.9-1.6,0.9c-0.4,0-0.9-0.1-1.4-0.4l0,0l0,0c-1.8-0.8-3.8-1.5-5.7-1.9c-2.6-0.7-5.1-1-7.6-1.1v0
		h-0.4v0c-6.9,0.1-13.2,2.8-18.6,8.2c-2.9,2.9-5,6.2-6.2,9.7c-1.2,3.5-1.7,7.2-1.5,11.1C153.6,648.5,154.1,651.9,155.3,655z
		 M157,634.5c1.1-3.3,3.1-6.3,5.8-9c5.2-5.1,11.1-7.7,17.6-7.7h0c2.4,0,4.8,0.3,7.4,1c1.8,0.5,3.7,1.1,5.4,1.8
		c0.7,0.4,1.5,0.5,2.1,0.5c1.1,0,2.1-0.5,3-1.6c0.5-0.7,1-1,1.6-1c0.2,0,0.4,0,0.6,0.1c0.3,0.1,0.5,0.3,0.6,0.6
		c0.1,0.3,0.1,0.6,0.1,1l0,0l0,0c0,0.1,0,0.3,0,0.4c0.3,5.1,0.7,10.2,1,15.2c0,0.2,0,0.4-0.1,0.6l0,0.2l0,0.2l0,0l0,0
		c0,0.4-0.1,0.6-0.4,0.7c-0.3,0.2-0.6,0.3-0.9,0.3c-0.1,0-0.2,0-0.3,0c-0.1,0-0.3,0-0.4-0.1c-0.1-0.1-0.2-0.4-0.3-0.6
		c0-0.1-0.1-0.3-0.1-0.4c-0.2-0.5-0.4-1-0.6-1.5c-0.5-1.3-1-2.7-1.5-4c-0.6-1.3-1.3-2.6-2.1-3.8c-1.5-2.1-3.4-3.8-5.4-5
		c-2-1.2-4.4-1.7-7.1-1.7l-0.2,0c-2.8,0.1-5.2,0.9-7.1,2.3c-1.9,1.4-3.4,3.4-4.6,5.8c-1,2.2-1.6,4.4-1.9,6.7
		c-0.3,2.3-0.5,4.6-0.6,6.9c-0.1,2.7,0,5.4,0.2,8.1c0.3,2.7,0.9,5.4,1.8,8c1.1,3.2,2.9,5.5,5.1,7c2,1.3,4.3,2,6.7,2
		c0.2,0,0.4,0,0.7,0c2.7-0.1,5.3-1,7.8-2.7c3.1-1.9,5.4-4.6,6.9-7.9c0.3-0.7,0.7-1.4,1-2c0.1-0.2,0.2-0.3,0.3-0.5
		c0.2-0.4,0.5-0.8,0.8-1c0.2-0.1,0.3-0.2,0.6-0.2c0.2,0,0.4,0,0.6,0.1c0.5,0.2,0.7,0.4,0.8,0.7c0,0.4,0,0.7-0.2,1.1
		c0,0.1-0.1,0.2-0.1,0.3c-0.6,2-1.5,3.9-2.7,5.6c-1.2,1.7-2.5,3.3-4,4.8c-2.7,2.7-6.1,4.4-10.3,5c-1.3,0.2-2.7,0.3-4.1,0.3
		c-2.8,0-5.7-0.5-8.6-1.4c-4.2-1.4-7.7-3.8-10.4-7.2c-2-2.6-3.6-5.4-4.6-8.3c-1.1-2.9-1.5-6.1-1.3-9.4
		C155.4,641.3,155.8,637.7,157,634.5z"/>
	<path d="M216,660L216,660c0,1.6-0.2,3-0.8,4.3c-0.5,1-1.4,1.8-3,2.3l-0.1,0l0,0l0,0l-0.1,0l0,0c-0.6,0.1-1.1,0.4-1.5,0.7
		c-0.5,0.3-1.2,1.1-1.2,2.6l0,0l0,0.1c0.1,0.7,0.3,1.2,0.6,1.6c0,0.2,0.1,0.4,0.3,0.6c0.9,0.6,1.9,1.2,2.8,1.8
		c0.5,0.3,0.9,0.6,1.4,0.9c0.5,0.3,1,0.8,1.6,0.8c0.1,0,0.2,0,0.2,0c0.4,0.1,0.7,0.2,1.1,0.2h0.4c4.1,0.2,8.2,0.3,12.3,0.3
		c1.2,0,2.5,0,3.7,0h5.3c0.1,0,0.2,0,0.4,0c0.4,0,0.8-0.1,1.1-0.2c0.5-0.2,0.8-0.7,0.9-1.4c0.2-0.5,0-1.2-0.1-1.6
		c-0.2-0.7-0.7-1.2-1.2-1.8c-0.6-0.8-1.3-1.6-2-2.4c-0.3-0.7-0.8-1.2-1.2-1.4c-0.6-0.4-1.4-0.6-2.2-0.7c-0.1,0-0.2,0-0.4-0.1
		c-0.3-2.8-0.3-5.6-0.2-8.3l0-0.2l0.1-2.3c0-1.9,0-3.7,0.1-5.6c0.1-5.6,0.2-11.3,0.4-16.9c0-1.9,0.3-3.2,0.9-3.8
		c0.6-0.7,1.8-1.2,3.6-1.7c0.1,0,0.1,0,0.2,0c0.6-0.1,1.1-0.3,1.4-0.6c0.4-0.3,0.7-0.8,0.6-1.6c0,0,0-0.1,0-0.1
		c0.1-0.4-0.1-0.8-0.4-1.2c-0.2-0.4-0.4-0.7-0.7-1.1c-0.7-1-1.4-2-2.2-3c-0.3-1-1-1.4-1.5-1.6c-0.5-0.2-1-0.3-1.5-0.3
		c-0.2,0-0.3,0-0.5,0l0,0l0,0c-0.1,0-0.2,0-0.2,0c-5-0.1-10.1-0.2-15.2-0.2l-4.4-0.1l-1,0l-0.4,0c-0.2,0-0.3,0-0.5,0
		c-0.5,0-0.9,0.1-1.3,0.2c-0.7,0.2-1.5,0.7-1.9,2.3l0,0l0,0.1c-0.3,1.7,0.4,2.6,1,3.1c0.6,0.4,1.3,0.8,2.3,0.9
		c1.2,0.3,2.3,0.6,2.8,1.6c0.2,0.5,0.3,1.3,0.3,1.9c0,0.1,0,0.3,0,0.4l0.1,0c0,0,0,0,0,0l-0.1,0c0.1,3.7,0.1,7.4,0,11.1l0,4.7v1.5h0
		v3.2C216.1,652.7,216.1,656.4,216,660L216,660z M216.8,664.9c0.7-1.5,1-3.1,0.9-5c0-3.6,0.1-7.3,0-10.9v-4.9h0v-4.5
		c0-3.7,0-7.5,0-11.2c0-1.7-0.3-3-1-3.8c-0.6-0.8-1.8-1.4-3.5-1.8c-0.7-0.1-1.2-0.4-1.6-0.6c-0.3-0.2-0.4-0.7-0.3-1.4
		c0.1-0.6,0.3-0.9,0.6-1c0.2-0.1,0.5-0.1,0.8-0.1c0.1,0,0.3,0,0.4,0l0.5,0l1,0l4.5,0.1c5,0,10.1,0.1,15.2,0.2h0c0.2,0,0.3,0,0.5,0
		c0.1,0,0.2,0,0.3,0c0.3,0,0.6,0.1,0.9,0.2c0.3,0.1,0.5,0.5,0.5,1c0,0.6-0.1,1-0.4,1.2c-0.4,0.2-0.8,0.4-1.3,0.5l0,0l0,0
		c0,0,0,0,0,0h0l0,0c-2,0.5-3.2,1.1-3.8,1.8c-0.6,0.8-1,2.1-1,4.1c-0.2,5.6-0.3,11.3-0.4,16.9c0,1.8,0,3.7-0.1,5.6l-0.1,2.3l0,0.2
		c-0.2,2.9-0.1,5.9,0.2,8.8c0.1,1.5,0.6,2.8,1.3,3.8c0.7,1,1.9,1.6,3.6,1.8c0.6,0,1,0.2,1.5,0.4c0.4,0.2,0.6,0.6,0.6,1.3
		c-0.1,0.6-0.3,1-0.6,1.1c-0.3,0.1-0.6,0.2-1,0.2c-0.1,0-0.2,0-0.3,0l-0.3,0h-5c-1.2,0-2.5,0-3.7,0c-4.1,0-8.2-0.1-12.3-0.3l-0.4,0
		c-0.5,0-0.9-0.1-1.3-0.2c-0.3-0.1-0.5-0.5-0.6-1c0-0.5,0.1-0.8,0.4-1c0.3-0.2,0.7-0.4,1.2-0.5l0.1,0l0,0c0,0,0,0,0,0
		C214.8,667.5,216.2,666.4,216.8,664.9z"/>
	<path d="M249.5,665.6c-0.1,0-0.3,0.1-0.5,0.1c-0.9,0.2-1.7,0.5-2.4,0.9c-0.7,0.5-1.5,1.4-1.3,3.3l0,0l0,0c0,0.3,0.1,0.5,0.2,0.8
		c0,0.2,0,0.4,0.1,0.5c0.1,0,0.1,0.1,0.2,0.1c0.4,0.8,1,1.1,1.5,1.3c1.4,1.1,3,2.2,4.6,3.1c0.1,0.1,0.3,0.1,0.4,0.1
		c0.4,0.1,0.9,0.2,1.4,0.2c0.2,0,0.4,0,0.6,0h0.7c1.1,0,2.1,0,3.2,0c2.1,0,4.2,0,6.3,0c1.6,0,3.3,0,5,0c1.7,0,3.3,0,5,0
		c0.2,0,0.3,0,0.5,0c0.1,0,0.3,0,0.4,0c0.2,0,0.4,0,0.5,0c0.1,0.1,0.3,0.1,0.5,0.1c0.3-0.1,0.7-0.2,0.9-0.5c0.2-0.2,0.3-0.5,0.3-0.8
		c0-0.2-0.1-0.4-0.1-0.6c0-0.2,0-0.3,0-0.5c0-0.4,0-0.9,0-1.3c0-0.5,0.1-0.9-0.3-1.3c-0.3-0.3-0.6-0.6-0.9-0.9
		c-0.8-0.8-1.6-1.6-2.4-2.3c-0.2-0.5-0.5-0.8-0.8-1c-0.7-0.5-1.5-0.8-2.5-0.9c0,0,0,0-0.1,0c-0.1-1.7-0.2-3.4-0.2-5.1
		c0-1.6-0.1-3.2-0.2-4.8c-0.1-1.3,0.1-2.3,0.6-2.9c0.5-0.6,1.4-0.9,2.6-0.9c0.2,0,0.3,0,0.5,0c1.6,0.1,3.2,0.2,4.8,0.2
		c0.8,0,1.6,0,2.4,0c2.4-0.1,4.8-0.5,7.2-1.1c4.5-1.4,7.7-3.8,9.7-7.1c0-0.1,0.1-0.1,0.1-0.2c0.8-1.1,1.4-2.4,1.8-3.6
		c0.7-2,0.8-4.2,0.4-6.3c-0.8-4.5-3.7-8.3-7.2-11c-1.9-1.4-4-2.5-6.1-3.4c-0.2-0.1-0.3-0.1-0.5-0.2c-0.1,0-0.1-0.1-0.2-0.1
		c0,0-0.1,0-0.1,0c-1.2-0.4-2.4-0.8-3.8-1.1c-2-0.4-4.1-0.7-6.1-0.8c-1.6-0.1-3.3-0.1-4.9-0.1c-0.4,0-0.8,0-1.2,0
		c-0.3,0-0.6,0-0.9,0c-2.1,0-4.4-0.1-6.7-0.2l0,0l-0.1,0h-2.8c-2.9,0-6.1,0-9.5,0c0,0,0,0-0.1,0l-0.1,0l0,0l0,0l-0.1,0
		c-0.1,0-0.2,0-0.3,0c-0.7,0-1.4,0.1-2,0.3c-0.6,0.2-1.7,0.8-2,2.7l0,0.1l0,0l0,0l0,0.1c-0.1,1.7,0.8,2.6,1.4,3.1
		c0.7,0.5,1.5,0.8,2.5,1c0.6,0.1,1.2,0.3,1.6,0.7c0.5,0.4,0.8,0.9,0.9,1.5c0.1,0.5,0.2,1,0.2,1.5c0,2.5,0,5,0,7.5l0,0l0,0
		c0,1.1,0,2.2,0,3.3l0,0l0,0v6.1c0,5.1,0,10.2-0.2,15.2l0,0l0,0c0,1.2-0.1,2.3-0.5,3.4C251.1,664.8,250.5,665.3,249.5,665.6z
		 M253,664.6c0.4-1.3,0.6-2.6,0.6-4c0.1-5,0.2-10.2,0.2-15.3v-6.1c0-1.1,0-2.2,0-3.3c0-2.5,0.1-5.1,0-7.6c0-1.4-0.3-2.6-0.9-3.5
		c-0.6-1-1.7-1.6-3.2-1.9c-0.7-0.1-1.3-0.4-1.8-0.7c-0.5-0.3-0.7-0.8-0.7-1.6c0.1-0.7,0.4-1.1,0.8-1.3c0.4-0.1,0.9-0.2,1.5-0.2
		c0.1,0,0.1,0,0.2,0c0.1,0,0.3,0,0.4,0c3.4,0,6.6,0,9.5,0h2.8c2.4,0.1,4.7,0.2,6.8,0.2c0.3,0,0.6,0,0.9,0c0.4,0,0.8,0,1.2,0
		c1.6,0,3.3,0,4.9,0.1c2,0.1,3.9,0.4,5.9,0.8c2.7,0.5,5.2,1.5,7.3,2.9c2.1,1.4,3.7,3.4,4.8,6c1.4,3.8,1.1,7.4-0.8,10.6
		c-1.9,3.2-5.1,5.6-9.5,6.9c-2.3,0.6-4.7,1-7.1,1.1c-0.8,0-1.6,0-2.4,0c-1.6,0-3.2-0.1-4.8-0.2c-0.2,0-0.4,0-0.6,0
		c-1.3,0-2.3,0.3-2.9,1c-0.6,0.7-0.9,1.8-0.7,3.2c0.1,1.6,0.2,3.2,0.2,4.7c0,2,0.1,4.1,0.3,6.1c0.1,1.5,0.6,2.7,1.3,3.5
		c0.7,0.8,1.8,1.3,3.2,1.5c0.7,0.1,1.3,0.3,1.7,0.6c0.4,0.3,0.5,0.9,0.4,1.7c-0.1,0.6-0.3,1-0.6,1.1c-0.2,0.1-0.5,0.1-0.9,0.1
		c-0.1,0-0.3,0-0.4,0c-0.2,0-0.3,0-0.5,0l0,0h0c-1.7,0-3.3,0-5,0c-1.7,0-3.3,0-5,0c-2.1,0-4.2,0-6.3,0c-1.1,0-2.1,0-3.2,0h-0.7l0,0
		c-0.2,0-0.4,0-0.6,0c-0.4,0-0.9-0.1-1.3-0.2c-0.5-0.1-0.9-0.6-1-1.4c-0.1-0.8,0.1-1.3,0.5-1.6c0.5-0.3,1.1-0.5,1.9-0.7
		c0.2-0.1,0.3-0.1,0.5-0.1l0,0l0,0C251.5,666.8,252.6,665.9,253,664.6z"/>
	<path d="M302.7,618.6L302.7,618.6l-0.4,0c-0.1,0-0.2,0-0.3,0c-0.6,0-1.1,0.1-1.6,0.2c-1.1,0.3-1.8,1.1-2,2.2l0,0l0,0.1
		c-0.3,1.7,0.6,2.5,1.2,2.8c0.5,0.3,1.2,0.5,1.9,0.7c0.2,0,0.4,0.1,0.6,0.1c1.1,0.2,2.4,1.1,2.6,2.3c0.1,0.2,0.1,0.5,0.1,0.8l0,0.1
		l0,8c0,8.6,0,17.4-0.1,26v0l0,0c0,1.1-0.2,2-0.6,2.8c-0.3,0.7-1,1.2-1.9,1.6c-0.2,0.1-0.4,0.1-0.7,0.1c-0.7,0-1.4,0.2-1.9,0.5
		c-0.5,0.3-1.4,1-1.3,2.8l0,0.1l0,0l0,0l0,0.1c0.1,0.7,0.4,1.2,0.7,1.6c0,0.1,0.1,0.2,0.1,0.2c0.9,0.7,1.8,1.4,2.7,2
		c0.9,0.5,1.8,1,2.7,1.5c0.2,0.2,0.4,0.3,0.6,0.3c0.4,0.1,0.8,0.1,1.2,0.1c0.2,0,0.4,0,0.7,0h0.8c3.1,0,8.1,0,14.7,0.1
		c4.9,0,9.6,0.1,14,0.1c4.4,0,7.7,0.1,9.7,0.1c0.3,0,0.5,0,0.8,0c1.4,0,2.4-0.3,3.1-0.9c0.8-0.7,1.2-1.9,1.1-3.8
		c0-1.8,0-3.6,0.1-5.4c0-1.4,0.1-2.7,0.1-4v-0.2c0.1-0.7,0.2-1.5,0.2-2.3c-0.1-0.8-0.5-1.5-0.9-2.2c-0.9-1.4-1.9-2.7-3.2-3.9
		c0,0-0.1,0-0.1-0.1c-0.1-0.1-0.2-0.2-0.3-0.2c0,0-0.1,0-0.1-0.1c-0.3-0.2-0.8-0.4-1.3-0.5l0,0l-0.1,0c-0.2,0-0.3,0-0.4,0
		c-1,0-1.9,0.4-2.4,1.2c-0.4,0.6-0.7,1.2-0.9,1.9c-0.1,0.2-0.2,0.4-0.2,0.6l0,0l0,0c-1.8,4.4-3.9,7.4-6.4,8.9c-2,1.2-4.7,1.9-8,1.9
		c-0.8,0-1.7,0-2.6-0.1l0,0l0,0c-0.6,0-1.1-0.1-1.6-0.2c0-0.1,0-0.2,0-0.3c0-3.2,0-6.4,0-9.7l0-0.8c0.1-3.9,1.4-5.8,4-5.8
		c0.1,0,0.3,0,0.4,0c0.1,0,0.1,0,0.2,0c0.1,0,0.2,0.1,0.3,0.1c0.1,0,0.1,0,0.2,0.1c0,0,0,0,0,0c0,0,0,0,0,0c0,0,0,0,0.1,0
		c0.1,0.1,0.2,0.1,0.3,0.2c0.1,0,0.1,0.1,0.2,0.1c0,0,0,0.1,0.1,0.1c0.4,0.8,0.7,1.6,0.8,2.5c0,0.2,0.1,0.3,0.1,0.5
		c0,0.6,0.2,1.2,0.5,1.8c0,0,0,0.1,0.1,0.1c0,0.1,0.1,0.2,0.1,0.3c1.5,1.4,3.1,2.7,4.9,3.7c0.8,0.5,1.8,0.7,2.6,0.3
		c0.4-0.2,0.6-0.5,0.8-0.9c0-0.1,0.1-0.1,0.1-0.2c0.2-0.5,0.3-1.1,0.2-1.8c0-5.4,0-10.9,0-16.3v-0.4c0-0.6,0-1.1-0.2-1.6
		c0-0.1-0.1-0.3-0.2-0.4c-0.2-0.6-0.6-1.2-0.9-1.7c-0.7-1.1-1.4-2.2-2.2-3.2c-0.4-0.6-1-1.2-2.3-1.4l0,0l-0.1,0c-0.2,0-0.3,0-0.5,0
		c-1.4,0-2,0.6-2.3,1.2c-0.3,0.5-0.5,1.1-0.6,1.8c0,0.2,0,0.4-0.1,0.6c-0.6,2.1-1.6,3.6-3.1,4.6c-1,0.6-2.1,1-3.4,1.1
		c0-3.2,0.1-6.3,0.2-9.3c0.1-1.6,0.6-2.8,1.6-3.5c1-0.7,2.2-1.1,3.8-1.2c0.9-0.1,1.8-0.1,2.6-0.1c1.6,0,3,0.1,4.3,0.4
		c0.8,0.2,1.5,0.5,2.2,0.9c0.2,0.2,0.5,0.3,0.7,0.5c1.2,1.6,2.2,3.5,3.1,5.9l0.2,0.5c0.1,0.5,0.3,1,0.6,1.4c0.2,0.2,0.5,0.6,1,0.8
		c0.7,0.5,1.4,0.9,2.1,1.4c0.4,0.3,0.9,0.6,1.3,0.9c0.4,0.3,0.8,0.6,1.3,0.8c0,0,0,0,0.1,0c0.1,0,0.2,0.1,0.3,0.1c0.1,0,0.1,0,0.2,0
		c0.1,0,0.2,0,0.3,0c0.7-0.1,1.2-0.5,1.3-1c0.1-0.4,0.2-0.9,0.2-1.4l0,0l0,0c0-0.1,0-0.3,0-0.4c0-1,0-2.1,0-3.1c0-2.1,0-4.2,0-6.3
		c0-0.1,0-0.2,0-0.3c0,0,0-0.1,0.1-0.2c0.1-0.8,0-1.8-0.1-2.6c-0.1-0.9-0.6-1.5-1.2-2.2c-0.9-1.1-2-2.2-3-3.2
		c-0.1-0.1-0.1-0.2-0.2-0.2c-0.1-0.1-0.1-0.1-0.2-0.1c0,0,0,0,0,0c0,0,0,0-0.1,0c-0.9-0.7-2.1-1.1-3.7-1.1c-0.1,0-0.1,0-0.2,0
		c-8,0-16.1,0-24.1-0.1C312.8,618.7,307.8,618.7,302.7,618.6z M341.8,620.5c0.1,0,0.1,0,0.2,0c1.3,0,2.2,0.3,2.8,0.8
		c0.6,0.6,0.9,1.6,0.8,3c-0.1,2.1-0.1,4.2,0,6.3c0,1.1,0,2.1,0,3.1c0,0.2,0,0.3,0,0.5c0,0.5,0,0.9-0.1,1.3c-0.1,0.3-0.4,0.5-1,0.6
		c-0.1,0-0.2,0-0.3,0c-0.3,0-0.5-0.1-0.6-0.2c-0.2-0.3-0.3-0.6-0.4-0.9l0,0l0,0l-0.2-0.6c-1.8-4.7-4.1-8-6.9-9.7
		c-2.3-1.4-5.4-2.1-9.4-2.1c-0.9,0-1.8,0-2.7,0.1c-1.7,0-3.1,0.5-4.1,1.3c-1,0.8-1.6,2.1-1.7,3.8c-0.2,3.7-0.2,7.5-0.2,11.2v1.8
		c0,1.3,0.8,2.1,2.2,2.2c0.6,0.1,1.2,0.1,1.7,0.1c1.9,0,3.6-0.5,5.1-1.4c1.9-1.2,3.2-3.1,3.8-5.6c0.1-0.3,0.1-0.5,0.1-0.8
		c0-0.4,0.2-0.8,0.3-1.1c0.1-0.2,0.4-0.3,0.8-0.3c0.1,0,0.2,0,0.3,0c0.6,0.1,1,0.3,1.1,0.7c0.1,0.4,0.2,0.9,0.2,1.5l0,0.4
		c0,5.4,0,10.9,0,16.3c0,0.6-0.1,1.2-0.2,1.7c-0.2,0.4-0.6,0.7-1.4,0.7c-0.5,0-0.8-0.2-1-0.4c-0.2-0.3-0.3-0.6-0.3-1.1
		c0-0.3-0.1-0.5-0.1-0.7c-0.3-1.3-0.8-2.6-1.4-3.7c-0.6-1.1-1.7-2.1-3.1-2.7c-1.6-0.7-3-1.1-4.2-1.1c-2.8,0-4.3,2.1-4.4,6.2l0,0.8
		c-0.1,3.2-0.1,6.5,0,9.7c0,2.3,0.5,4,1.4,4.9c0.9,0.9,2.6,1.4,4.9,1.5c0.9,0.1,1.9,0.1,2.7,0.1c3.7,0,6.6-0.7,8.9-2.1
		c2.8-1.7,5.2-5,7.1-9.7c0.1-0.2,0.2-0.5,0.3-0.8c0.1-0.5,0.4-1,0.6-1.4c0.2-0.3,0.5-0.4,1-0.4c0.1,0,0.2,0,0.3,0
		c0.7,0.1,1.1,0.4,1.2,0.9c0.1,0.5,0.2,1.1,0.1,1.7l0,0v0.8c0,1.3-0.1,2.7-0.1,4c-0.1,1.8-0.1,3.6-0.1,5.4c0.1,1.7-0.2,2.8-1,3.4
		c-0.6,0.5-1.6,0.8-2.8,0.8c-0.2,0-0.5,0-0.8,0c-2,0-5.3-0.1-9.7-0.1c-4.3,0-9.1-0.1-14-0.1c-6.7,0-11.6,0-14.7-0.1h-0.8l0,0
		c-0.2,0-0.4,0-0.6,0c-0.4,0-0.7,0-1.1-0.1c-0.5-0.1-0.8-0.5-0.9-1.2c0-0.6,0.1-1,0.4-1.1c0.4-0.2,0.8-0.3,1.3-0.3
		c0.4-0.1,0.8-0.1,1.1-0.2c1.4-0.6,2.4-1.4,2.9-2.5c0.5-1.1,0.8-2.3,0.7-3.6c0.1-8.6,0.1-17.4,0.1-26v-8c0-1.4-0.4-2.4-1.1-3.2
		c-0.7-0.7-1.7-1.3-2.9-1.6c-0.2-0.1-0.5-0.1-0.7-0.1c-0.5-0.1-0.9-0.2-1.3-0.5c-0.3-0.2-0.4-0.5-0.3-1.1c0.1-0.5,0.3-0.8,0.7-0.9
		c0.4-0.1,0.8-0.1,1.2-0.1c0.1,0,0.2,0,0.3,0l0.3,0c5,0,10.1,0,15.1,0.1C325.7,620.5,333.8,620.5,341.8,620.5z"/>
	<path d="M58.6,636.2c0,1.2,0,2.1,0.1,2.7c0,0.4,0,0.9,0.2,1.3c0.2,0.4,0.5,0.8,1.1,0.9c0.8,0.3,1.9,0.4,3.2,0.4c0.3,0,0.7,0,1,0
		c1.8-0.1,3.7-0.4,5.4-1c1.8-0.6,3.2-1.4,4.1-2.6c1.2-1.8,1.9-3.7,2-5.5c0.1-1.9-0.3-3.8-1.1-5.7c-0.7-1.7-1.8-2.9-3.2-3.5
		c-1.4-0.6-2.9-1-4.6-1c-0.6,0-1.1-0.1-1.6-0.1c-1.5,0-2.8,0.2-3.9,0.5c-1.6,0.5-2.5,2.1-2.7,4.6c0,0.8-0.1,2,0,3.8
		C58.5,632.9,58.6,634.6,58.6,636.2z M63.3,631.6c0.2-2.4,1-3.8,2.4-4.2c1.1-0.3,2.3-0.5,3.8-0.5c0.5,0,1,0,1.6,0.1
		c0.6,0,1.2,0.1,1.8,0.2c0,0.1,0.1,0.2,0.1,0.3c0.7,1.7,1,3.3,1,4.9c-0.1,1.5-0.6,3.1-1.7,4.6c-0.7,0.9-1.7,1.5-3.2,2
		c-1.6,0.5-3.3,0.8-5,0.9c-0.3,0-0.5,0-0.8,0c0-1.4-0.1-2.9-0.1-4.4C63.2,633.7,63.2,632.4,63.3,631.6z"/>
	<path d="M265.9,641.5c-0.1,1.4,0.6,2.3,2,2.6c1,0.2,2,0.3,3,0.3c1,0,2.1-0.1,3.1-0.3c1.9-0.4,3.7-1.4,5.2-3
		c1.4-1.5,2.3-3.6,2.6-6.1c0.3-2.5,0-4.9-0.9-7.1c-1-2.1-2.3-3.4-3.9-4c-1.6-0.6-3.2-1-4.8-1.1c-0.1,0-0.2,0-0.3,0
		c-1.6,0-3,0.2-4,0.7c-1.1,0.5-1.8,1.6-1.9,3.2c-0.1,3.4-0.1,6.8,0,10.1V641.5z M270.7,631.1c0.1-1.5,0.6-2.4,1.6-2.9
		c1-0.4,2.3-0.7,3.8-0.7c0.1,0,0.2,0,0.2,0c0.5,0,1,0.1,1.5,0.2c0.1,0,0.2,0.1,0.4,0.2c0.5,0.4,0.9,0.9,1.2,1.4
		c0.6,1.7,0.8,3.5,0.5,5.4c-0.2,2.1-1,3.8-2.1,5.1c-1.3,1.3-2.8,2.1-4.4,2.5c-0.9,0.2-1.8,0.3-2.7,0.3c-0.1,0-0.1,0-0.2,0v-1.6
		C270.6,637.8,270.6,634.4,270.7,631.1z"/>
	<path d="M355.8,704.1h-31.9c-1.6,3.2-16.5,1.5-18.7,1.1c-2.4-0.3-4.7-0.9-6.8-1.7v-1c0-5.8-4.7-10.5-10.5-10.5H101.8
		c-5.8,0-10.5,4.7-10.5,10.5v1c-2,0.8-4.3,1.4-6.8,1.7c-2.2,0.3-17.2,2-18.7-1.1H33.9c-1.6,0-3,0.9-4,2.2c-1,1.4-1.7,3.3-1.7,5.4v4
		c0,2.1,0.6,4,1.7,5.4c1,1.4,2.5,2.2,4,2.2h31.9c1.7-3.1,15.4-2.4,18.1-2c2.7,0.4,5.3,1.1,7.5,2.1v1.5c0,5.8,4.7,10.5,10.5,10.5
		h186.1c5.8,0,10.5-4.7,10.5-10.5v-1.5c2.2-1,4.8-1.7,7.5-2.1c2.7-0.4,16.3-1.2,18.1,2h31.9c1.6,0,3-0.9,4-2.2
		c1-1.4,1.7-3.3,1.7-5.4v-4c0-2.1-0.6-4-1.7-5.4C358.8,704.9,357.4,704.1,355.8,704.1z"/>
	<path d="M140.2,551.9c-0.9-2.4-2.4-4.4-4.3-5.9c-1.9-1.5-4.2-2.5-6.6-3c-2.2-0.4-4.4-0.2-6.5,0.5c-2.2,0.7-4.1,1.9-5.7,3.5
		s-2.7,3.6-3.3,5.9c-1.1,4.2-0.7,7.9,1.2,11c2,3.1,5.4,5.3,10,6.2c2.7,0.5,5.2,0.4,7.4-0.3c2.2-0.7,4-1.9,5.5-3.6
		c1.4-1.7,2.4-3.6,2.9-5.9C141.3,557.1,141.1,554.3,140.2,551.9z M133.3,560c0,0.1,0,0.1,0,0.2c-0.4,1.2-0.8,2.3-1.2,3.5
		c-0.5,1.1-1.1,2.2-1.9,3.2c-0.7,0.9-1.5,1.4-2.5,1.7c-0.9,0.3-2,0.3-3.1,0.2c-2.3-0.3-3.9-1.6-4.7-3.6c-0.5-1.4-0.7-2.7-0.6-4
		c0.1-1.3,0.3-2.7,0.6-4c0-0.1,0.1-0.3,0.1-0.4c0.7-3.4,2-6.7,4-9.5c1.5-2.1,3.6-2.9,6.1-2.4c1.2,0.3,2.2,0.9,2.9,1.8
		c0.8,0.9,1.2,1.9,1.4,3.1C134.7,553.1,134.4,556.6,133.3,560z"/>
	<path d="M166.9,550.6c-1.4-0.1-3.5-0.3-6.3-0.7c-2.8-0.3-5.5-0.7-8.1-1.2c-2.6-0.4-4.5-0.7-5.5-0.9c-0.3-0.1-0.6-0.1-0.8-0.1
		c-0.3,0-0.5,0.2-0.6,0.6c-0.1,0.2-0.1,0.4,0,0.6c0.1,0.2,0.2,0.3,0.4,0.3c1.2,0.5,1.9,1.1,2,2c0.2,0.8,0.1,1.8-0.1,2.8
		c-0.9,5.1-1.9,10.4-2.9,15.5c-0.3,1.7-1.4,2.6-3.2,2.7c-0.1,0-0.2,0-0.3,0c-0.2,0-0.4,0-0.5,0c-0.2,0.1-0.3,0.2-0.3,0.4
		c0,0.3,0.1,0.5,0.2,0.7c0.2,0.1,0.4,0.2,0.7,0.3c2.7,0.7,5.5,1.1,8.3,1.5c1.2,0.1,2.5,0.3,3.8,0.4c0,0,0.1,0,0.1,0
		c0.2,0,0.5,0.1,0.7,0c0.2,0,0.4-0.2,0.5-0.4c0.1-0.3,0.1-0.6-0.1-0.7c-0.2-0.1-0.4-0.2-0.7-0.3c-1.1-0.3-1.7-0.8-2.1-1.5
		c-0.3-0.7-0.4-1.5-0.3-2.4c0.3-2,0.6-4.1,0.9-6c0.1-1.1,0.8-1.7,2.1-1.6c2.5,0.2,4,1.4,4.5,3.8c0,0.2,0,0.3,0,0.5
		c0,0.3,0.1,0.6,0.2,0.9c0.1,0.3,0.4,0.4,0.8,0.4c0.4,0,0.6-0.2,0.7-0.5c0.1-0.3,0.2-0.6,0.2-1c0-0.1,0-0.2,0-0.4
		c0.1-0.4,0.1-0.7,0.2-1.1c0.3-1.9,0.6-3.8,0.9-5.7c0-0.1,0-0.3,0.1-0.5c0.1-0.4,0.1-0.8,0.1-1.2c0-0.4-0.2-0.7-0.6-0.8
		c-0.4-0.2-0.8-0.1-1,0.2c-0.2,0.3-0.3,0.6-0.4,1c-0.1,0.2-0.1,0.5-0.2,0.6c-0.5,0.9-1.4,1.6-2.5,2c-1.2,0.4-2.3,0.4-3.3-0.1
		c-0.6-0.3-0.9-0.8-0.8-1.4c0.4-2.1,0.7-4.3,1.1-6.4c0.2-0.8,0.7-1.4,1.6-1.7c1.3-0.4,3-0.2,4.8,0.4c1.9,0.6,3.3,1.4,4.2,2.4
		c0.9,1.1,1.5,2.6,1.8,4.1c0,0.3,0.1,0.5,0.2,0.7c0.1,0.2,0.4,0.3,0.7,0.3c0.3,0,0.5-0.2,0.6-0.4c0.1-0.2,0.1-0.5,0.1-0.7
		c0-0.6,0.1-1.2,0.1-1.8c0-1.1,0.2-2.1,0.3-3.2c0.1-0.9,0-1.6-0.4-1.9C168.3,550.8,167.7,550.6,166.9,550.6z"/>
	<path d="M209.6,560.7c-0.1-2.4-0.3-4.7-0.5-7.1c0,0,0,0,0-0.1c0-0.5-0.1-0.9-0.3-1.1c-0.2-0.2-0.6-0.3-1.2-0.3
		c-2.1,0-4.3,0.1-6.6,0.2c-1.2,0.1-2.4,0.1-3.7,0.1c-3.3,0-6.6-0.1-9.8-0.2c-0.6,0-1.2,0-1.8-0.1c-0.7,0-1.2,0-1.5,0.2
		c-0.3,0.2-0.4,0.7-0.5,1.4c-0.1,1.3-0.2,2.7-0.3,4.1c0,0.5-0.1,1-0.1,1.5c0,0.4,0,0.8-0.1,1.3c0,0.2,0,0.4,0,0.6
		c0,0.2,0,0.3,0.1,0.4c0,0.1,0.2,0.2,0.3,0.3c0.4,0.1,0.8,0,1-0.4c0.2-0.3,0.3-0.6,0.4-0.9c0.2-0.8,0.6-1.6,1-2.3
		c0.4-0.7,0.8-1.4,1.3-2.2c0,0,0.1-0.1,0.1-0.2c0.7-1.1,1.7-1.8,3-2c1.2-0.2,2-0.2,2.4,0.1c0.4,0.3,0.6,1,0.6,2.2c0,1,0,2.8-0.1,5.3
		c0,2.5-0.1,5-0.2,7.5c-0.1,2.5-0.1,4.1-0.2,4.8c-0.1,1-0.3,1.8-0.8,2.2c-0.5,0.4-1.3,0.7-2.5,0.8c-0.3,0-0.7,0.2-0.9,0.3
		c-0.3,0.2-0.4,0.5-0.3,0.8c0.1,0.2,0.3,0.4,0.6,0.4c0.1,0,0.3,0,0.4,0c0.2,0,0.4,0,0.7,0c0.6,0,1.2,0,1.8,0c2.6,0.1,5.3,0,7.9,0
		c0.7,0,1.4,0,2-0.1c0.4,0,0.8,0,1.3-0.1c0.2,0,0.4,0,0.6-0.1c0.2-0.1,0.3-0.2,0.3-0.4c0-0.3,0-0.5-0.2-0.6
		c-0.2-0.1-0.4-0.2-0.7-0.2c-0.3,0-0.5-0.1-0.8-0.1c-1.7-0.3-2.6-1.3-2.8-2.8c-0.2-2.5-0.3-5.1-0.3-7.6c0-2.5,0-5,0-7.6
		c0-1,0.1-2.1,0-3.2c0-0.4,0-0.8,0.2-1.2c0.1-0.4,0.5-0.6,1-0.7c0.6-0.1,1.2-0.1,1.8-0.1c0.6,0.1,1.1,0.3,1.6,0.7
		c1,0.8,1.8,1.7,2.4,2.8c0.4,0.7,0.7,1.5,1,2.2c0.2,0.5,0.3,0.9,0.5,1.4c0,0,0,0.1,0.1,0.1c0.1,0.2,0.2,0.4,0.3,0.6
		c0.1,0.2,0.4,0.2,0.7,0.1c0.3-0.1,0.5-0.2,0.5-0.4c0-0.2,0.1-0.4,0-0.6C209.7,560.9,209.7,560.8,209.6,560.7z"/>
	<path d="M248.2,572.3c-0.2-0.1-0.4-0.1-0.6-0.1c-1.4,0-2.3-0.3-2.8-1.1c-0.5-0.7-0.7-1.6-0.9-2.7c-0.7-4.9-1.6-10.1-2.5-15
		c-0.2-0.9-0.2-1.7,0-2.4c0.2-0.7,0.8-1.3,1.7-1.8c0.3-0.1,0.5-0.3,0.6-0.4c0.2-0.2,0.2-0.4,0.1-0.7c-0.1-0.3-0.3-0.4-0.6-0.4
		c-0.3,0-0.5,0-0.7,0.1c-1.3,0.3-2.6,0.5-3.9,0.7c-2.2,0.3-4.5,0.7-6.7,1.1c0,0-0.1,0-0.1,0c-0.2,0-0.4,0.1-0.6,0.2
		c-0.2,0.1-0.3,0.3-0.3,0.5c0,0.3,0.1,0.5,0.2,0.7c0.2,0.1,0.4,0.2,0.7,0.2c1,0.1,1.7,0.4,2.2,1c0.5,0.6,0.8,1.3,0.9,2.2
		c0.2,1.1,0.4,2.3,0.5,3.4c0.1,0.5,0.1,1.1,0.2,1.6c0.1,0.7-0.2,1.3-0.9,1.4c-1,0.2-2.1,0.3-3.1,0.5c-2,0.4-4,0.7-6,0.8
		c-0.8,0-1.2-0.4-1.2-1.1c0-0.5-0.1-0.9-0.1-1.4c-0.1-1.3-0.2-2.7-0.3-4c0-0.8,0.1-1.6,0.3-2.2c0.3-0.7,0.9-1.1,1.8-1.4
		c0.3-0.1,0.5-0.2,0.6-0.4c0.1-0.2,0.2-0.5,0.1-0.7c-0.1-0.3-0.2-0.5-0.5-0.5c-0.2,0-0.5,0-0.7,0c0,0-0.1,0-0.1,0
		c-1.7,0.2-3.4,0.4-5,0.5c-0.6,0.1-1.1,0.1-1.7,0.2c-1.3,0.1-2.6,0.2-3.9,0.4c-0.2,0-0.4,0.1-0.6,0.2c-0.2,0.1-0.3,0.3-0.3,0.6
		c-0.1,0.5,0.2,0.8,0.7,0.9c1.1,0.2,1.9,0.5,2.3,1.2c0.4,0.7,0.6,1.5,0.7,2.4c0.3,4.8,0.7,9.8,1.1,14.6c0,0.5,0.1,1.1,0.1,1.6
		c0.1,1.5-0.6,2.6-2.2,3.2c-0.1,0-0.2,0.1-0.3,0.1c-0.3,0-0.5,0.1-0.7,0.2c-0.2,0.1-0.3,0.4-0.2,0.7c0.1,0.3,0.3,0.5,0.5,0.5
		c0.2,0,0.5,0,0.8,0c0.1,0,0.2,0,0.3,0c3.4-0.2,6.8-0.4,10.1-0.8c0.4,0,0.8-0.1,1.2-0.1c0.3,0,0.6-0.1,0.8-0.2
		c0.2-0.1,0.4-0.3,0.4-0.6c0-0.3-0.1-0.5-0.3-0.7c-0.2-0.1-0.5-0.2-0.7-0.2c-0.9-0.1-1.6-0.4-2.1-0.9c-0.4-0.5-0.8-1.1-0.9-1.9
		c-0.4-1.7-0.5-3.5-0.5-5.2c0-0.5,0-1.1-0.1-1.6c0-0.9,0.5-1.4,1.4-1.5c1.1-0.1,2.3-0.2,3.4-0.4c1.4-0.2,2.8-0.4,4.2-0.5
		c1.4-0.1,2.1,0.4,2.3,1.7c0.2,1.9,0.5,3.9,0.8,5.9c0.1,0.8,0,1.5-0.3,2.2c-0.3,0.6-0.9,1.2-1.8,1.5c-0.6,0.2-0.9,0.6-0.7,1.2
		c0.1,0.3,0.3,0.4,0.5,0.5c0.2,0,0.4,0,0.7,0c0.1,0,0.1,0,0.2,0c0.5,0,1-0.1,1.5-0.2c1.3-0.1,2.6-0.3,3.8-0.5
		c2.1-0.3,4.2-0.8,6.3-1.3c0.2,0,0.4-0.1,0.6-0.3c0.2-0.1,0.3-0.3,0.3-0.6C248.5,572.6,248.3,572.4,248.2,572.3z"/>
	<path d="M278.6,561.1c-0.2-0.7-0.4-1.3-0.5-2c0-0.1-0.1-0.2-0.1-0.4c0-0.3-0.1-0.6-0.3-0.8c-0.2-0.2-0.5-0.3-0.9-0.3
		c-0.4,0.1-0.6,0.2-0.7,0.5c-0.1,0.3-0.1,0.5-0.1,0.8c0,0.2,0,0.3,0,0.4c-0.3,2.6-1.2,4.6-2.4,5.8c-1.3,1.3-3.4,2.1-6.1,2.7
		c-1.3,0.3-2.2,0.3-2.8-0.1c-0.6-0.3-1-1.1-1.3-2.2c-0.4-1.6-0.8-3.2-1.2-4.8c0-0.1-0.1-0.3-0.1-0.4c-0.6-2.9,0.6-4,3.8-3.6
		c0.8,0.1,1.5,0.4,1.9,0.9c0.5,0.5,0.9,1,1.2,1.6c0.1,0.1,0.1,0.2,0.2,0.3c0.1,0.2,0.2,0.4,0.3,0.5c0.1,0.1,0.4,0.2,0.7,0.1
		c0.4-0.1,0.7-0.4,0.7-0.7s0-0.6-0.1-0.9c-0.8-2.6-1.5-5.4-2.3-8c0-0.1,0-0.1-0.1-0.2c-0.1-0.3-0.2-0.5-0.3-0.7
		c-0.1-0.2-0.4-0.3-0.8-0.2c-0.4,0.1-0.6,0.2-0.7,0.4c-0.1,0.2-0.1,0.4,0,0.7c0,0.1,0,0.3,0,0.4c0,1.3-0.4,2.4-1.2,3.2
		c-0.8,0.8-2,1.3-3.4,1.5c-0.7,0.1-1.2-0.1-1.3-0.7c-0.1-0.3-0.2-0.6-0.2-0.9c-0.5-1.8-0.9-3.7-1.3-5.6c-0.2-0.8,0-1.5,0.4-2
		c0.4-0.5,1.1-0.9,1.9-1.1c2.6-0.8,4.7-1.1,6.3-0.7c1.6,0.4,3.2,1.7,4.9,3.7c0.1,0.1,0.1,0.2,0.2,0.3c0.1,0.2,0.2,0.3,0.4,0.4
		c0.1,0.1,0.4,0.1,0.6,0c0.3-0.1,0.5-0.3,0.5-0.6c0-0.2,0-0.5-0.1-0.7c0-0.1-0.1-0.1-0.1-0.2c-0.2-0.5-0.3-1-0.5-1.5
		c-0.3-1-0.7-2.1-0.9-3.1c-0.2-0.7-0.5-1.2-0.9-1.4c-0.4-0.2-1-0.2-1.7,0c-4,1.2-8.1,2.3-12.2,3.3c-2.6,0.6-5.1,1.2-7.7,1.7
		c0,0-0.1,0-0.1,0c-0.3,0.1-0.5,0.1-0.8,0.2c-0.2,0.1-0.4,0.3-0.4,0.6c0,0.3,0.1,0.5,0.4,0.6c0.2,0.1,0.5,0.1,0.8,0.1
		c0.1,0,0.3,0,0.4,0c0.6,0,1.2,0.2,1.6,0.5c0.4,0.3,0.7,0.7,0.9,1.4c0.3,1.3,0.6,2.7,0.9,4c1,4.3,1.9,8.7,2.8,13
		c0.1,0.6,0.1,1.2,0,1.8c-0.2,0.6-0.6,1.1-1.3,1.5c-0.2,0.1-0.4,0.2-0.6,0.2c-0.3,0.1-0.5,0.2-0.7,0.3c-0.2,0.1-0.3,0.4-0.1,0.7
		c0.1,0.4,0.4,0.6,0.7,0.6c0.3,0,0.7-0.1,1-0.2c0.1,0,0.3-0.1,0.4-0.1c1.7-0.4,4.5-1,8.3-1.9c2.7-0.7,5.3-1.3,7.8-2
		c2.5-0.7,4.3-1.2,5.4-1.5c0.9-0.2,1.6-0.6,1.9-1c0.3-0.4,0.3-1.1,0-1.9C279,562.9,278.8,562,278.6,561.1z"/>
	<path d="M354.2,524.9c-10.5-5-22.1-8.9-34-9.5c5-5.3,12.8-25.2,8.8-31.6c-2.5-0.6-1.8,2.5-2.6,3.8c-4.9,8.8-13.7,15.4-23.4,18
		c-10,2.7-23.2-0.8-31.3,6.9c-5.6,5.4-1.6,12.9-1.8,19.6c-3.9,1.9-8.3,2.8-12.5,4c-40.8,11.2-84.2,11.2-124.9,0
		c-4.2-1.2-8.6-2.1-12.5-4c-0.2-6.7,3.7-14.2-1.8-19.6c-13.3-10.7-31.7,0.3-47.9-16.1c-2.7-2.7-5.2-5.4-6.9-8.8
		c-0.8-1.2,0-3.8-2.1-3.9c-5.7,3.5,4.1,28,8.3,31.6c-12.1,0.7-23.7,4.6-34.4,9.7c-6,2.6-12.8,4.2-18.2,7.7c2.5,2,4.7,0.6,7.4,0.1
		c16.6-2.4,34.8-1.1,50.6,5.3c4.9,2.8,13.5,5.6,14.8,11.2c-1.6,3.4-5.3,6.1-4.7,10c9.3,7.6,21.9,10.3,32.9,14.6
		c23.4,7.4,48.7,12,73.4,12.3l7.2,0c24.7-0.3,49.9-4.9,73.4-12.3c11-4.3,23.6-7,32.9-14.6c0.5-4-3.1-6.6-4.7-10
		c1.4-5.7,9.9-8.4,14.9-11.2c15.8-6.4,33.9-7.7,50.6-5.3c2.6,0.6,4.9,1.9,7.4-0.1c-0.3-0.2-1.1-0.6-1.4-0.9
		C366.1,529.1,359.8,527.3,354.2,524.9z M72.2,534.3c-12.8-4.6-26.2-5.9-40.1-5c9.5-3.8,18.7-7.5,28.6-9.9c5.1-1.8,9.6-0.4,14.3-2.6
		c-6.6-6-9.3-14.3-11.6-23.2c0.2,0.6,1.1,1.4,1.6,1.9c0.5,0.6,1.1,1.2,1.6,1.8c1,1.1,2.1,2.2,3.2,3.1c2,1.7,4.1,3.3,6.5,4.5
		c4.3,2.3,9,3.5,13.7,4.2c3.4,0.5,6.7,0.8,10.1,1.1c3.4,0.3,6.9,0.4,10.2,1.1c1.9,0.4,3.8,1.2,5.1,2.6c1.3,1.4,2.8,3.5,1.7,5.5
		c-0.6,1.1-2,1.5-3.2,1.7c-2.2,0.2-4.4-0.3-6.5-0.9c-2.2-0.6-4.4-1.4-6.6-2.2c-0.3-0.1-0.7-0.3-1-0.4c-2.5-0.5-3.9,1.9-4.2,3.9
		c-0.3,2,0,4.1-0.3,6.2c-0.8,5.8-2.2,11.6-4,17.1C85.8,540.1,79.1,536.6,72.2,534.3z M300.8,557.2c0,4.9-22.2,11.9-27.1,13.5
		c-25.2,8.3-52.2,12.9-78.8,13.3c-26.6-0.4-53.6-5-78.8-13.3C111,569,89,562,89,557.2c7.4-11.2,8.3-18.2,10.4-31.2
		c-0.6,3.5,31,12.7,34.2,13.7c32.5,9.6,66.8,11.4,100.1,5.3c6.2-1.1,12.3-2.5,18.3-4.1c11.7-3.1,28.6-7.2,38.2-15.3
		C292.8,537.1,294.2,547.1,300.8,557.2z M342.3,529c-15.8,1.7-31.6,5.4-43.9,15.9c-1.9-5.5-3.2-11.3-4-17.1
		c-0.4-2.9,0.8-10.8-4.3-10.1c-0.4,0-0.7,0.2-1.1,0.3c-4.1,1.5-8.8,3.6-13.2,3.2c-7.6-1-1.2-9.8,3.6-9.8c19.7-2.9,33.2,0.1,47-17.9
		c-2.3,8.8-5,17.2-11.6,23.2c4.7,2.1,9.2,0.8,14.3,2.6c9.9,2.4,19.1,6.1,28.6,9.9C352.9,529,346.6,529,342.3,529z"/>
	<path d="M365.4,323.3c-16.6,2.4-34.8,1.1-50.6-5.3c-4.9-2.8-13.5-5.6-14.8-11.2c1.6-3.4,5.3-6.1,4.7-10
		c-9.3-7.6-21.9-10.3-32.9-14.6c-23.4-7.4-48.7-12-73.4-12.3l-7.2,0c-24.7,0.3-49.9,4.9-73.4,12.3c-11,4.3-23.6,7-32.9,14.6
		c-0.5,4,3.1,6.6,4.7,10c-1.4,5.7-9.9,8.4-14.9,11.2c-15.8,6.4-33.9,7.7-50.6,5.3c-2.6-0.6-4.9-1.9-7.4,0.1c0.3,0.2,1.1,0.6,1.4,0.9
		c5.3,2.8,11.6,4.6,17.2,6.9c10.5,5,22.1,8.9,34,9.5c-5,5.3-12.8,25.2-8.8,31.6c2.5,0.6,1.8-2.5,2.6-3.8c4.9-8.8,13.7-15.4,23.4-18
		c10-2.7,23.2,0.8,31.3-6.9c5.6-5.4,1.6-12.9,1.8-19.6c3.9-1.9,8.3-2.8,12.5-4c40.8-11.2,84.2-11.2,124.9,0c4.2,1.2,8.6,2.1,12.5,4
		c0.2,6.7-3.7,14.2,1.8,19.6c13.3,10.7,31.7-0.3,47.9,16.1c2.7,2.7,5.2,5.4,6.9,8.8c0.8,1.2,0,3.8,2.1,3.9c5.7-3.5-4.1-28-8.3-31.6
		c12.1-0.7,23.7-4.6,34.4-9.7c6-2.6,12.8-4.2,18.2-7.7C370.3,321.4,368.1,322.8,365.4,323.3z M110.4,344.7
		c-19.7,2.9-33.2-0.1-47,17.9c2.3-8.8,5-17.2,11.6-23.2c-4.7-2.1-9.2-0.8-14.3-2.6c-9.9-2.4-19.1-6.1-28.6-9.9
		c4.8,0.2,11.1,0.3,15.4,0.2c15.8-1.7,31.6-5.4,43.9-15.9c1.9,5.5,3.2,11.3,4,17.1c0.4,2.9-0.8,10.8,4.3,10.1c0.4,0,0.7-0.2,1.1-0.3
		c4.1-1.5,8.8-3.6,13.2-3.2C121.6,336,115.2,344.7,110.4,344.7z M256.1,316.4c-32.5-9.6-66.8-11.4-100.1-5.3
		c-6.2,1.1-12.3,2.5-18.3,4.1c-11.7,3.1-28.6,7.2-38.2,15.3C96.9,319.1,95.6,309,89,299c0-4.9,22.2-11.9,27.1-13.5
		c25.2-8.3,52.2-12.9,78.8-13.3c26.6,0.4,53.6,5,78.8,13.3c5.1,1.7,27.1,8.6,27.1,13.5c-7.4,11.2-8.3,18.2-10.4,31.2
		C290.9,326.6,259.4,317.4,256.1,316.4z M329,336.8c-5.1,1.8-9.6,0.4-14.3,2.6c6.6,6,9.3,14.3,11.6,23.2c-0.2-0.6-1.1-1.4-1.6-1.9
		c-0.5-0.6-1.1-1.2-1.6-1.8c-1-1.1-2.1-2.2-3.2-3.1c-2-1.7-4.1-3.3-6.5-4.5c-4.3-2.3-9-3.5-13.7-4.2c-3.4-0.5-6.7-0.8-10.1-1.1
		c-3.4-0.3-6.9-0.4-10.2-1.1c-1.9-0.4-3.8-1.2-5.1-2.6c-1.3-1.4-2.8-3.5-1.7-5.5c0.6-1.1,2-1.5,3.2-1.7c2.2-0.2,4.4,0.3,6.5,0.9
		c2.2,0.6,4.4,1.4,6.6,2.2c0.3,0.1,0.7,0.3,1,0.4c2.5,0.5,3.9-1.9,4.2-3.9c0.3-2,0-4.1,0.3-6.2c0.8-5.8,2.2-11.6,4-17.1
		c5.6,4.8,12.3,8.3,19.2,10.6c12.8,4.6,26.2,5.9,40.1,5C348.2,330.7,338.9,334.4,329,336.8z"/>
	<path d="M137.9,310.7c-0.3-0.1-0.6-0.1-0.9,0c-0.8,0.1-1.5,0-2-0.4c-0.5-0.4-0.9-0.9-1.1-1.7c-0.5-1.4-1-2.9-1.3-4.4
		c-0.1-0.4-0.2-0.8-0.3-1.2c-0.2-0.9-0.5-1.9-0.7-2.8c-0.7-2.8-1.3-5.7-2-8.5c-0.2-1-0.2-1.7,0-2.1c0.2-0.4,0.9-0.9,1.9-1.4
		c0,0,0.1,0,0.1,0c0.3-0.1,0.5-0.3,0.7-0.5c0.2-0.2,0.2-0.4,0.1-0.8c-0.1-0.3-0.3-0.5-0.5-0.5c-0.2,0-0.5,0-0.8,0.1
		c-0.1,0-0.2,0.1-0.3,0.1c-2.9,0.7-5.8,1.4-8.6,2.2c-1,0.3-2.1,0.6-3.1,0.9c-0.1,0-0.2,0.1-0.3,0.1c-0.3,0.1-0.5,0.1-0.7,0.3
		c-0.2,0.1-0.3,0.4-0.3,0.7c0,0.4,0.2,0.6,0.5,0.7c0.3,0.1,0.6,0.1,1,0.1c1-0.1,1.7,0,2.1,0.3c0.4,0.3,0.8,0.8,1,1.7
		c0.6,1.8,1.1,3.7,1.6,5.5c0.2,0.8,0.5,1.6,0.7,2.3c0,0,0,0,0,0c0.2,0.8,0.4,1.6,0.7,2.3c0.5,1.8,1,3.6,1.6,5.4
		c0.3,0.9,0.3,1.7,0.2,2.6c-0.1,0.8-0.6,1.5-1.5,2.1c0,0,0,0,0,0.1c-0.2,0.1-0.4,0.3-0.6,0.4c-0.1,0.2-0.2,0.4-0.1,0.7
		c0.1,0.3,0.3,0.5,0.6,0.5c0.2,0,0.5,0,0.7-0.1c0.1,0,0.1,0,0.2-0.1c2.7-0.7,5.5-1.4,8.2-2.2c0.8-0.2,1.7-0.4,2.6-0.7
		c0,0,0.1,0,0.1,0c0.3,0,0.5-0.1,0.7-0.3c0.2-0.1,0.3-0.4,0.2-0.7C138.3,311,138.2,310.8,137.9,310.7z"/>
	<path d="M161.1,294.7c-0.9-0.8-1.9-1.4-3-1.9c-1.1-0.4-2.2-0.8-3.4-1c-1.1-0.3-2.3-0.5-3.5-0.6c-1.1-0.1-2.1-0.3-3.1-0.5
		c-1-0.2-2-0.5-3-0.9c-1.4-0.5-2.1-1.5-2.1-2.7c0-0.6,0.2-1.3,0.6-1.8c0.4-0.5,0.9-1,1.6-1.3c0.8-0.4,1.7-0.6,2.6-0.7
		c2.1-0.3,4-0.1,5.6,0.6s3,1.9,4,3.5c0.2,0.3,0.4,0.6,0.7,0.7c0.3,0.2,0.7,0.2,1.1,0.1c0.4-0.1,0.6-0.3,0.6-0.5c0.1-0.2,0-0.5,0-0.7
		c0-0.1-0.1-0.2-0.1-0.3c0-0.3-0.1-0.9-0.2-1.7c-0.1-0.8-0.3-1.6-0.4-2.4c-0.1-0.8-0.2-1.4-0.3-1.8c-0.1-0.6-0.4-1.1-0.8-1.2
		c-0.4-0.2-0.8,0.1-1.3,0.6c-0.5,0.7-1.1,1.1-1.8,1.2c-0.6,0.1-1.3,0.1-2.1,0c-0.4,0-0.7-0.1-1.1-0.1c-0.5-0.1-1-0.1-1.5-0.1
		c-2-0.1-4,0.2-5.8,0.7c-1.8,0.5-3.4,1.6-4.6,3.2c-1.3,1.7-1.7,3.5-1.5,5.2c0.2,1.7,1.1,3.3,2.5,4.5c1.4,1.3,3.3,2.1,5.5,2.5
		c3,0.5,5.9,1.1,8.8,1.9c1.9,0.5,2.8,1.8,2.8,3.6c0,0.9-0.3,1.7-0.8,2.3c-0.5,0.6-1.2,1-2.1,1.3c-2.8,1-5.4,0.7-7.9-0.8
		c-0.9-0.6-1.8-1.2-2.6-1.9s-1.5-1.5-2-2.5c-0.2-0.3-0.4-0.6-0.7-0.8c-0.3-0.2-0.7-0.2-1.1-0.1c-0.4,0.1-0.6,0.4-0.6,0.6
		c0,0.3,0,0.5,0.1,0.8c0,0.1,0.1,0.2,0.1,0.3c0.5,2,1,3.9,1.5,5.9c0.2,0.7,0.4,1.4,0.6,2.1c0.1,0.3,0.2,0.5,0.3,0.7
		c0.1,0.2,0.4,0.3,0.7,0.3c0.5,0,0.8-0.3,0.9-0.8c0.1-1,0.5-1.6,1.1-1.7s1.3-0.1,2,0.1c1.7,0.4,3.3,0.5,4.9,0.5c1.6,0,3.3-0.3,5-0.9
		c2-0.7,3.5-2,4.4-3.6c0.9-1.6,1.3-3.4,1.1-5.2C163,297.4,162.3,295.9,161.1,294.7z"/>
	<path d="M207.6,279.3c-0.2-0.1-0.4-0.1-0.7-0.1c0,0,0,0,0,0c-2.5-0.1-5.1-0.2-7.6-0.3c-0.3,0-0.5,0-0.8,0.1
		c-0.3,0.1-0.4,0.3-0.5,0.6c0,0.3,0,0.5,0.2,0.7c0.2,0.1,0.4,0.2,0.6,0.3c0.1,0,0.1,0,0.1,0c0.9,0.3,1.6,0.7,2,1.3
		c0.4,0.6,0.7,1.3,0.8,2.1c0.2,1.2,0.3,2.5,0.3,3.7c0,1.2-0.1,2.5-0.2,3.7c-0.1,1.2-0.1,2.3-0.2,3.5c0,0.2,0,0.4-0.1,0.6
		c-0.1,0.2-0.2,0.3-0.4,0.4c-0.2,0.1-0.5,0.1-0.7,0c-0.2-0.1-0.4-0.2-0.5-0.4c-0.9-1.1-1.9-2.1-2.8-3.2c-3.6-4.1-7.2-8.1-11-12.1
		c-0.3-0.4-0.7-0.6-1.1-0.9c-0.4-0.2-0.9-0.3-1.4-0.3c-0.8,0-1.6,0.1-2.4,0.1c-1,0-2,0.1-3.1,0.2c-0.1,0-0.2,0-0.3,0
		c-0.3,0-0.7,0.1-1,0.2c-0.3,0.1-0.5,0.4-0.5,0.8c0,0.3,0.1,0.5,0.3,0.6c0.2,0.1,0.4,0.2,0.7,0.3c0.2,0,0.3,0.1,0.5,0.2
		c0.8,0.3,1.4,0.7,2,1.1c0.6,0.5,0.9,1.1,1,1.9c0.4,5,0.5,10.2,0.7,15.2c0,1-0.1,2-0.5,2.8c-0.4,0.8-1.2,1.4-2.3,1.8
		c-0.3,0.1-0.5,0.2-0.6,0.4c-0.2,0.2-0.2,0.4-0.1,0.7c0.1,0.3,0.2,0.4,0.4,0.5c0.2,0,0.4,0,0.6,0c0.1,0,0.2,0,0.2,0c0,0,0.1,0,0.1,0
		c2.2-0.1,4.4-0.2,6.6-0.3c0.1,0,0.3,0,0.4,0c0.3,0,0.5,0,0.7,0c0.2-0.1,0.4-0.3,0.5-0.6c0.1-0.4,0-0.7-0.3-0.9
		c-0.3-0.2-0.6-0.3-0.9-0.4c0,0,0,0,0,0c-1.5-0.5-2.4-1.6-2.6-3.1c-0.2-1.4-0.4-2.8-0.5-4.2c-0.1-1.4-0.1-2.8-0.1-4.2
		c0-1.4-0.1-2.9-0.1-4.3c0-0.2,0-0.4,0.1-0.6c0.1-0.2,0.2-0.3,0.4-0.4c0.2-0.1,0.5-0.1,0.7,0c0.2,0.1,0.3,0.3,0.5,0.4
		c0.1,0.1,0.1,0.1,0.2,0.2c2,2,3.9,4.1,5.7,6.2c1.4,1.6,2.7,3.1,4.1,4.7c0.8,1,1.6,1.9,2.4,2.9c0.9,1.1,1.9,2.3,2.8,3.4
		c0.3,0.4,0.7,0.7,1.2,0.8c0.4,0.1,0.9,0.1,1.4-0.1c0.3-0.1,0.4-0.3,0.5-0.6c0.1-0.3,0.1-0.6,0.1-1c0-0.1,0-0.1,0-0.2
		c0-1.3,0.1-3.4,0.2-6.4c0.1-2.3,0.2-4.4,0.2-6.6c0.1-2.1,0.2-3.7,0.2-4.7c0-1.1,0.3-2.1,0.7-3c0.4-0.9,1.3-1.6,2.7-2
		c0.3-0.1,0.5-0.2,0.6-0.3c0.2-0.1,0.2-0.4,0.2-0.6C208,279.5,207.8,279.3,207.6,279.3z"/>
	<path d="M232,281.5c-2.3-1.4-5-2.2-7.8-2.3c-2.5-0.1-4.9,0.5-7.1,1.6c-2.2,1.1-3.9,2.7-5.2,4.6c-1.3,2-1.9,4.2-1.9,6.6
		c0,4.4,1.1,7.9,3.5,10.6c2.4,2.7,5.7,4.1,10,4.4c2.5,0.2,4.8-0.2,6.8-1.2c2-0.9,3.7-2.2,5-4c1.3-1.7,2.3-3.8,2.7-6.1
		c0.6-3.2,0.3-6.1-0.8-8.5C236,284.8,234.3,282.9,232,281.5z M230.6,295.8c0,0.1,0,0.1,0,0.2c-0.3,1.2-0.6,2.4-0.9,3.6
		c-0.4,1.2-0.9,2.3-1.5,3.4c-0.6,0.9-1.3,1.6-2.2,2c-0.9,0.4-1.8,0.6-2.8,0.6c-2.2,0-3.8-1-4.8-2.9c-0.6-1.3-1-2.6-1.2-3.9
		c-0.1-1.3-0.2-2.7-0.1-4.1c0-0.2,0-0.3,0-0.5c0-3.5,0.7-7,2.3-10.2c1.2-2.4,3.4-3.5,6.1-3.3c1.3,0.1,2.5,0.6,3.5,1.5
		c1,0.8,1.6,1.8,1.9,3.1C231.5,288.8,231.4,292.3,230.6,295.8z"/>
	<path d="M271.3,289.9c-2.3-0.8-4.7-1.5-7.1-2.1c-1.3-0.3-2.7-0.7-4-1c-3.6-0.9-7.2-1.8-10.8-2.6c-0.6-0.1-1.3-0.3-1.9-0.4
		c-0.8-0.2-1.3-0.2-1.7-0.1c-0.3,0.1-0.6,0.6-0.7,1.3c-0.3,1.3-0.6,2.7-0.9,4c-0.1,0.5-0.2,1-0.3,1.5c-0.1,0.4-0.2,0.8-0.2,1.3
		c0,0.2-0.1,0.4-0.1,0.6c0,0.2,0,0.3,0,0.5c0,0.1,0.1,0.3,0.3,0.3c0.4,0.2,0.8,0.1,1.1-0.2c0.2-0.2,0.4-0.5,0.5-0.8
		c0.4-0.8,0.9-1.5,1.4-2.1c0.6-0.7,1.1-1.3,1.7-1.9c0,0,0.1-0.1,0.1-0.1c0.9-1,2.2-1.4,3.6-1.4c1.4,0,2.3,0.2,2.6,0.6
		c0.4,0.4,0.4,1.2,0.1,2.3c-0.2,1-0.6,2.7-1.3,5.2c-0.6,2.5-1.2,4.9-1.9,7.3c-0.6,2.4-1.1,4-1.3,4.7c-0.3,1-0.7,1.7-1.2,2
		c-0.5,0.3-1.3,0.4-2.5,0.3c-0.3,0-0.6,0-0.9,0.2c-0.3,0.2-0.5,0.4-0.5,0.7c0,0.3,0.2,0.4,0.5,0.5c0.1,0,0.2,0.1,0.3,0.1
		c0.2,0,0.4,0.1,0.6,0.2c0.5,0.1,1.1,0.3,1.6,0.4c2.3,0.6,4.7,1.2,7.1,1.8c0.6,0.2,1.2,0.3,1.8,0.4c0.4,0.1,0.8,0.2,1.1,0.3
		c0.2,0.1,0.4,0.1,0.6,0.1c0.2,0,0.3-0.1,0.4-0.3c0.1-0.2,0.1-0.5,0-0.6c-0.1-0.2-0.3-0.3-0.5-0.4c-0.2-0.1-0.5-0.2-0.7-0.3
		c-1.4-0.8-2-1.9-1.7-3.5c0.5-2.5,1.1-5,1.8-7.5c0.7-2.5,1.4-4.9,2.1-7.4c0.3-1,0.7-2.1,0.9-3.1c0.1-0.4,0.3-0.8,0.5-1.1
		c0.2-0.3,0.7-0.4,1.2-0.4c0.7,0.1,1.3,0.3,1.9,0.5c0.6,0.2,1.1,0.7,1.5,1.3c0.8,1.1,1.3,2.3,1.6,3.5c0.2,0.8,0.3,1.7,0.3,2.5
		c0,0.5,0,1,0.1,1.5c0,0,0,0.1,0,0.1c0,0.2,0,0.5,0.1,0.7c0.1,0.2,0.3,0.3,0.6,0.4c0.3,0,0.5,0,0.7-0.2c0.1-0.2,0.2-0.4,0.3-0.6
		c0-0.1,0-0.1,0.1-0.2c0.7-2.3,1.4-4.6,2-6.9c0,0,0,0,0-0.1c0.2-0.5,0.2-0.9,0.1-1.1C272.4,290.4,272,290.2,271.3,289.9z"/>
	<path d="M328.1,384.8c0.3-3.6,0.2-7.4-1.9-10.3c-2.2-3.1-6.3-4.3-10.1-3.9c-9.1,0.7-16.5,7.1-22.6,13.2c-0.5,0.5-1,0.5-1.7,0.3
		c-11.4-6.9-28.2-3.8-40.3-1.4c-10.7,2.1-21.1,5.3-31.5,8.5c-10.4,3.2-20.8,6.7-31.3,9.3c0.5-1.9,0.8-3.9,0.9-5.9
		c0.1-4.8-1.3-9.6-3.4-13.9c-2.4-4.8-5.7-9-9.2-13c-0.3-0.3-0.1-0.4,0.2-0.6c6.5-6.5,15.1-15,24.7-15.7c0.5,0,1.1-0.1,1.6-0.1
		c0.4-0.1,0.5-0.5,0.3-0.9c-3.1-4.3-12.5,0.2-15.9,1.9c-5.7,2.9-10.6,6.7-15.7,10.6c-0.4,0.3-0.6,0.4-1,0.1
		c-13.6-7.8-28.9-10.6-44.4-7.4c-22.7,4.6-44.7,22.4-50.3,45.5c-1.6,6.7-3.8,20.4,2.6,25.4c0.3,0.2,0.2,0.4,0,0.7
		c-1.6,2.4-4.7,7.5-5.5,9.1c-1.7,3.3-3.2,6.8-4.3,10.3c-2.2,7-3.3,14.4-3,21.8c0.2,5,1.1,10.1,4,14.1c5.5,7.5,15.9,8.4,23.6,4.1
		c3.4-1.9,6.3-4.5,9.1-7.2c5.8-5.8,10.9-12.3,15.5-19.2c2.3-3.5,4.5-7,6.7-10.6c1.8-3,4.2-6.3,5.5-9.5c0.2-0.5,0.4-0.6,0.9-0.6
		c2.6,0,5.2-0.3,7.9-0.7c17.5-3,34.4-11.9,44.2-27.2c0.9-1.4,1.7-2.8,2.5-4.3c15.9-3.3,31.6-9.1,46.1-13.8
		c16.7-5.5,40.3-15.9,57.3-6.2c0.3,0.1,0.3,0.5,0.2,0.7c-6.8,6.8-11.9,16.2-16.3,23.8c-4.9,8.4-9.1,17.2-12.7,26.2
		c-2.5,6.2-4.7,12.7-5.5,19.3c-1.1,9.7,5.8,14.3,14.7,10.1c3.4-1.6,6.3-4.1,8.9-6.8c12.5-12.4,25.4-31.3,27.9-49
		c1.2-9-1.5-19.1-9-24.2c4-4.7,8.7-8.9,13.9-12.3c3.4-2.2,7.8-2.9,10.5,0.9c1.9,2.7,2,6.2,1.7,9.4c-0.5,6.8-2.2,13.4-4.2,19.9
		c-7.7,24.8-20.1,48-36.3,68.2c-9.2,11.4-20,22.1-33.8,27.2c-4.7,1.7-10.3,2.7-14.6,0c-3.2-2-5.1-5.7-6-9.4
		c-2.4-9.2-0.6-19,2.6-27.9c3.2-9,7-17.6,10.4-26.5c1.2-3.2,2.6-6.2,3.2-7.4c3.3,0.1,5.4,0.5,8.2,0.7c0.9,0.1,2.4,0.4,3.1-0.4
		c0.3-0.3,0.4-0.8,0.4-1.2c0-0.1,0-0.3-0.1-0.4c-0.1-0.1-0.2-0.1-0.2-0.2c-0.4-0.2-0.9-0.3-1.4-0.4c-2.8-0.6-5.6-0.8-8.4-0.9
		c1.2-2.8,2.3-5.5,3.5-8.3c0.2-0.5,0.4-1.1,0.3-1.6c-0.2-1-1.3-1.5-2.2-1.6c-5.1-0.8-9.1,3-12.6,11.1c-2.2-0.3-7.4-0.3-9.9-0.5
		c-0.3,0-0.6,0-0.9,0c-0.6,0.1-1.4,0.4-1.6,1.1c-0.2,0.7-0.2,1.4,0.5,1.8c0.3,0.2,10.7,0.9,10.8,0.8c-1.7,5.9-4.1,12-6.4,18.2
		c-0.6,0.6-1,1.4-1.4,2.1c-2.3,4.2-4.8,8.4-7.5,12.4c-1.3,2-2.7,4-4.1,6c-0.7,0.9-1.3,2-2.1,2.8c-0.3,0.3-2.3,2.7-2.6,2.3
		c-0.4-0.4-0.3-1.1-0.1-1.7c0-1.1,0.7-2.6,1-3.7c0.4-1.4,0.8-2.8,1.1-4.2c0.8-2.8,1.6-5.6,2.4-8.4c0.8-2.7,1.6-5.3,2.4-7.9
		c0.5-1.5,2.1-4.6,1-6.2c-1.5-2.2-3.8-3.5-5.9-5.1c-1.6-1.2-3.2-2.7-3.9-4.6c-0.7-1.8-0.6-3.8-0.2-5.7c0.2-0.8,0.4-1.8,0.8-2.5
		c0.3-0.6,1.1-1.4,0.7-2.1c-0.2-0.3-0.5-0.5-0.8-0.6c-0.8-0.3-1.5-0.4-2.3-0.4c-1.6,0-3.2,0.6-4.4,1.6c-1.9,1.5-3,3.8-3.1,6.2
		c-0.1,2.3,0.7,4.6,2,6.5c-0.8,0.8-1.3,2.3-1.8,3.3c-1.1,2.1-2.1,4.2-3.2,6.4c-2.5,5.2-5.2,10.3-8.2,15.2c-1.2,2.1-2.5,4.1-3.9,6.1
		c-0.6,1-1.2,2-2,2.9c-0.6,0.7-1.4,1.3-1.9,2.1c-0.3,0.4-0.7,0.6-1.3,0.6c-1.5-5.3,1.1-11.7,2.7-16.8c1.9-5.9,4.1-11.7,6.4-17.5
		c0.1-0.3,0.3-0.5,0.3-0.8c0.2-0.7,0.1-1-0.5-1.5c-2.6-1.7-5.8-0.7-7.3,1.9c-0.2,0.3-0.4,0.4-0.6,0.3c-5.4-2.9-11.3-4.2-16.9-1
		c-6.6,3.9-11.5,11.6-13.7,18.8c-1.4,4.5-2.5,9.5-1,14c1.1,3.3,3.8,6.2,7.4,6.3c0.1,0,0.2,0,0.3,0c3.9-0.1,6.7-3.3,8.8-6.2
		c1.8-2.4,3.7-4.8,4.9-7.6c0.2-0.4,0.4-0.6,0.6-1c0-0.1,0.2-0.1,0.2-0.1c0.1,0,0.3,0.1,0.3,0.3c0,1.8-0.7,3.6-0.7,5.5
		c-0.1,3.8,1.3,7.3,4.9,8.8c2.9,1.2,6.3,0.7,8.7-1.3c3.4-2.9,4.9-7.4,7.1-11.2c1.2-2,2-4,3.2-5.9c1.1-1.9,7.1-14,9.5-19.1
		c0.7,0.6,1.4,1.1,2.1,1.6c1.2,0.8,3.4,1.4,3.4,3.1c0,1.6-0.9,3.1-1.5,4.5c-0.7,1.7-1.3,3.4-1.9,5.2c-1.2,3.6-2.3,7.2-3,11
		c-0.7,3.2-1.6,7.4-0.3,10.5c1.2,2.8,4.2,3.8,7.1,3.4c3.3-0.4,5.9-2.5,7.9-5c1.3-1.7,2.3-3.5,3.3-5.3c0.9-1.7,2.1-3.3,3.1-5
		c-1.8,6-3.1,12.1-3.2,18c-0.1,8.1,2,16.8,8.3,21.8c4.8,3.8,11.4,4.9,17.5,3.9s11.7-3.8,16.8-7.2c15.2-9.8,27.2-24,36.7-39.4
		C312.8,436.5,326,410.6,328.1,384.8z M83.9,409.8c0.2-2.6,0.9-5.2,1.5-7.7c1-4.3,2.6-8.6,4.5-12.4c3.3-6.5,7.7-12.5,13.2-17.4
		c10.4-9.3,24.1-14.8,38.1-15.1c9.3-0.2,17.9,2.1,25.4,7.7c0.6,0.4,1.4,0.6,1.8,1.3l-2,1.7c-9.6,9.6-17.9,20.1-25.1,31.4
		c-0.7-0.5-1.4-1.1-2.1-1.8c-2.2-2.2-4.1-5.3-3.8-8.5c0.1-1.4,2.2-4.7,0.8-5.8c-0.4-0.4-1.1-0.4-1.6-0.2c-1.6,0.5-2.9,2-3.8,3.7
		c-1.3-2-3.1-3.6-5.4-4.3c-1.1-0.3-6.1-1.4-4.9,1.2c0.6,1.3,1.5,2.4,2,3.7c0.5,1.4,0.5,3,0.4,4.4c-0.4,4.2-2.1,8-3.6,11.8
		c-0.8,1.9-1.6,3.7-2.6,5.5c-0.5,0.9-1.1,1.8-1.6,2.7c-0.4,0.6-0.9,2-1.5,2.4c-0.2,0.1-0.4,0.1-0.4-0.2c-0.4-1.1-1.9-2.2-2.7-2.9
		c-3.6-3-8.7-3.2-13-1.5c-2.2,0.9-4.1,2.3-5.9,3.8c-1.1,0.9-2.2,1.9-3.2,2.8c-0.5,0.4-2.3,2.8-2.9,2.8H85c-0.2,0-0.3-0.1-0.3-0.1
		C84.1,417.1,83.8,411.4,83.9,409.8z M103.5,424.6c-0.2,0.1-0.5,0.2-0.7,0.2c-4.3,1.3-9.3,1.5-13.6,0c-0.6-0.2-1.2-0.5-1.7-0.8
		c0.3-1,1.2-1.9,1.9-2.6c3.1-3.2,6.7-5.8,10.6-7.9c3.8-2,4.6,3.2,4.7,5.9C104.7,421.2,104.4,423.1,103.5,424.6z M101.7,469.9
		c-3.1,4.5-6.6,8.7-10.7,12.3c-1.5,1.3-3.1,2.5-5,3.2c-9.4,3.5-13.5-8.5-14.5-15.4c-0.7-5.1-0.5-10.4,0.5-15.4
		c1.7-8.3,5.3-17.3,10.4-24.1c0.5-0.6,0.7-0.8,1.5-0.4c2.8,1.5,5.9,2,9.1,2c1.1,0,7.8-0.7,9.6-1.6c0,0,0.5,0.5,0,1.7
		c-1,2.6-2.4,5.5-3.5,8.1c-1.9,4.4-3.9,9.2-6.8,13.1c-0.9,1.1-1.9,2.4-3.2,3.1c-1.2,0.7-2.8,0.9-4.1,1.4c-1,0.4-1,1.5-0.1,2
		c2.7,2.7,7.9,1.1,10.7-0.5c3.3-1.8,5.9-4.7,8.1-7.6c2.1-2.8,4-5.8,5.7-8.9c2.7-5.1,6.2-11.9,5.4-17.8c-0.2-1.5,0.5-2.5,1.5-3.4
		c1.3-1.1,2.4-2.2,3.6-3.4c0.7-0.8,1.5-1.5,2.2-2.3c1.8-2,3.5-4,4.9-6.3c1.8-2.8,3.3-6.1,4.2-9.5c1.5,2.1,3.7,3.8,6.1,5.1
		c-1.4,2.3-2.7,4.6-4,7C122.8,431.5,114.3,452,101.7,469.9z M169.6,413.9c-4.7,5.7-10.5,10.2-16.4,14.6c-5.5,4-12.4,7.8-19.4,7.6
		c-0.4,0-0.8,0-1.2-0.1c4.7-9.3,9.6-18.4,14.8-27.4c4.5,0.9,9.1,1.3,13.7,1.3c3.9,0,7.9-0.2,11.9-0.6
		C172,411,170.8,412.5,169.6,413.9z M179.2,393.1c-0.4,3.4-1.4,6.7-2.7,9.8c-3.4,0.6-6.9,1-10.5,1.3c-5,0.4-10.5,0.4-15.6-0.7
		c1.4-2.3,2.8-4.7,4.2-7c5.2-8.6,10.8-17.8,18-24.9c0.3-0.3,0.5-0.1,0.8,0.1c2.4,1.9,4.1,7,4.9,9.8
		C179.4,385.3,179.7,389.2,179.2,393.1z M302.1,406.6c0,1.4-0.1,2.8-0.3,4.1c-0.7,4.8-2.5,9.4-4.6,13.8
		c-4.9,10.4-11.1,20.1-18.4,28.9c-1.9,2.3-12.6,15.5-16.4,11.1c-1.3-1.5-0.8-4.4-0.6-6.1c0.6-4.4,1.9-8.8,3.4-12.9
		c7.1-19.3,17.1-36.6,28.7-53.5c0.8-1.1,1-1.2,2.1-0.3C300.2,395.6,302.1,401.1,302.1,406.6z M173.5,445.6c-1.6,2.8-3.2,5.6-4.9,8.3
		c-3.3,5.6-6.9,11-11.3,15.8c-0.1,0.2-0.3,0.3-0.5,0.4c-1,0.3-0.3-3.8-0.2-4.2c0.4-2.2,0.9-4.4,1.5-6.5c1.1-3.9,2.4-7.7,4.2-11.3
		c1.6-3.2,3.9-7.2,7.1-9.2c0.6-0.4,1.4-0.7,2.1-0.8c0.2,0,0.4,0,0.7-0.1c1.4,0,3.4,0.3,4.2,1.2C177.6,440.6,174.2,444.3,173.5,445.6
		z"/>
	<path d="M176.1,61.9c0.9,1.2,2.1,2,2.8,3.5c0.4,0.8,0.3,1.6,0.5,2.4c0.7,3.5,0.2,7.3,0.1,10.9c-0.1,3.8-0.3,11.2-0.5,15
		c-0.4,7.6-0.9,15.1-1.3,22.7c-0.1,2.4,0.3,4.7,0.8,7c0.2,1,0.6,2,1.3,2.8c0.7,0.7,1.8,1.2,2.8,0.9c0.7-0.2,1.2-0.8,1.7-1.3
		c0.9-1.3,1.4-2.9,1.5-4.5c0.4-4.2-0.3-8.7-0.7-12.8c-0.5-4.4-1-8.8-1.4-13.2c-0.6-7.2-0.9-18-1-25.3c0-1.9,0.4-3.7,1.3-5.5
		c3.5-2.5,4-6,4-10.1c0-3.1-0.2-6.2-0.5-9.3c-0.3-2.7-0.4-5.7-1.3-8.3c-0.2-0.5-0.4-0.9-0.9-1.1c-0.6,0.2-0.7,0.6-0.7,1.1
		c0,1.5,0,3,0.1,4.5c0.2,3.4,0.4,6.8,0.2,10.3c0,0.5-0.1,1.1-0.1,1.6c-0.1,1-0.4,1.9-0.9,2.8c0.2-0.4-0.3-3.1-0.3-3.8
		c0-1.7,0-3.3,0-5c0-3.3-0.1-6.7-0.5-10c0-0.2-0.1-0.4-0.2-0.7c-0.1-0.3-0.4-0.5-0.9-0.3c-0.1,0.4-0.2,0.9-0.2,1.4
		c-0.2,3.9,0.1,7.9-0.1,11.9c-0.1,1.5-0.2,3-0.3,4.4c-0.1,1.1,0,2.8-0.7,3.7c-0.6-1.3-0.6-2.9-0.5-4.4c0.1-2.3-0.2-4.6,0-6.9
		c0.1-1.7,0.1-3.5,0.1-5.2c0-1.3,0.3-3.3-0.1-4.4c-0.2-0.4-0.6-0.8-1.1-0.6c-0.4,0.2-0.5,0.7-0.5,1.2c-0.2,5.1-0.4,10.2-0.5,15.3
		c0,1-0.1,2.1-0.7,3c-0.7-5.1-0.7-10.2,0-15.3c0.2-1.3,0.4-2.7-0.1-3.9c-0.1-0.2-0.2-0.5-0.4-0.5c-0.1,0-0.2,0.1-0.3,0.2
		c-0.8,0.7-1,2-1.1,3.1c-0.3,3.8-0.6,7.6-0.9,11.5c-0.2,2.3-0.3,4.7,0.1,7C174.6,59.2,175.2,60.6,176.1,61.9z"/>
	<path d="M202,63.2c1.5,1,2.2,2.5,2.3,4.2c0.1,1.3,0.1,2.7,0.2,4c0.2,2.7,0.4,5.4,0.1,8.2c0,0.4,0,0.7,0,1.1c0,1.9,0,3.8,0.1,5.7
		c0,1.8-0.2,3.7-0.3,5.5c-0.4,4.2-0.6,11.7-0.9,15.9c-0.1,2.1-0.2,4.2-0.3,6.3c0,1.4,0.1,2.8,0,4.1c-0.1,1.2,0.1,2.4,0.2,3.7
		c0.2,1.8,1.6,5.3,3.6,5.5c0.2,0,0.4,0,0.5,0c2-0.2,3.6-3,3.7-4.8c0.2-1.7-0.1-3.3-0.1-5c-0.1-2.3-0.3-4.6-0.4-7
		c-0.2-3.5-0.5-6.9-1-10.4c-0.2-1.6-0.5-6.6-0.6-8.2c-0.3-3.2-0.5-6.5-0.6-9.7c-0.1-1.1,0-2.3-0.1-3.4c-0.2-2.3-0.3-4.7-0.2-7
		c0.1-2.4,0.3-4.7,1.2-6.9c0.4-1,1.9-2,2.7-2.8c1-1,1.8-2.1,2.4-3.4c1.1-2.4,1.6-5.2,1.3-7.9c-0.4-3.7-1.9-9.9-3.9-12.9
		c-1.1-1.6-4.1-5.5-6.6-4.4c-2,0.9-3.5,2.4-4.8,4.2c-2.2,3-3.9,9.5-4,13.3c-0.1,2.4,0.4,4.8,1.5,6.9C198.7,59.7,200.4,62.1,202,63.2
		z"/>
	<path d="M224.1,96.6c0.4,0,0.8-0.1,1.1-0.4c0.3-0.3,0.5-0.6,0.5-1c0-0.8,0-1.5,0.1-2.3c0.3-1.6,1-2.8,2.2-3.7
		c6-4.6,22.4-1,40.9,3.8c-0.3,1.8-0.7,3.6-1.3,5.3c-3,9-9,14.2-16.7,14.3c-0.1,0-0.2,0-0.3,0c-0.1,0-0.1,0-0.2,0
		c-4.3-0.1-5.8-4.3-6.2-5.6c-1-3.7,0-7.7,2.2-9c0.5-0.3,1.1-0.5,1.7-0.5c0,0,0,0,0.1,0c0,0,0.1,0,0.1,0c0,0,0.1,0,0.1,0
		c0.8,0,1.4-0.6,1.4-1.4c0-0.5-0.2-0.9-0.6-1.2c-0.2-0.2-0.5-0.2-0.8-0.2c-0.1,0-0.2,0-0.4,0c0,0-0.1,0-0.1,0c0,0,0,0,0,0
		c-3.1,0.1-5.7,1.1-7.5,2.9c-1.8,1.7-2.8,4.1-2.8,6.7c0,5.3,4.2,10.7,12.1,11.1c0.3,0,0.5,0,0.8,0c0.1,0,0.2,0,0.2,0
		c7.7-0.1,14.3-3.3,19-9.5c2.5-3.2,4.3-7,5.3-11.2c0.7,0.2,1.4,0.4,2.1,0.5c15.8,4.2,32,8.5,46,9.9c-3.1,14.1-13.6,20.9-24.2,21.2
		c-6.2,0-9.9-2.5-11.9-4.6c-2.5-2.6-3.9-6-3.9-9.4c0-4.2,2.3-9.1,8.8-9.1c0.8,0,1.4-0.6,1.4-1.4s-0.6-1.4-1.4-1.4
		c-6.5,0-11.7,2.5-14.2,6.8c-2.1,3.7-2,8.3,0.3,12.3c3.5,6,11,9.5,20.6,9.5c0.1,0,0.2,0,0.3,0c0,0,0,0,0,0c0,0,0,0,0,0c0,0,0,0,0,0
		c18.1,0,28.4-11,31.8-23.6c0.1,0,0.2,0,0.4,0c0,0,0.1,0,0.1,0c0.3,0,0.7,0,1,0c0.1,0,0.1,0,0.2,0c1.9,0,3.8-0.1,5.6-0.3
		c14.9-1.2,27.1-6,35.5-14c8.3-7.9,12.8-18.8,12.7-30.7c-0.1-19.8-13.6-41.2-35.4-41.2c-0.8,0-1.4,0.6-1.4,1.4
		c0,0.8,0.6,1.4,1.4,1.4c13.6,0,28,12.8,28,36.5c0,11.6-3.9,22.3-11.1,30.1c-3.1,3.4-6.8,6.2-11,8.4c3.9-4,6-9.1,6-14.6
		c0-5.6-2.3-11.1-6.4-15.1c-4.1-4.1-9.7-6.3-16.1-6.7c-0.6,0-1.2-0.1-1.8-0.1c-0.8,0-1.4,0.6-1.4,1.4s0.6,1.4,1.4,1.4
		c11.4,0,17.3,9.2,17.3,18.3c0,5.5-2,10.6-5.6,14.3c-3.6,3.8-8.7,6-14.8,6.5c-1.3,0.1-2.6,0.1-3.9,0.1c0.5-2.4,0.7-4.7,0.7-7.1
		c0-10.6-4.2-21-11.5-28.6c-8.4-8.8-20.4-13.4-34.5-13.4c-8.5,0-17.1,1.2-25,3.6c-4.1-2.3-8.9-3.6-14.2-3.8c-0.2,0-0.3,0-0.5,0
		c-0.4,0-0.7,0-1.1,0c0,0,0,0,0,0c0,0,0,0,0,0c0,0,0,0,0,0c0,0,0,0,0,0C237.6,53.4,219,56,218,77.9C217.7,86,220.4,96.2,224.1,96.6z
		 M286.4,56.4c24.5,0,37.6,19.5,37.9,38.8c0,2.5-0.1,4.9-0.4,7.1c-13.8-1.3-30-5.6-45.8-9.8c-0.7-0.2-1.5-0.4-2.2-0.6
		c0.4-2.2,0.6-4.4,0.6-6.7c0-8.3-2.7-16.1-7.5-21.8c-1.3-1.6-2.8-3-4.5-4.2C271.3,57.4,278.7,56.4,286.4,56.4z M269.2,90.2
		c-18.6-4.9-34.3-8.2-41.8-4c4.4-10.8,16.3-20.2,31.7-25.4C267.4,67.7,270.1,80.1,269.2,90.2z M221.6,72.3c1.8-7.3,7.4-16,23.9-16.2
		c0.4,0,0.9,0,1.3,0c3.5,0.2,6.6,1.1,9.4,2.7c-5.1,1.9-9.9,4.2-14.2,7c-10.9,7-17.6,16.2-19,25.7C221.5,87.8,219.8,80,221.6,72.3z"
		/>
	<path d="M51.5,105.2c1.8,0.2,3.7,0.3,5.6,0.3c0.1,0,0.1,0,0.2,0c0.3,0,0.7,0,1,0c0,0,0.1,0,0.1,0c0.1,0,0.2,0,0.4,0
		c3.4,12.6,13.7,23.6,31.8,23.6c0,0,0,0,0,0c0,0,0,0,0,0c0,0,0,0,0,0c0.1,0,0.2,0,0.3,0c9.6,0,17.1-3.5,20.6-9.5
		c2.3-4,2.5-8.6,0.3-12.3c-2.5-4.3-7.7-6.8-14.2-6.8c-0.8,0-1.4,0.6-1.4,1.4s0.6,1.4,1.4,1.4c6.5,0,8.8,4.9,8.8,9.1
		c0,3.4-1.4,6.9-3.9,9.4c-2,2.1-5.7,4.6-11.9,4.6c-10.5-0.3-21-7.1-24.2-21.2c14-1.3,30.2-5.6,46-9.9c0.7-0.2,1.4-0.4,2.1-0.5
		c1.1,4.2,2.9,8,5.3,11.2c4.7,6.1,11.3,9.4,19,9.5c0.1,0,0.2,0,0.2,0c0.3,0,0.5,0,0.8,0c7.9-0.4,12.1-5.7,12.1-11.1
		c0-2.6-1-5-2.8-6.7c-1.9-1.8-4.5-2.8-7.5-2.9c0,0,0,0,0,0c0,0-0.1,0-0.1,0c-0.1,0-0.2,0-0.4,0c-0.3,0-0.6,0.1-0.8,0.2
		c-0.4,0.3-0.6,0.7-0.6,1.2c0,0.8,0.6,1.4,1.4,1.4c0,0,0.1,0,0.1,0c0,0,0.1,0,0.1,0c0,0,0,0,0.1,0c0.6,0,1.2,0.2,1.7,0.5
		c2.2,1.3,3.2,5.3,2.2,9c-0.4,1.3-1.8,5.5-6.2,5.6c-0.1,0-0.1,0-0.2,0c-0.1,0-0.2,0-0.3,0c-7.7-0.1-13.7-5.3-16.7-14.3
		c-0.6-1.7-1-3.4-1.3-5.3c18.5-4.8,34.9-8.4,40.9-3.8c1.2,0.9,1.9,2.1,2.2,3.7c0.1,0.8,0.1,1.5,0.1,2.3c0,0.4,0.2,0.8,0.5,1
		c0.3,0.3,0.7,0.4,1.1,0.4c3.7-0.4,6.4-10.6,6-18.7c-1-21.9-19.5-24.4-27.5-24.5c0,0,0,0,0,0c0,0,0,0,0,0c0,0,0,0,0,0c0,0,0,0,0,0
		c-0.4,0-0.7,0-1.1,0c-0.2,0-0.3,0-0.5,0c-5.3,0.2-10.1,1.5-14.2,3.8c-7.9-2.3-16.5-3.6-25-3.6c-14.2,0-26.1,4.6-34.5,13.4
		c-7.3,7.6-11.5,18-11.5,28.6c0,2.4,0.2,4.7,0.7,7.1c-1.3,0-2.6-0.1-3.9-0.1c-6.1-0.5-11.2-2.8-14.8-6.5c-3.6-3.8-5.6-8.9-5.6-14.3
		c0-9.1,5.9-18.3,17.3-18.3c0.8,0,1.4-0.6,1.4-1.4s-0.6-1.4-1.4-1.4c-0.6,0-1.2,0-1.8,0.1c-6.4,0.4-12,2.6-16.1,6.7
		c-4.1,4-6.4,9.5-6.4,15.1c0,5.5,2.1,10.6,6,14.6c-4.2-2.2-7.8-5-11-8.4c-7.2-7.8-11.1-18.5-11.1-30.1c0-23.7,14.4-36.5,28-36.5
		c0.8,0,1.4-0.6,1.4-1.4c0-0.8-0.6-1.4-1.4-1.4c-21.8,0-35.3,21.4-35.4,41.2c0,11.9,4.5,22.8,12.7,30.7
		C24.4,99.3,36.6,104,51.5,105.2z M142.9,56.2c0.4,0,0.8,0,1.3,0c16.5,0.1,22.1,8.9,23.9,16.2c1.9,7.6,0.2,15.5-1.4,19.3
		c-1.4-9.5-8.1-18.7-19-25.7c-4.3-2.8-9.1-5.1-14.2-7C136.3,57.3,139.5,56.4,142.9,56.2z M130.6,60.9c15.4,5.2,27.3,14.6,31.7,25.4
		c-7.5-4.2-23.1-0.9-41.8,4C119.6,80.1,122.3,67.7,130.6,60.9z M103.4,56.4c7.6,0,15,1,21.9,2.8c-1.6,1.2-3.1,2.6-4.5,4.2
		c-4.8,5.7-7.5,13.5-7.5,21.8c0,2.3,0.2,4.6,0.6,6.7c-0.7,0.2-1.4,0.4-2.2,0.6c-15.8,4.2-32,8.5-45.8,9.8c-0.3-2.2-0.5-4.6-0.4-7.1
		C65.8,76,78.9,56.4,103.4,56.4z"/>
	<path d="M379.1,161.6c-3.4-0.5-7.1-0.2-10.5,0.2c-3.8,0.4-7.6,1-11.3,1.7c-7.6,1.5-15,3.4-22.6,4.8c-0.5,0.1-0.3,0.8,0.2,0.7
		c0,0,0,0,0.1,0c0.9,0.2,1.9,0.5,2.8,0.7c7.6,2,15.3,3.7,23.2,4.4c3.9,0.3,7.9,0.4,11.9,0.1c3-0.2,6-0.7,8.6-2.1
		c2.5-1.4,4.5-3.8,3.9-6.4C384.7,163.2,381.9,162,379.1,161.6z"/>
	<path d="M335.6,177.5c3.5,4,7,8,11.4,11.2c3.5,2.5,7.8,4.7,12.3,5.1c1.9,0.2,4.8-0.1,5.7-2c0.8-1.6-0.6-3.6-1.8-4.7
		c-1.5-1.3-3.5-2.1-5.3-3c-2.3-1.1-4.7-2.1-7.1-3c-4.7-1.9-9.6-3.5-14.5-4.9c-0.6-0.2-0.9,0.3-0.8,0.7
		C335.4,177.2,335.4,177.4,335.6,177.5z"/>
	<path d="M358.5,145c-4.1,0.5-7.4,3.3-10.4,5.8c-4.7,3.9-11.1,8.9-11.1,9.2c0,0-0.1,0-0.1,0.1c-0.6,0.5,0.3,1.4,0.9,0.9
		c0.1-0.1,10.2-2.1,14.8-3.7c3.8-1.3,8-3.2,10.5-6.3c1.1-1.3,1.8-3.3,0.5-4.7C362.5,144.9,360.3,144.8,358.5,145z"/>
	<path d="M18.5,180.8c3.9,0.3,7.9,0.2,11.9-0.1c7.9-0.7,15.6-2.4,23.2-4.4c0.9-0.2,1.9-0.5,2.8-0.7c0,0,0,0,0.1,0
		c0.5,0.1,0.8-0.6,0.2-0.7c-7.6-1.3-15-3.3-22.6-4.8c-3.7-0.7-7.5-1.3-11.3-1.7c-3.4-0.3-7.1-0.6-10.5-0.2c-2.8,0.4-5.6,1.6-6.1,4.1
		c-0.5,2.6,1.4,5,3.9,6.4C12.4,180.1,15.5,180.6,18.5,180.8z"/>
	<path d="M54.9,182.9c-4.9,1.4-9.8,3.1-14.5,4.9c-2.4,0.9-4.7,2-7.1,3c-1.9,0.9-3.8,1.7-5.3,3c-1.3,1.1-2.6,3-1.8,4.7
		c0.9,1.8,3.8,2.1,5.7,2c4.5-0.4,8.8-2.6,12.3-5.1c4.4-3.2,8-7.2,11.4-11.2c0.2-0.2,0.2-0.4,0.1-0.6
		C55.8,183.2,55.5,182.7,54.9,182.9z"/>
	<path d="M43.1,157.3c-3-2.5-6.2-5.2-10.4-5.8c-1.8-0.2-3.9-0.1-5.2,1.2c-1.3,1.4-0.6,3.3,0.5,4.7c2.5,3.1,6.6,4.9,10.5,6.3
		c4.7,1.6,14.7,3.6,14.8,3.7c0.6,0.5,1.6-0.3,0.9-0.9c0,0-0.1,0-0.1-0.1C54.2,166.3,47.8,161.3,43.1,157.3z"/>
	<path d="M51,633.1c0,1,0,1.9,0.1,2.9c0.1,0.9,1.4,0.9,1.4,0c0.1-0.9,0-1.9,0-2.9c0-0.9,0-1.8-0.1-2.8c0-1.9-0.1-3.8-0.1-5.6
		c0-0.9-1.5-0.9-1.4,0c0,1.9,0.1,3.8,0.1,5.6C51,631.3,51,632.2,51,633.1z"/>
	<path d="M50.2,642.2c0,0,0,0.1,0,0.1c0,0.1,0.1,0.2,0.1,0.3c0,0,0,0,0,0.1c0.1,0.1,0.1,0.2,0.2,0.3c0.1,0.1,0.2,0.2,0.4,0.3
		l0.2,0.1c0.1,0,0.2,0,0.3,0c0.1,0,0.1,0,0.2-0.1c0,0,0,0,0.1,0c0,0,0,0,0,0c0,0,0.1,0,0.1,0c0.1,0,0.2-0.1,0.2-0.1c0,0,0,0,0,0
		c0.2-0.1,0.3-0.2,0.4-0.4c0,0,0,0,0,0c0-0.1,0.1-0.2,0.1-0.2c0-0.1,0-0.1,0-0.2c0-0.1,0-0.1,0-0.2c0-0.1,0-0.2,0-0.3c0,0,0,0,0-0.1
		c0-0.1-0.1-0.2-0.1-0.3c0,0,0-0.1,0-0.1c-0.1-0.1-0.1-0.2-0.2-0.2c-0.1-0.1-0.2-0.1-0.3-0.2c0,0-0.1,0-0.1-0.1
		c-0.1,0-0.2-0.1-0.3-0.1c0,0,0,0-0.1,0c-0.1,0-0.2,0-0.3,0c0,0,0,0,0,0c-0.1,0-0.2,0-0.3,0c0,0,0,0,0,0c-0.1,0-0.2,0.1-0.2,0.1
		c0,0,0,0,0,0c-0.1,0-0.1,0.1-0.2,0.2c0,0,0,0,0,0c-0.1,0.1-0.1,0.2-0.2,0.2c0,0,0,0.1,0,0.1c0,0.1-0.1,0.2-0.1,0.3
		c0,0.1,0,0.2,0,0.3c0,0,0,0,0,0c0,0,0,0,0,0.1C50.2,642,50.2,642.1,50.2,642.2z"/>
	<path d="M50.5,647.1c-0.1,2.8-0.2,5.7-0.2,8.5c0,2.8-0.1,5.7,0.2,8.5c0.1,1,1.5,1,1.6,0c0.3-2.8,0.2-5.7,0.3-8.5
		c0.1-2.8,0.2-5.7,0.3-8.5C52.7,645.7,50.6,645.7,50.5,647.1z"/>
	<path d="M112.1,638.5c0.2-2.2,0.2-4.4,0.3-6.6c0.1-2.2,0.1-4.4,0.1-6.6c0-1.1-1.7-1.1-1.7,0c-0.1,2.2-0.2,4.4-0.2,6.6
		c0,2.2-0.2,4.4-0.1,6.6C110.7,639.5,112.1,639.5,112.1,638.5z"/>
	<path d="M110.8,645.3c0.1,0.1,0.3,0.1,0.4,0.1c0.1,0,0.3,0,0.4,0l0.3-0.1c0.2-0.1,0.3-0.2,0.4-0.4c0.1-0.1,0.1-0.2,0.1-0.3
		c0-0.1,0-0.2,0-0.3c0,0,0,0,0,0c0,0,0,0,0,0c0-0.2,0-0.3-0.1-0.4c0,0,0-0.1-0.1-0.1c0,0,0,0,0-0.1c0,0,0,0,0-0.1c0,0,0,0,0,0
		c0,0,0-0.1,0-0.1c-0.1-0.1-0.1-0.1-0.2-0.2c-0.1-0.1-0.3-0.2-0.5-0.3c-0.1,0-0.3,0-0.4,0c-0.1,0-0.3,0-0.4,0.1
		c-0.1,0.1-0.2,0.2-0.3,0.3c-0.1,0.1-0.2,0.2-0.2,0.3c0,0.1,0,0.2,0,0.3c0,0,0,0.1,0,0.1c0,0,0,0,0,0.1c0,0.2,0.1,0.4,0.2,0.6
		C110.5,645.1,110.7,645.2,110.8,645.3z"/>
	<path d="M112.4,657.9c0-2.8,0-5.5,0-8.3c0-1.3-2-1.3-2,0c0,2.8,0.1,5.6,0.1,8.4c0,1.4,0.1,2.8,0.1,4.2c0,1.4,0,2.8,0.1,4.1
		c0.1,1,1.5,0.6,1.6-0.2c0.2-1.4,0.1-2.8,0.1-4.2C112.4,660.6,112.4,659.3,112.4,657.9z"/>
	<path d="M163.9,638.7c0.3-1.4,0.2-3,0.2-4.4c0-1.5,0-2.9,0.1-4.4c0-1.1-1.7-1.1-1.7,0c0,1.5-0.1,2.9-0.1,4.4c0,1.5-0.2,3,0,4.4
		C162.5,639.4,163.8,639.4,163.9,638.7z"/>
	<path d="M161.6,645.4c0,0.2,0.1,0.3,0.3,0.5c0.1,0.2,0.2,0.3,0.4,0.4c0.2,0.1,0.3,0.2,0.5,0.2c0.2,0,0.4,0,0.6,0
		c0.1,0,0.2-0.1,0.3-0.1c0.2-0.1,0.4-0.3,0.5-0.5c0-0.1,0.1-0.2,0.1-0.3c0.1-0.2,0.1-0.5,0-0.7c0-0.1-0.1-0.2-0.1-0.3
		c0-0.2-0.1-0.3-0.2-0.5c-0.1-0.2-0.2-0.3-0.4-0.4c-0.2-0.1-0.3-0.2-0.5-0.2c-0.2,0-0.4,0-0.6,0c-0.1,0-0.2,0.1-0.3,0.1
		c-0.2,0.1-0.4,0.3-0.5,0.5c0,0.1-0.1,0.2-0.1,0.3c-0.1,0.2-0.1,0.5,0,0.7C161.6,645.2,161.6,645.3,161.6,645.4z"/>
	<path d="M163.1,648.7c-0.6,0-1.3,0.6-1.2,1.2c0.2,1.9,0.3,3.7,0.5,5.6c0.1,0.9,0.2,1.9,0.3,2.8c0.1,0.9,0.2,1.9,0.4,2.8
		c0.3,1.1,1.7,0.7,1.8-0.2c0.2-1.8-0.1-3.7-0.2-5.5c-0.1-1.8-0.3-3.6-0.4-5.5C164.3,649.3,163.8,648.7,163.1,648.7z"/>
	<path d="M223.6,637.4c0.3-2.2,0.4-4.4,0.5-6.6c0.1-2.2,0.2-4.4,0.3-6.7c0.1-1.3-1.9-1.3-2,0c-0.1,2.2-0.2,4.4-0.4,6.5
		c-0.1,2.2-0.3,4.4-0.2,6.5C221.9,638.1,223.4,638.5,223.6,637.4z"/>
	<path d="M221.8,645.4c0,0.1,0.1,0.2,0.1,0.3c0.1,0.1,0.2,0.2,0.3,0.3c0.1,0.1,0.1,0.1,0.2,0.1c0.1,0.1,0.3,0.1,0.4,0.1c0,0,0,0,0,0
		c0.2,0,0.4-0.1,0.6-0.2c0.1-0.1,0.2-0.2,0.3-0.3c0,0,0.1-0.1,0.1-0.1c0,0,0-0.1,0.1-0.1c0,0,0,0,0,0c0-0.1,0.1-0.2,0.1-0.3
		c0,0,0,0,0,0c0,0,0,0,0,0c0.1-0.1,0.1-0.2,0.1-0.4c0-0.1,0-0.3,0-0.4c0-0.1-0.1-0.2-0.1-0.2c-0.1-0.1-0.2-0.2-0.3-0.3
		c-0.1-0.1-0.1-0.1-0.2-0.1c-0.1-0.1-0.3-0.1-0.4-0.1c-0.1,0-0.2,0-0.3,0c-0.2,0-0.3,0.1-0.5,0.3c0,0-0.1,0.1-0.1,0.1
		c-0.1,0-0.1,0.1-0.2,0.1c0,0-0.1,0.1-0.1,0.1c-0.1,0.1-0.3,0.3-0.3,0.5c0,0.1,0,0.2,0,0.3c0,0.1,0,0.1,0,0.2
		C221.8,645.3,221.8,645.3,221.8,645.4z"/>
	<path d="M223.4,667c0.4-5.3,0.3-10.7,0.4-16c0-1.3-2.1-1.3-2.1,0c-0.1,5.3-0.2,10.7,0.1,16C221.8,668,223.3,668,223.4,667z"/>
	<path d="M260.6,636.4c0.2-2,0.1-3.9,0.1-5.9c0-2,0-3.9,0-5.9c0-1.2-1.8-1.2-1.8,0c0,2,0,3.9,0,5.9c0,2-0.1,3.9,0.1,5.9
		C259.1,637.4,260.5,637.4,260.6,636.4z"/>
	<path d="M259.1,645.3C259.1,645.3,259.1,645.3,259.1,645.3c0.2,0.1,0.4,0.2,0.6,0.2c0.2,0,0.4-0.1,0.6-0.2c0,0,0,0,0,0
		c0.1-0.1,0.2-0.1,0.2-0.2c0.1-0.1,0.1-0.1,0.2-0.2c0,0,0,0,0,0c0,0,0,0,0,0c0,0,0,0,0,0c0.1-0.2,0.1-0.3,0.1-0.5
		c0-0.2,0-0.4-0.1-0.5c0,0,0,0,0,0c0,0,0,0,0,0c0,0,0,0,0,0c0,0,0-0.1-0.1-0.1c0-0.1-0.1-0.2-0.2-0.2c0,0-0.1-0.1-0.1-0.1
		c-0.2-0.1-0.4-0.2-0.6-0.2c-0.2,0-0.4,0.1-0.6,0.2c0,0,0,0,0,0c-0.2,0.1-0.3,0.2-0.4,0.4c-0.1,0.2-0.2,0.4-0.2,0.6
		c0,0.2,0.1,0.4,0.2,0.6C258.8,645,258.9,645.2,259.1,645.3z"/>
	<path d="M258.9,667.2c0.1,1,1.6,0.7,1.7-0.2c0.2-2.5,0-5.1-0.1-7.7c0-2.6-0.1-5.1-0.1-7.7c0-1.3-2.1-1.4-2.1,0
		c0.1,2.6,0.1,5.2,0.3,7.8C258.7,662,258.6,664.7,258.9,667.2z"/>
	<path d="M311.3,636.5c0,1.2,0,2.4,0.2,3.5c0.2,0.8,1.6,0.9,1.7,0c0.2-1.2,0.2-2.3,0.1-3.5c0-1.2-0.1-2.4-0.1-3.6
		c-0.1-2.4-0.1-4.8-0.1-7.1c0-1.3-2-1.3-2,0c0,2.4,0.1,4.8,0.1,7.1C311.3,634.2,311.3,635.4,311.3,636.5z"/>
	<path d="M313.7,646.4C313.7,646.3,313.6,646.3,313.7,646.4c-0.1-0.1-0.1-0.2-0.1-0.3c-0.1-0.1-0.2-0.2-0.3-0.3
		c-0.1-0.1-0.2-0.2-0.4-0.2c-0.1,0-0.2,0-0.3,0c-0.2,0-0.3,0-0.5,0.1c-0.1,0-0.2,0.1-0.3,0.2c-0.1,0.1-0.2,0.2-0.3,0.3
		c0,0.1-0.1,0.2-0.1,0.3c-0.1,0.2-0.1,0.4,0,0.6c0,0.1,0,0.1,0.1,0.2c0,0,0,0.1,0,0.1c0,0.1,0.1,0.2,0.1,0.3c0,0,0.1,0.1,0.1,0.1
		c0,0,0.1,0.1,0.1,0.1c0.1,0.1,0.2,0.1,0.3,0.2c0.2,0.1,0.4,0.2,0.6,0.2c0.2,0,0.3,0,0.5-0.1c0.1,0,0.3-0.1,0.4-0.2
		c0.1-0.1,0.3-0.3,0.3-0.5c0-0.3,0.1-0.4,0-0.7C313.8,646.6,313.7,646.5,313.7,646.4z"/>
	<path d="M313.3,660.5c-0.1-2.3-0.1-4.6-0.2-6.9c0-1.5-2.4-1.5-2.3,0c0.1,2.3,0.2,4.6,0.3,6.9c0.1,1.2,0.1,2.3,0.2,3.5
		c0.1,1.1,0.1,2.3,0.3,3.4c0.2,0.8,1.6,0.9,1.7,0c0.2-1.1,0.1-2.3,0.1-3.4C313.4,662.8,313.3,661.7,313.3,660.5z"/>
	<path d="M22.7,449.2c3.7-0.2,7.4-0.4,11.1-0.5c7.3-0.2,14.6-0.2,21.9,0c1.7,0.1,1.7-2.6,0-2.7c-7.4-0.3-14.8-0.3-22.2-0.1
		c-3.6,0.1-7.2,0.3-10.8,0.5c-3.7,0.2-7.5,0.2-11.1,1.1c-1.4,0.3-1,2.3,0.3,2.4C15.5,450,19.1,449.4,22.7,449.2z"/>
	<path d="M4.4,450.5c-0.8,0-0.8,1.2,0,1.2C5.1,451.7,5.1,450.5,4.4,450.5z"/>
	<path d="M202.8,364.8v18.5c0,1.9,3,1.9,3,0v-18.5C205.8,362.9,202.8,362.9,202.8,364.8z"/>
	<path d="M206.4,336.8c0-3,0-6,0-9.1c0-1.5,0-3,0-4.5c0-1.5,0.2-3.1-0.2-4.5c-0.4-1.2-2.2-1.2-2.5,0c-0.4,1.4-0.2,3.1-0.2,4.5
		c0,1.5,0,3,0,4.5c0,3,0,6,0,9.1C203.5,338.6,206.4,338.6,206.4,336.8z"/>
	<path d="M224,376.2c3-7.7,5.8-15.4,8.5-23.2c1.3-3.8,2.7-7.7,3.9-11.6c1.3-3.9,2.7-7.9,3.7-11.9c0.4-1.6-1.8-2.1-2.4-0.7
		c-1.4,3.8-2.6,7.7-3.8,11.6c-1.3,4-2.6,7.9-3.9,11.8c-2.7,7.8-5.5,15.5-8.4,23.2C221,377,223.5,377.7,224,376.2z"/>
	<path d="M252.5,373.6c1.7-2.9,3.5-5.8,5.3-8.7c0.9-1.4,1.8-2.8,2.8-4.2c1-1.4,2.1-2.8,2.8-4.3c0.6-1.2-0.9-2.5-1.9-1.4
		c-1.2,1.2-2.1,2.7-3,4.2c-1,1.4-1.9,2.9-2.8,4.3c-1.9,2.9-3.6,5.9-5.3,8.8C249.5,373.8,251.7,375.1,252.5,373.6z"/>
	<path d="M309.4,303.2c2.9-4.4,5.8-8.8,8.7-13.2c1.5-2.2,2.9-4.4,4.4-6.6c1.4-2.1,3.2-4.2,4.1-6.6c0.5-1.3-1.4-2.2-2.2-1.3
		c-1.8,1.8-3,4.3-4.4,6.4c-1.4,2.2-2.9,4.4-4.3,6.6c-2.9,4.4-5.8,8.8-8.7,13.2C306.2,303.3,308.5,304.6,309.4,303.2z"/>
	<path d="M336.8,268.4c-0.1-0.2-0.1-0.3-0.2-0.5c-0.1-0.2-0.3-0.4-0.5-0.6c-0.3-0.2-0.2-0.1-0.5-0.3c-0.1,0-0.2-0.1-0.4-0.1
		c0,0,0,0,0,0c-0.2,0-0.4-0.1-0.6-0.1c0,0,0,0-0.1,0c-0.2,0-0.4,0-0.7,0.1c0,0-0.1,0-0.1,0c-0.2,0.1-0.4,0.1-0.5,0.2c0,0,0,0-0.1,0
		c-0.2,0.1-0.4,0.3-0.5,0.4c-0.1,0-0.1,0.1-0.2,0.2c0,0-0.1,0.1-0.2,0.1c-0.2,0.2-0.4,0.5-0.5,0.8c0,0.1,0,0.1,0,0.2c0,0,0,0,0,0
		c-0.1,0.3-0.1,0.6-0.1,0.8c0,0.3,0,0.5,0.1,0.8c0,0,0,0.1,0,0.1c0.1,0.2,0.1,0.4,0.3,0.6c0.1,0.2,0.2,0.4,0.4,0.5
		c0.1,0.1,0.2,0.1,0.3,0.2c0.3,0.2,0.2,0.2,0.5,0.3c0.1,0,0.2,0.1,0.2,0.1c0.1,0,0.1,0,0.2,0c0.1,0,0.1,0.1,0.2,0.1
		c0.3,0.1,0.6,0.1,0.8,0c0.3,0,0.5-0.1,0.8-0.2c0.3-0.2,0.6-0.4,0.8-0.8c0.1-0.1,0.2-0.3,0.2-0.4c0.1-0.3,0.3-0.6,0.3-0.9
		c0.1-0.3,0.1-0.7,0.1-1c0-0.1,0-0.1,0-0.2C336.9,268.9,336.9,268.6,336.8,268.4z"/>
	<path d="M287.9,377.2c2-2.2,4-4.4,6.1-6.6c2-2.2,4.2-4.3,6-6.8c0.4-0.5,0.1-1.3-0.3-1.7c-0.5-0.4-1.2-0.3-1.7,0.1
		c-2.2,1.9-4.1,4.3-6,6.5c-2,2.2-4,4.4-5.9,6.5C284.8,376.5,286.7,378.5,287.9,377.2z"/>
	<path d="M335,318c3.9-5.5,8-11,12.1-16.4c2.1-2.6,4.1-5.3,6.2-7.8c1.1-1.3,2.1-2.6,3.2-3.9c1.1-1.3,2.4-2.6,3.2-4.1
		c0.6-1.2-0.7-3-2-2c-1.4,1-2.4,2.5-3.4,3.8c-1.1,1.4-2.2,2.7-3.3,4.1c-2.1,2.7-4.2,5.3-6.2,8c-4.2,5.5-8.3,11.1-12.2,16.8
		C331.4,318.1,333.9,319.5,335,318z"/>
	<path d="M369.1,274.7c0-0.1-0.1-0.1-0.1-0.2c-0.1-0.2-0.2-0.3-0.4-0.5c-0.1-0.1-0.3-0.3-0.5-0.4c-0.1,0-0.1-0.1-0.2-0.1
		c-0.4-0.2-0.8-0.3-1.2-0.3c-0.5,0-0.8,0.1-1.2,0.3c-0.3,0.1-0.5,0.3-0.7,0.6c-0.3,0.3-0.5,0.7-0.7,1.1c-0.1,0.4-0.1,0.9,0,1.3
		c0,0,0,0.1,0,0.1c0,0,0,0,0,0.1c0,0.4,0.1,0.8,0.3,1.2c0,0,0,0.1,0.1,0.1c0.1,0.1,0.2,0.3,0.3,0.4c0.1,0.1,0.2,0.1,0.3,0.2
		c0.1,0.1,0.2,0.1,0.3,0.2c0.4,0.2,0.8,0.3,1.3,0.3c0.2,0,0.4,0,0.7-0.1c0.1,0,0.2,0,0.3-0.1c0.4-0.2,0.8-0.3,1.1-0.7
		c0.2-0.1,0.3-0.3,0.4-0.5c0-0.1,0.1-0.1,0.1-0.2c0.1-0.2,0.2-0.4,0.2-0.6c0-0.1,0.1-0.3,0.1-0.4c0-0.1,0-0.3,0-0.4
		c0-0.2,0-0.4-0.1-0.6C369.4,275.3,369.2,275,369.1,274.7z"/>
	<path d="M157.8,338.2c1.8,4.3,3.6,8.5,5.4,12.8c0.6,1.4,3.1,0.4,2.5-1.1c-1.8-4.3-3.6-8.5-5.3-12.8c-0.9-2.1-1.8-4.3-2.6-6.4
		c-0.4-1.1-0.9-2.1-1.3-3.2c-0.4-1-0.8-2.1-1.4-3c-0.9-1.2-2.6-0.5-2.3,1c0.2,1.1,0.7,2.1,1.1,3.1c0.5,1.1,0.9,2.1,1.4,3.2
		C156,333.9,156.9,336.1,157.8,338.2z"/>
	<path d="M129.1,340.5c1,2.3,2,4.5,3,6.8c0.3,0.7,1.4,0.9,2,0.5c0.8-0.4,0.8-1.3,0.5-2c-1-2.3-2-4.5-3-6.8c-0.5-1.1-1-2.3-1.5-3.4
		c-0.5-1.2-0.9-2.3-1.8-3.3c-0.4-0.4-1.1-0.5-1.6-0.2c-0.5,0.3-0.7,0.9-0.6,1.5c0.2,1.3,0.8,2.4,1.3,3.6
		C128.1,338.2,128.6,339.3,129.1,340.5z"/>
	<path d="M93.6,276.5c-0.2-0.4-0.4-0.7-0.5-1.1c0,0,0-0.1,0-0.1c0,0,0,0,0,0c0-0.1-0.1-0.2-0.1-0.3c-0.1-0.2-0.1-0.4-0.2-0.6
		c-0.3-0.9-0.5-1.8-0.9-2.6c-0.2-0.5-0.9-0.7-1.4-0.6c-0.6,0.2-0.9,0.7-0.9,1.2c-0.1,0.9,0.2,1.9,0.5,2.8c0.3,0.9,0.7,1.8,1.2,2.7
		c0.9,1.6,2,3.1,3.4,4.3c0.5,0.5,1.4,0.6,2,0c0.5-0.5,0.6-1.4,0-2c-0.3-0.3-0.6-0.6-0.9-0.9c-0.1-0.1-0.3-0.3-0.4-0.4
		c-0.1-0.1-0.2-0.2-0.2-0.3c0,0-0.2-0.2-0.1-0.1c-0.2-0.2-0.5-0.6-0.7-1C94,277.3,93.8,276.9,93.6,276.5z"/>
	<path d="M82.1,363.1c0.5,0.6,1.1,1.2,1.6,1.8c0.1,0.1,0.2,0.3,0.4,0.5c0,0,0,0,0,0c0,0,0,0,0,0c0.1,0.1,0.1,0.2,0.2,0.3
		c0.2,0.3,0.5,0.6,0.7,0.9c0.5,0.7,0.9,1.4,1.3,2.1c0.3,0.6,1.2,0.8,1.8,0.5c0.6-0.4,0.8-1.2,0.5-1.8c-0.8-1.5-1.8-2.9-2.9-4.2
		c-0.5-0.6-1-1.2-1.6-1.8c-0.6-0.6-1.2-1.4-2-1.8c-0.5-0.2-1.1-0.2-1.5,0.2c-0.4,0.4-0.5,1-0.2,1.5C80.8,362,81.5,362.5,82.1,363.1z
		"/>
	<path d="M39.2,288.5c-0.9-1.3-1.8-2.6-2.7-3.9c-0.9-1.2-1.6-2.6-2.8-3.6c-0.9-0.8-2.8-0.1-2.3,1.3c0.5,1.4,1.4,2.5,2.2,3.7
		c0.9,1.3,1.8,2.6,2.7,3.9c1.7,2.5,3.5,5,5.2,7.5c3.5,5,6.9,10.1,10.4,15.1c1.1,1.6,3.8,0.1,2.7-1.6c-3.5-5-6.9-10.1-10.4-15.1
		C42.6,293.4,40.9,290.9,39.2,288.5z"/>
	<path d="M20.8,272.9c0.4,0.8,1,1.3,1.8,1.6c0.7,0.3,1.5,0.1,2.1-0.3c0.1,0,0.2,0,0.3-0.1c0.2-0.1,0.5-0.2,0.7-0.3
		c0.4-0.3,0.8-0.6,1-1.1c0.3-0.5,0.4-0.9,0.4-1.5c0-0.3,0-0.7-0.2-1c-0.1-0.2-0.3-0.4-0.5-0.6c-0.1,0-0.1-0.1-0.2-0.1
		c0,0,0-0.1,0-0.1c0,0,0,0,0-0.1c0,0,0,0,0,0c-0.1-0.1-0.2-0.2-0.3-0.3c-0.2-0.2-0.5-0.3-0.8-0.5c-0.2-0.1-0.4-0.1-0.6-0.1
		c-0.2,0-0.4,0-0.6,0.1c-0.1,0-0.1,0-0.2,0.1c-0.5,0-0.9,0-1.4,0.2c-0.5,0.2-0.8,0.4-1.2,0.7c-0.3,0.3-0.5,0.6-0.7,1
		C20.3,271.3,20.5,272.2,20.8,272.9z"/>
	<path d="M268,268.2c-0.1,0-0.2-0.1-0.3-0.1c0,0-0.1,0-0.1,0c-0.1,0-0.1-0.1-0.2-0.1c0,0-0.1-0.1-0.1-0.1c-0.2-0.1-0.4-0.2-0.6-0.3
		c-0.2,0-0.5-0.1-0.7-0.1c-0.2,0-0.5,0-0.7,0.1c-0.1,0-0.2,0.1-0.3,0.1c-0.1,0-0.2,0.1-0.3,0.1c0,0,0,0-0.1,0
		c-0.2,0.1-0.4,0.2-0.5,0.4c-0.1,0.1-0.3,0.3-0.4,0.5c0,0,0,0,0,0.1c-0.1,0.2-0.2,0.4-0.2,0.5c0,0,0,0,0,0.1
		c-0.1,0.2-0.1,0.5-0.1,0.7c0,0,0,0.1,0,0.1c0,0.2,0,0.5,0.1,0.7c0,0,0,0,0,0.1c0,0,0,0,0,0c0.1,0.2,0.1,0.4,0.2,0.5c0,0,0,0,0,0.1
		c0,0,0,0,0,0c0.1,0.1,0.2,0.3,0.3,0.4c0.1,0.2,0.4,0.3,0.5,0.4c0.2,0.1,0.4,0.2,0.6,0.3c0.2,0,0.4,0,0.6,0.1c0.2,0,0.4,0,0.6-0.1
		c0.2-0.1,0.3-0.1,0.5-0.2c0.1-0.1,0.2-0.1,0.3-0.2c0.2,0,0.3,0,0.5-0.1c0.2-0.1,0.3-0.1,0.5-0.2c0.3-0.2,0.6-0.4,0.8-0.8
		c0.1-0.2,0.1-0.3,0.2-0.5c0.1-0.4,0.1-0.7,0-1.1c-0.1-0.5-0.3-0.7-0.6-1.1C268.5,268.5,268.3,268.3,268,268.2z"/>
	<path d="M68.1,390.4c-14-8.2-27.7-16.9-41-26.1c-3.8-2.7-7.5-5.6-11.4-8.1c-1.1-0.7-2.4,0.9-1.4,1.8c3.1,2.6,6.5,4.9,9.8,7.2
		c3.4,2.4,6.7,4.7,10.1,7c6.7,4.6,13.6,9,20.5,13.3c4,2.4,8,4.9,12,7.2C68.2,393.5,69.6,391.2,68.1,390.4z"/>
	<path d="M63.5,415.5c-6.3-0.9-12.6-1.6-18.9-2.1c-6.3-0.6-12.7-1.2-19.1-1c-1.5,0-1.5,2.2,0,2.3c6.2,0.7,12.4,0.8,18.6,1.4
		c6.2,0.5,12.4,1.2,18.6,2C64.5,418.4,65.3,415.8,63.5,415.5z"/>
	<path d="M8.4,412.7c0.2,0.3,0.4,0.6,0.7,0.8c0.1,0,0.1,0.1,0.2,0.1c0.1,0.1,0.1,0.1,0.2,0.2c0.4,0.3,0.9,0.6,1.4,0.8
		c0.5,0.1,1.2,0.2,1.7,0c0.6-0.2,1.1-0.6,1.4-1.1c0.3-0.6,0.3-1.1,0.2-1.7c-0.2-1-1.1-1.8-2-2c-0.3,0-0.5-0.1-0.7,0
		c-0.2-0.1-0.5-0.1-0.7-0.2c-0.7,0-1.3,0.3-1.9,0.5c-0.1,0.1-0.2,0.1-0.3,0.2c-0.1,0.1-0.2,0.2-0.3,0.4c-0.1,0.1-0.1,0.2-0.1,0.3
		c0,0.2,0,0.3,0,0.5c0,0.2,0.1,0.3,0.1,0.5C8.2,412.2,8.3,412.5,8.4,412.7z"/>
	<path d="M192.5,489.8c0.2,6.4,0.4,12.9,0.6,19.3c0.2,6.4,0.2,12.9,0.7,19.3c0.1,1.4,2.2,1.4,2.2,0c0.2-6.4-0.2-12.9-0.3-19.3
		c-0.1-6.4-0.3-12.9-0.5-19.3C195.2,488.1,192.5,488.1,192.5,489.8z"/>
	<path d="M171.4,491.4c-2.8,5.7-5.7,11.5-8.5,17.2c-2.8,5.7-5.9,11.4-8.5,17.2c-0.6,1.3,1.2,2.4,1.9,1.1c3.1-5.6,5.8-11.4,8.7-17.1
		c2.9-5.7,5.8-11.4,8.6-17.1C174.3,491.2,172.1,489.9,171.4,491.4z"/>
	<path d="M148.1,535.3C148.1,535.3,148.1,535.3,148.1,535.3c0,0.3,0.1,0.5,0.2,0.8c0.4,0.8,1.2,1,2,1.1c0.5,0,1.1-0.1,1.5-0.4
		c0.5-0.3,0.8-0.6,1.1-1.1c0.3-0.4,0.4-1,0.5-1.5c0.1-0.5-0.1-1-0.3-1.5c-0.2-0.4-0.6-0.8-1-1c-0.7-0.5-1.6-0.5-2.5-0.4
		c-0.5,0.1-0.9,0.4-1.3,0.7c-0.4,0.3-0.6,0.8-0.8,1.3c-0.2,0.5,0,1.1,0.4,1.5C147.9,534.9,147.9,535.1,148.1,535.3z"/>
	<path d="M145.9,482.7c-3.4,4-6.8,8.1-10.3,12c-1.7,2-3.4,3.9-5.1,5.8c-1.7,1.9-3.7,3.8-5.1,6c-0.8,1.2,0.9,2.3,1.9,1.5
		c2-1.6,3.6-3.8,5.3-5.7c1.7-1.9,3.4-3.9,5.1-5.9c3.4-3.9,6.8-7.8,10.2-11.8C148.9,483.3,147,481.3,145.9,482.7z"/>
	<path d="M65.5,585.6c1.6-1.5,2.9-3.3,4.4-4.9c1.5-1.6,2.9-3.2,4.5-4.8c3-3.2,6.2-6.2,9.4-9.2c1.3-1.2-0.6-3.1-1.9-1.9
		c-3.3,3-6.5,6.1-9.5,9.3c-1.5,1.6-3,3.2-4.5,4.8c-1.5,1.7-3.1,3.3-4.3,5.2C62.8,585.3,64.5,586.6,65.5,585.6z"/>
	<path d="M54.7,597.3c0,0.1,0.1,0.3,0.2,0.4c0.1,0.2,0.2,0.4,0.4,0.5c0.2,0.2,0.4,0.3,0.7,0.4c0,0,0.1,0,0.1,0c0.2,0,0.3,0,0.5,0
		c0.1,0,0.1,0.1,0.2,0.1c0.4,0.1,0.8,0.1,1.2,0c0.4-0.1,0.7-0.3,1-0.6c0.1,0,0.1-0.1,0.1-0.1c0.1-0.1,0.3-0.3,0.4-0.5
		c0.2-0.4,0.3-0.7,0.3-1.2c0,0,0-0.1,0-0.1c0-0.2,0-0.3-0.1-0.5c0,0,0-0.1,0-0.1c-0.1-0.2-0.1-0.3-0.2-0.5c0-0.1-0.1-0.1-0.1-0.2
		c-0.1-0.1-0.2-0.3-0.4-0.5c-0.1-0.1-0.3-0.2-0.5-0.3c-0.2-0.1-0.4-0.2-0.5-0.2c-0.1,0-0.1,0-0.2-0.1c-0.2,0-0.4-0.1-0.6-0.1
		c-0.1,0-0.3,0-0.4,0c-0.1,0-0.3,0-0.4,0.1c-0.4,0.1-0.7,0.3-1,0.6c-0.2,0.1-0.3,0.3-0.4,0.5c0,0.1-0.1,0.1-0.1,0.2
		c-0.1,0.2-0.2,0.4-0.2,0.6c0,0.2-0.1,0.4-0.1,0.6c0,0.2,0,0.4,0.1,0.6C54.7,597.2,54.7,597.2,54.7,597.3
		C54.7,597.3,54.7,597.3,54.7,597.3z"/>
	<path d="M113.1,603.3c0.8-0.7,1.2-1.7,1.7-2.6c0.5-0.8,0.9-1.6,1.4-2.4c1-1.7,1.9-3.3,2.9-5c2-3.4,3.9-6.8,5.9-10.2
		c0.9-1.5-1.5-2.9-2.4-1.4c-2,3.4-3.9,6.8-5.9,10.2c-1,1.7-1.9,3.3-2.9,5c-0.5,0.8-0.9,1.6-1.4,2.4c-0.5,0.9-1.2,1.8-1.4,2.8
		C110.8,603.3,112.2,604.1,113.1,603.3z"/>
	<path d="M14.1,501.5c1.9-1,3.7-2.3,5.5-3.5c1.7-1.1,3.4-2.2,5.1-3.3c3.6-2.3,7.2-4.5,10.9-6.6c7.3-4.2,14.8-8.2,22.4-11.8
		c1.6-0.8,0.2-3.1-1.4-2.4c-7.7,3.6-15.2,7.6-22.6,11.9c-3.6,2.1-7.2,4.3-10.7,6.5c-1.8,1.2-3.6,2.3-5.5,3.5
		c-1.8,1.2-3.6,2.3-5.2,3.7C11.4,500.5,12.8,502.2,14.1,501.5z"/>
	<path d="M105.3,484.1c-2.4,2.4-4.8,4.7-7.2,6.9c-1.2,1.1-2.4,2.2-3.7,3.3c-1.3,1.1-2.6,2.1-3.8,3.4c-1,1,0.3,2.8,1.6,2
		c1.4-0.9,2.7-2.1,4-3.2c1.3-1.1,2.5-2.2,3.8-3.4c2.5-2.3,4.9-4.6,7.3-7C108.6,484.8,106.6,482.8,105.3,484.1z"/>
	<path d="M36.6,551.7c4.4-4.3,9.1-8.3,14-12.1c1.5-1.2-0.6-3.3-2.1-2.1c-4.9,3.8-9.6,7.9-14.1,12.2c-2.2,2.1-4.4,4.3-6.5,6.6
		c-1,1.1-2,2.2-3,3.3c-1.1,1.2-2.2,2.4-3,3.8c-0.8,1.4,0.9,2.5,2,1.6c1.2-0.9,2.1-2.2,3.1-3.3c1-1.2,2.1-2.3,3.2-3.5
		C32.2,556,34.3,553.9,36.6,551.7z"/>
	<path d="M12.6,570.4c-0.4-0.2-0.8-0.3-1.3-0.3c-0.5,0-1,0.1-1.4,0.3c-0.3,0.2-0.6,0.4-0.9,0.7c-0.3,0.4-0.6,0.8-0.7,1.3
		c-0.2,0.8-0.1,1.8,0.4,2.5c0.1,0.3,0.2,0.6,0.4,0.8c0.6,0.6,1.4,0.9,2.2,0.9c0.3,0,0.7,0,1-0.1c0.3-0.1,0.6-0.2,0.9-0.4
		c0.7-0.4,1.2-1.1,1.4-1.8c0.2-0.8,0.1-1.7-0.4-2.4C13.9,571.2,13.3,570.7,12.6,570.4z"/>
	<path d="M223.8,505.8c-0.3-0.8-1-1.3-1.9-1.1c-0.7,0.2-1.4,1.1-1.1,1.9c1.6,3.8,3.1,7.5,4.7,11.3c1.5,3.7,2.9,7.7,4.9,11.2
		c0.7,1.3,2.9,0.4,2.5-1c-1.1-3.8-2.9-7.5-4.4-11.2C226.9,513.2,225.4,509.5,223.8,505.8z"/>
	<path d="M250.3,599.3c0.7,1,1.4,2.2,2.3,2.9c0.8,0.6,2.1-0.4,1.7-1.3c-0.4-1-1.2-1.9-1.8-2.8c-0.6-0.9-1.2-1.9-1.7-2.9
		c-1-1.9-1.8-3.9-2.5-6c-0.5-1.6-3-0.9-2.5,0.7c0.7,2.2,1.6,4.4,2.7,6.5C249.2,597.4,249.7,598.4,250.3,599.3z"/>
	<path d="M200.2,598.7c0.1,0.2,0.2,0.3,0.4,0.5c0,0,0.1,0.1,0.1,0.1c0.2,0.2,0.4,0.4,0.6,0.5c0.2,0.1,0.5,0.2,0.8,0.3
		c0.2,0,0.4,0.1,0.5,0.1c0.2,0,0.3,0,0.6-0.1c0.1,0,0.1-0.1,0.2-0.1c0.2,0,0.3-0.1,0.4-0.2c0.1-0.1,0.1-0.1,0.2-0.2
		c0.1-0.1,0.2-0.3,0.3-0.4c0,0,0.1-0.1,0.1-0.1c0.1-0.2,0.2-0.4,0.2-0.6c0.1-0.3,0.1-0.5,0.1-0.8c0-0.3,0-0.6-0.1-0.9
		c0-0.1,0-0.1-0.1-0.2c-0.1-0.2-0.2-0.4-0.3-0.6c0-0.1-0.1-0.1-0.1-0.2c-0.1-0.2-0.2-0.4-0.4-0.5c-0.1-0.1-0.3-0.3-0.5-0.4
		c-0.1,0-0.1-0.1-0.2-0.1l-0.4-0.2c-0.2-0.1-0.5-0.1-0.7,0c-0.1,0-0.1,0-0.2,0c0,0-0.1,0-0.1,0c-0.2,0-0.4,0-0.6,0.1
		c0,0-0.1,0-0.1,0c-0.2,0-0.3,0.1-0.5,0.2c-0.2,0.1,0.1-0.2-0.4,0.3c0,0.1-0.2,0.3-0.3,0.4c-0.1,0.1-0.2,0.4-0.2,0.5
		c-0.1,0.2-0.1,0.5-0.2,0.8c0,0.3,0,0.5,0.1,0.8c0,0.1,0,0.2,0.1,0.4C200,598.2,200.1,598.5,200.2,598.7z"/>
	<path d="M342.3,447.5c-8.2,0.1-16.4,0.4-24.7,0.7c-1.9,0.1-1.9,3.1,0,3c8.2-0.4,16.4-0.6,24.7-0.8c4.1-0.1,8.1-0.1,12.2-0.1
		c4.1,0,8.3,0.2,12.5-0.1c1.7-0.1,1.6-2.4,0-2.6c-4.1-0.4-8.3-0.2-12.5-0.2C350.4,447.4,346.3,447.4,342.3,447.5z"/>
	<path d="M369.3,365.3c-6.6,3.8-12.8,8.6-18.7,13.3c-6,4.8-11.9,9.8-17.5,15c-1.3,1.2,0.7,3.2,2,2c5.5-5.2,11.2-10.1,17.1-14.8
		c6-4.7,12.2-9,18.3-13.5C371.6,366.4,370.6,364.5,369.3,365.3z"/>
	<path d="M360,420c-2.7-0.6-5.6-0.6-8.4-0.6c-2.8,0-5.7,0.1-8.5,0.3c-5.6,0.5-11.2,1.4-16.7,2.9c-1.9,0.5-1.1,3.4,0.8,2.9
		c5.3-1.4,10.7-2.4,16.1-2.8c2.7-0.2,5.4-0.3,8-0.3c2.8,0,5.5,0.3,8.3,0.2C361,422.6,361.5,420.3,360,420z"/>
	<path d="M375.4,421.3c-0.2-0.5-0.4-0.9-0.8-1.3c-0.4-0.4-0.8-0.6-1.2-0.8c-0.2-0.1-0.5-0.1-0.8-0.1c-0.2,0-0.5,0-0.7,0.1
		c-0.2,0-0.5,0.2-0.7,0.3c-0.2,0.1-0.3,0.2-0.4,0.3c-0.3,0.3-0.6,0.6-0.8,1c-0.1,0.2-0.2,0.4-0.3,0.7c-0.1,0.2-0.1,0.5-0.1,0.7
		c0,0.1,0,0.2,0,0.3c0,0.2,0,0.5,0.1,0.7c0.1,0.2,0.2,0.5,0.3,0.7c0.1,0.1,0.2,0.3,0.3,0.4c0.1,0.1,0.3,0.2,0.4,0.4
		c0.2,0.1,0.4,0.2,0.7,0.3c0.2,0.1,0.3,0.1,0.5,0.1c0.2,0,0.4,0.1,0.5,0c0.2,0,0.5,0,0.7-0.1c0.3-0.1,0.5-0.2,0.7-0.3
		c0.1,0,0.3,0,0.4-0.1c0.4-0.1,0.7-0.4,0.9-0.7c0.3-0.4,0.4-0.9,0.4-1.5c0-0.3,0-0.5-0.1-0.8C375.5,421.5,375.5,421.4,375.4,421.3z"
		/>
	<path d="M313.2,470.1c14.6,9.8,28.8,20.3,42.3,31.5c3.8,3.2,7.6,6.4,11.4,9.6c1,0.8,2.5-0.6,1.5-1.5c-6.6-6-13.5-11.6-20.4-17.1
		c-6.9-5.5-13.9-10.9-21.1-16c-4.1-2.9-8.2-5.8-12.4-8.6C313.1,467.2,311.9,469.3,313.2,470.1z"/>
	<path d="M288.9,489.5c-0.6,0.6-0.5,1.4,0,2c2.1,2.7,4.2,5.4,6.5,7.9c0.4,0.5,1.2,0.5,1.7,0.1c0.5-0.4,0.7-1.1,0.3-1.7
		c-2.1-2.9-4.3-5.6-6.5-8.4C290.5,488.9,289.4,489,288.9,489.5z"/>
	<path d="M336.7,572.3c2.1,2.3,4.2,4.7,6.6,6.6c1.3,1,2.9-0.5,1.8-1.8c-1.9-2.3-4.1-4.3-6.1-6.5c-2.1-2.2-4-4.6-5.9-6.9
		c-3.8-4.7-7.2-9.6-10.4-14.8c-1-1.6-3.5-0.1-2.5,1.5c3.2,5.2,6.8,10.2,10.6,15C332.6,567.7,334.6,570,336.7,572.3z"/>
	<path d="M350.1,595.4c0.6,0.4,1.3,0.6,2,0.6c0.5,0,0.9-0.1,1.3-0.4c0.2-0.1,0.3-0.2,0.4-0.3c1,0.4,2.2,0.1,2.7-0.8
		c0.6-1,0.2-2.4-0.7-3.1c-0.6-0.5-1.4-0.9-2.2-1c-0.8-0.2-1.6-0.2-2.5,0c-0.3,0-0.5,0.1-0.8,0.2c-0.5,0.2-1.1,0.3-1.5,0.7
		c-0.7,0.7-0.5,2-0.1,2.8C349.1,594.5,349.6,595,350.1,595.4z"/>
	<path d="M97.4,149.3c0.4,0,0.5-0.4,0.3-0.7c-0.1-0.1-0.2-0.2-0.3-0.3c0-0.1,0-0.2,0-0.2c-1.2-3-3.6-5.6-6.7-6.9
		c-1.7-0.7-3.5-0.9-5.3-0.8c-1.9,0.1-4,0.3-5.7,1.3c-1.3,0.7-2.3,1.8-3,3.1c-0.1,0-0.2,0-0.3,0c-0.7-1.3-1.6-2.5-2.8-3.4
		c-1.7-1.2-3.9-1.3-5.9-1c-4.4,0.6-7.2,4.7-9.6,8.1c-0.1,0.2-0.2,0.4-0.1,0.6c0.1,0.2,0.3,0.2,0.5,0.2c3.4,0.3,6.8,0.9,9.9,2.5
		c3.4,1.8,5.5,4.8,7.6,7.8c2,2.7,3.9,5.6,5.9,8.5c1.8,2.6,3.4,5,5,7.2c0,0-0.1,0.1-0.1,0.1c0,0-0.1,0-0.1,0
		c-1.6,0.9-3.3,1.9-5.2,2.1c-0.5,0-0.6,0.7-0.1,0.8c1.4,0.5,2.6,1.3,3.7,2.2c0.5,0.5,1,1,1.5,1.5c0.2,0.2,0.3,0.4,0.5,0.6
		c-0.1,3.2-0.2,6.1-0.4,8.9c-0.1,2.2-0.6,3.7-1.4,4.6c-0.9,0.9-2.4,1.5-4.7,1.8c-0.3,0-0.6,0.1-0.8,0.2c-1.2,0.2-2.4,0.4-3.7,0.6
		c-0.2,0-0.3,0.3-0.3,0.5c1,3.4,4.8,4.6,8,4.7c1.7,0.1,3.4-0.2,5-0.7c1.3-0.4,2.7-1,3.8-1.9c0.2,0,0.3,0,0.5,0
		c2.1,2.3,5.4,3,8.5,2.9c3.2-0.2,7.3-1,8.2-4.6c0-0.2,0-0.3-0.1-0.4c0-0.3-0.1-0.5-0.4-0.5c-1.1-0.1-2.3-0.2-3.4-0.3
		c-0.4-0.1-0.8-0.2-1.3-0.3c-3.2-0.8-4.8-2.8-5.1-6c-0.2-3.5-0.3-6.2-0.3-8c0-0.3,0-0.6,0-0.9c0.2-0.3,0.4-0.6,0.7-0.9
		c0.4-0.5,0.8-1,1.3-1.5c0.9-0.9,2-1.7,3.1-2.3c0.3-0.2,0.3-0.7-0.1-0.8c-1.7-0.4-3.3-1.2-4.6-2.3c0,0,0,0,0,0c1.5-1.9,3-4.3,4.8-7
		c1.7-2.6,3.5-5.3,5.4-7.9c1.9-2.7,3.9-5,6.1-7c2-1.9,4.5-3.6,7.3-4.1c0.6-0.1,1.2-0.1,1.8-0.1c4,0.2,2-5,0.2-6.9
		c-2.1-2.3-6.2-3.2-8.9-1.4c-1.2,0.8-1.8,2.2-2.1,3.5c0,0-0.1,0-0.1,0c-0.5-1.2-1.3-2.3-2.2-3.1c-1.3-1.1-2.9-1.5-4.5-1.2
		c-3.5,0.8-5.9,4.3-7.8,7.1c-0.4,0.5,3,1.5,3.4,1.7c2.3,1.2,4.3,3.2,3,5.9c-0.8,1.6-2,3.5-3.6,5.7c-1.6,2.2-3,3.9-4.3,5
		c-1.2,0.9-2.3,0.8-3.5-0.3c-1.3-1.4-2.8-3.3-4.3-5.7c-1.5-2.5-2.7-4.5-3.6-6.2C83.9,148.8,95.2,149.5,97.4,149.3z"/>
	<path d="M195.7,147.9c1,0.1,2,0.2,3,0.3c1.8,0.9,3,2,3.4,3.6c0.5,1.5,0.6,3.2,0.5,5c0,2.2-0.1,5.5-0.1,9.8c-0.3,0.8-0.6,1.7-1,2.4
		c-0.6,1-1.2,2-1.9,2.9c-0.7,0.9-1.4,1.7-2.1,2.6c-0.6,0.7,0.4,1.4,0.9,1.9c1.4,1.6,2.7,3.4,4.1,5c0,0.2,0,0.4,0,0.5
		c-0.1,4.2-0.1,7.3-0.2,9.3c-0.1,3.9,0.9,6.9,2.8,9.2c1.9,2.2,4.4,3.6,7.5,4.2c3.1,0.6,6.2,0.5,9.5-0.4c3.3-0.9,6.2-2.5,8.8-4.9
		c1.4-1.1,2.4-1.2,3.1-0.4c0.7,0.8,1.1,2,1.2,3.4c0,0.7,0.2,1.2,0.5,1.5c0.3,0.3,0.8,0.4,1.6,0.2c2.1-0.4,4.3-0.7,6.7-0.8
		c2.4-0.1,4.6-0.1,6.8-0.1c0.6,0,1.1,0,1.6-0.2c0.5-0.2,0.8-0.6,0.9-1.3c0.1-0.7,0-1.2-0.4-1.4c-0.4-0.3-0.8-0.5-1.3-0.6
		c-0.1,0-0.2-0.1-0.2-0.1c-2.6-0.8-3.8-2.5-3.8-5.2c0.1-2,0.1-5.4,0.2-10.1c0-1,0-2,0-3c0.1-0.1,0.2-0.3,0.4-0.4
		c1.4-1.6,2.7-3.4,4.1-5c0.4-0.5,1.4-1.2,0.9-1.9c-0.7-0.9-1.5-1.7-2.1-2.6c-0.7-0.9-1.3-1.9-1.9-2.9c-0.4-0.9-0.8-1.8-1.2-2.8
		c0-1.2,0-2.1,0-2.9c0-1.5,0-2.9,0-4.4c0-3.6,0-7.1,0-10.7c0.1,0,0.2,0,0.3,0c0.7,0,1.5-0.1,2.2-0.1c0.5,0,0.8-0.4,0.7-0.9
		c-0.5-2.6-1.9-5.1-4.4-6.3c-1.4-0.7-2.7-0.7-4,0.1c0,0,0,0-0.1,0c-1.6,0.5-3,1.8-3.8,3.3c-0.1-0.1-0.1-0.2-0.2-0.3
		c-0.4-0.6-1-1.2-1.6-1.7c-1.9-1.5-4.4-1.6-6.6-0.5c-2.3,1.2-3.7,3.9-4,6.4c0,0.3,0.3,0.6,0.5,0.5c2.6-0.1,5.1,0.2,6.9,2.3
		c1.7,1.9,1.7,4.2,1.7,6.5c-0.1,1.8-0.1,5-0.2,9.4c0,0.1,0,0.2,0,0.3c-0.2,0.5-0.5,1.1-0.7,1.6c-0.6,1-1.2,2-1.9,2.9
		c-0.7,0.9-1.4,1.7-2.1,2.6c-0.6,0.7,0.4,1.4,0.9,1.9c1.3,1.4,2.4,3,3.6,4.5c-0.1,2.9-0.2,5-0.2,6.3c-0.3,2.8-1.2,5.2-2.9,7.3
		c-1.7,2.1-3.5,3.5-5.5,4.3c-2,0.8-4.4,0.8-7.1-0.2c-1.3-0.6-2.3-1.4-2.8-2.5c-0.5-1.1-0.8-2.4-0.7-3.9c0-1.5,0-3.9,0-7.2
		c0-1.2,0-2.5,0-3.8c1.1-1.4,2.2-2.8,3.3-4.1c0.4-0.5,1.4-1.2,0.9-1.9c-0.7-0.9-1.5-1.7-2.1-2.6c-0.7-0.9-1.3-1.9-1.9-2.9
		c0-0.1-0.1-0.1-0.1-0.2c0-1.1,0-2.1,0-3.1c0-2.4,0-4.2,0-5.3c0-1.7,0.1-3.3,0.1-4.9c0-1.7,0.1-3.4,0.1-5c0.3-0.8,0.7-1.7,1.4-2
		c0.6,0.1,1.5,0.4,1.8-0.3c0.6-1,0.6-2.4,0.4-3.5c-0.2-1.2-0.9-2.2-1.7-2.9c0-0.1-0.1-0.1-0.1-0.2c-1.2-1.6-3.5-1.5-5.2-1
		c-0.7,0.2-5.2,2.3-4.6,3.4c-0.5-1.1-1-2.2-2-2.9c-1.1-0.8-2.7-1-4-0.6c-3.3,0.8-5.1,4.1-6.7,6.8
		C195.1,147.6,195.4,147.9,195.7,147.9z M247.6,167.8c0,0.1,0.1,0.2,0.1,0.2c0,0-0.1,0-0.1,0C247.6,168,247.6,167.9,247.6,167.8z
		 M247.6,168.9C247.6,168.9,247.7,169,247.6,168.9C247.7,169,247.6,169,247.6,168.9C247.6,168.9,247.6,168.9,247.6,168.9z"/>
	<path d="M275.4,194.3c-0.7,1.1-1.9,1.7-3.5,1.9c-0.5,0-0.9,0.2-1.2,0.4c0,0,0,0-0.1,0c-0.5,0.1-1,0.1-1.5,0.2
		c-0.5,0.1-1,0.1-1.4,0.2c-0.7,0.2-0.9,1-0.6,1.6c0.6,1.5,1.9,2.7,3.1,3.7c2.7,2,6.3,2.6,9.5,1.6c1.5-0.5,3.1-1.4,4.3-2.5
		c1.6,2.1,4.2,3.3,6.8,3.2c0.6,0,1.1,0,1.7-0.1c1.9-0.3,3.5-1.5,4.5-3.1c0.5-0.5,1-1.1,1.2-1.8c0.2-0.5,0.3-1,0.4-1.5
		c0-0.3,0-0.6-0.2-0.8c-0.2-0.2-0.4-0.3-0.7-0.3c-1.2-0.2-2.3-0.3-3.5-0.5c0,0-0.1,0-0.1,0c-1.3-0.4-2.3-1-3-1.8
		c-0.8-0.8-1.1-2-1.1-3.5c0-4.1,0-8.1,0-12.1c0-1.9,0-3.9,0-5.8c0-0.7,0.2-1.2,0.5-1.6c0.4-0.3,0.8-0.6,1.4-0.7
		c3.1-0.9,5.8-0.5,7.9,1.1c2.1,1.6,3.4,4.1,3.8,7.6c0.1,1.2,0.2,2.5,0.3,3.7c0.1,2,0.3,3.9,0.5,5.8c0.3,2.8,1,5.2,2.2,7.4
		c1.2,2.1,3.1,3.7,5.6,4.6c4.7,1.5,8.7,0.3,12.2-3.5c1.6-1.8,2.6-3.9,3.1-6.2c0.5-2.3,0.8-4.6,0.9-7.1c0-0.5-0.1-1-0.3-1.4
		c-0.2-0.4-0.6-0.6-1.2-0.7c-0.6,0-1,0.2-1.2,0.6c-0.2,0.4-0.4,0.9-0.4,1.3c-0.1,0.8-0.2,1.5-0.2,2.3c-0.1,0.8-0.1,1.6-0.3,2.3
		c-0.2,1-0.5,1.8-1,2.5c-0.5,0.7-1.2,1.1-2.2,1.2c-1,0.1-1.8-0.2-2.4-0.8c-0.5-0.6-0.9-1.4-1.1-2.4c-0.2-0.7-0.4-1.4-0.5-2.1
		c-0.7-3.5-1.7-6.7-3-9.5c-1.3-2.8-3.6-5-7-6.7c-0.1-0.1-0.2-0.1-0.4-0.1c-0.3-0.1-0.6-0.3-0.8-0.5c-0.2-0.2-0.3-0.5-0.3-1
		c0.1-0.3,0.2-0.6,0.4-0.7c0.2-0.2,0.5-0.3,0.7-0.4c0.1,0,0.2-0.1,0.3-0.1c2-0.8,3.9-1.6,5.8-2.5c1.5-0.7,2.9-1.7,4.2-2.8
		c0,0,0.1,0.1,0.1,0.1c0.1-0.1,0.1-0.3,0.2-0.4c0.2-0.2,0.4-0.4,0.7-0.6c1.3-1.4,2.2-2.8,2.8-4.2c0.6-0.8,1.3-1.6,2-2.4
		c0.4-0.5,1.4-1.2,0.9-1.9c-0.7-0.9-1.5-1.7-2.1-2.6c-0.2-0.3-0.4-0.5-0.6-0.8c-0.1-0.4-0.3-0.7-0.5-1.1c-1-1.9-2.4-3.5-4.3-4.6
		c-3.8-2.1-7.8-3.2-11.9-3.4c-9.7-0.4-19.5-0.5-29.2-0.3c-0.6,0-1.1,0-1.7,0c-0.8,0-1.5,0-2.2,0c-0.3,0-0.7,0-1,0.1c0,0,0,0,0,0
		c-0.3,0-0.6,0-0.9,0c-0.3,0.1-0.6,0.3-0.7,0.6c-0.1,0.1-0.2,0.2-0.2,0.3c-0.1,0.2-0.1,0.4,0,0.6c0,0,0,0,0,0
		c-0.3,0.8,0,1.7,0.4,2.4c0.8,1.4,2.1,2.3,3.3,3.2c0.9,0.6,1.9,1.2,2.7,2c0.7,1.2,1.2,2.5,1.7,3.9c0,0,0,0,0,0c0,1.3,0,2.7,0,4
		c0.1,2.6,0.1,5.3,0.1,7.9c-0.3,0.8-0.6,1.5-1,2.3c-0.6,1-1.2,2-1.9,2.9c-0.7,0.9-1.4,1.7-2.1,2.6c-0.6,0.7,0.4,1.4,0.9,1.9
		c1.4,1.6,2.6,3.4,4.1,5c0.1,3.1,0,6.3-0.3,9.4C276.5,191.8,276.1,193.2,275.4,194.3z M289.9,150.4c0.2-2.9,1.1-4.6,2.7-5.1
		c1.6-0.6,3.6-0.7,5.9-0.5c1.8,0,3.5,0.4,4.9,1.1c1.3,0.7,2.4,1.9,3.2,3.6c-0.5,0.8-1,1.5-1.5,2.3c-0.7,0.9-1.4,1.7-2.1,2.6
		c-0.6,0.7,0.4,1.4,0.9,1.9c1.1,1.3,2.1,2.7,3.2,4c-0.3,0.8-0.7,1.6-1.2,2.3c-0.9,1.3-2.4,2.3-4.3,2.9c-1.9,0.6-3.8,1-5.8,1.1
		c-2,0.1-3.5,0-4.5-0.4c-0.5-0.2-0.9-0.5-1-0.9c-0.1-0.4-0.2-0.9-0.2-1.4c0-0.7-0.1-1.7-0.1-3.1c-0.1-1.9-0.1-3.9-0.1-5.9
		C289.9,152.7,289.9,151.3,289.9,150.4z M273.9,145.2C274,145.2,274,145.2,273.9,145.2C274,145.3,274,145.3,273.9,145.2
		C274,145.3,274,145.3,273.9,145.2z"/>
	<path d="M152.3,140.4c-4.6,0.5-8.8,2.2-12.7,5.2c-3.9,3-6.9,6.8-9.2,11.5c-1.2,2.6-2,5.3-2.5,8.1c-0.4,1.1-0.8,2.1-1.3,3.1
		c-0.6,1-1.2,2-1.9,2.9c-0.7,0.9-1.4,1.7-2.1,2.6c-0.6,0.7,0.4,1.4,0.9,1.9c1.4,1.6,2.7,3.4,4.1,5c0.2,0.2,0.4,0.4,0.6,0.6
		c0.1,0.2,0.2,0.3,0.3,0.5c0.1,0.3,0.3,0.6,0.4,0.9c1.3,5.5,3.7,10.1,7,13.8c5.2,5.7,12.3,8.3,21.2,7.9c5.2-0.4,9.6-2,13.3-4.7
		c3.7-2.8,6.6-6.4,8.7-10.9c1.1-2.4,1.9-5,2.5-7.7c0.1-0.1,0.2-0.2,0.3-0.3c1.4-1.6,2.7-3.4,4.1-5c0.4-0.5,1.4-1.2,0.9-1.9
		c-0.7-0.9-1.5-1.7-2.1-2.6c-0.7-0.9-1.3-1.9-1.9-2.9c-0.4-0.7-0.7-1.5-1-2.3c-0.7-4.2-1.9-7.9-3.7-11.2c-2.9-5.1-6.6-8.9-11.2-11.3
		C162.4,141,157.5,140,152.3,140.4z M141.4,169C141.4,169,141.4,169,141.4,169C141.4,169,141.4,169,141.4,169
		C141.4,169,141.4,169,141.4,169z M141.4,168.1c0,0,0-0.1,0-0.1C141.5,168,141.5,168,141.4,168.1C141.5,168,141.4,168.1,141.4,168.1
		z M164.2,175.7c1.3,1.5,2.5,3.1,3.7,4.6c-0.2,1.8-0.3,3.7-0.6,5.5c-0.4,2.8-1.1,5.6-2.1,8.3c-0.9,2.3-2.2,4-3.8,5.2
		c-1.6,1.1-3.5,1.8-5.5,2.1c-4.4,0.6-7.9-1.2-10.3-5.5c-1.5-2.8-2.6-5.7-3-8.8c-0.3-2.2-0.6-4.3-0.8-6.5c1.4-1.6,2.6-3.3,4-4.9
		c0.4-0.5,1.4-1.2,0.9-1.9c-0.7-0.9-1.5-1.7-2.1-2.6c-0.7-0.9-1.3-1.9-1.9-2.9c-0.4-0.7-0.7-1.5-1-2.3c0.4-4.5,1.2-8.9,2.5-13.3
		c1.9-5.8,5.5-8.8,10.7-9c2.5,0,4.7,0.8,6.7,2.4c2,1.6,3.4,3.7,4.2,6.4c1.3,4.6,2.1,9.2,2.4,13.9c-0.2,0.6-0.5,1.2-0.8,1.8
		c-0.6,1-1.2,2-1.9,2.9c-0.7,0.9-1.4,1.7-2.1,2.6C162.8,174.5,163.7,175.2,164.2,175.7z"/>
	<path d="M135.2,210.8c-1,0.3-7,3.2-5.1,4.6c0.3,0.3,0.8,0.3,1.2,0.3c1.2,0,2.5,0.1,3.7,0.6c2.2,0.9,2.9,2.5,2.9,4.7
		c0,7.3,0.2,14.6,0.1,21.9c-0.1,5.2,1.4,14.7-6.1,15.1c-3.2,0-1.6,1.8-1.4,2c1.6,1.8,3.9,2.7,6.2,3c1.2,0.1,2.4,0.1,3.5-0.2
		c0.2,0,3-1.1,2.9-1.2c2,1.9,5,2.2,7.6,1.6c1.2-0.3,6.3-1.9,5.8-3.8c-0.4-1.5-1.9-1.6-3.2-1.8c-0.4,0-0.7-0.1-1-0.2
		c-3.9-0.8-3.6-5.1-3.7-8.2c0-3.1-0.1-6.2-0.1-9.3c0-4.4,0.1-8.9,0.2-13.3c0.1-2.7-0.7-7.7,1.8-9.6c1-0.7,2.2-0.9,3.4-1
		c5.1-0.3-0.6-5.3-3-5.9c-1.3-0.3-2.7-0.4-4-0.2c-0.5,0.1-4.5,1.8-4.1,2.1C140.6,210.5,137.8,210.2,135.2,210.8z"/>
	<path d="M235.8,209.7c-1.8,0-3.5,0.8-4.9,2c-0.8,0.7-4.2,3.5-1.8,3.9c1.8,0.3,3.7,0.2,5.3,1.1c3.5,2.2,1.9,10.2,1.9,13.7
		c0,4.4,0,8.8,0,13.2c0,3.4,0.8,8.5-1.4,11.4c-1,1.3-2.5,2.1-4.2,2.3c-0.5,0.1-1.1,0.1-1.6,0.2c-2.6,0.9,3.6,4.9,4.5,5.3
		c2.4,1,5.1,0.5,7.2-1.1c0.4-0.3,0.8-0.6,1.1-1c-0.6,0.7,4.2,2.7,4.7,2.7c1.9,0.4,3.8,0.2,5.5-0.9c1-0.7,3.9-3.8,2.9-5.2
		c-0.6-0.9-4.5-0.3-5.7-0.9c-4.4-2.3-2.7-10.8-2.5-14.7c0-0.4,0-0.7,0-1.1c0-6.5,0.4-12.9,0.4-19.4c0.1-3,1.7-4.6,4.5-5.1
		c1.3-0.2,2.9,0.2,3.2-1.1c0.4-1.4-1.7-3.6-2.7-4.4c-1.6-1.2-3.6-1.5-5.5-1.2c-0.5,0.1-5.5,2-4.9,2.8
		C240.5,210.7,238,209.7,235.8,209.7z"/>
	<path d="M99.8,238.3c2.1,0.2,4.2,0.2,6.2,0.1c2.1-0.1,4.2-0.4,6.2-1.1c3.8-1.3,6.6-3.5,8.3-6.6c0.6-1.1,1-2.2,1.2-3.4
		c0.5-0.6,0.9-1.2,1.5-1.8c0.4-0.5,1.4-1.2,0.9-1.9c-0.7-0.9-1.5-1.7-2.1-2.6c-0.4-0.5-0.7-1-1.1-1.5c-0.9-2.1-2.2-3.7-3.8-4.9
		c-1.8-1.3-4-2.2-6.4-2.8c-1.7-0.4-3.4-0.6-5.1-0.7c-5-0.3-9.9-0.4-14.9-0.3c-1.9,0-12.1-0.9-11.7,1.6c0.1,0.6,0.3,1.2,0.6,1.7
		c0.2,0.5,0.5,1,0.8,1.5c0.7,1,1.8,1.5,2.8,2c1.1,0.5,2.1,0.9,2.5,2.2c0.2,0.7,0.2,1.5,0.2,2.3c0,1.3,0,2.7,0,4
		c0,3.2-2.2,6.4-4.7,8.4c-0.2,0.2-0.1,0.5,0,0.6c1.9,2.4,3.7,6.7,4.4,9.7c0.1,0.6,0.1,1.3,0.1,1.9c0,2.3,0.4,5.1-0.7,7.2
		c-0.8,1.7-2.6,2.6-4.3,3.2c-0.7,0.2-4.8,0.7-4.9,1.2c-0.6,2.2,3.7,3.8,5.2,4.2c3.2,0.9,7.2,0.5,9.9-1.6c0.4,0.3,1,0.6,1.4,0.8
		c2.4,1.2,5.4,1.7,7.9,0.8c1.2-0.4,6.3-4.9,3-5.5c-3.7-0.6-6.1-0.7-6.6-5c-0.2-1.9-0.3-3.9-0.3-5.8c0-1.5-0.1-3-0.2-4.5
		C96.1,239.4,97.2,238.1,99.8,238.3z M96.8,218.2c0.1-1.5,0.6-2.4,1.5-2.9c0.9-0.5,2.1-0.7,3.6-0.7c1.4,0.1,2.7,0.4,4.1,1
		c1.4,0.6,2.5,1.8,3.3,3.7c0,0,0,0,0,0c-0.4,0.6-0.8,1.2-1.2,1.8c-0.7,0.9-1.4,1.7-2.1,2.6c-0.6,0.7,0.4,1.4,0.9,1.9
		c0.9,1,1.8,2.2,2.6,3.2c-0.4,1.1-0.9,2-1.6,2.8c-1.3,1.4-2.8,2.4-4.4,2.8c-1.6,0.4-3.3,0.4-5.1,0.1c-1.1-0.3-1.6-1-1.5-2.2
		c0-1.5,0-3,0-4.5C96.7,224.5,96.7,221.4,96.8,218.2z"/>
	<path d="M21,233.7c-0.2,0.2-0.1,0.5,0,0.6c2.4,3.1,3.7,7.5,5.3,11.1c1.8,4,2.8,7.9,5.9,11.2c4.2,4.6,9.9,6.8,17,6.5
		c4.2-0.3,7.7-1.6,10.7-3.9c2.5-1.9,4.5-4.3,6-7c1.6-2.8,2.8-5.9,4.3-8.8c1.5-2.9,2-6.1,4-8.7c0.1-0.2,0.2-0.5,0-0.6
		c-1.7-1.3-3.1-3.3-4.3-5.3c-0.8-1.3-1.5-2.6-2.3-3.8c-2.8-4.6-5.6-9-10.5-11.7c-3.7-2-7.6-2.8-11.8-2.5c-3.7,0.4-7.1,1.8-10.2,4.2
		c-3.2,2.5-5.4,5.8-7.5,9.2C25.7,227.5,23.9,231.4,21,233.7z M41.7,234.7c-1.8-1.4-3-3.4-4.1-5.4c-0.2-0.3-0.3-0.5-0.5-0.8
		c0.4-2.6,0.9-5.1,1.7-7.6c1.6-4.7,4.4-7.1,8.6-7.3c2,0,3.8,0.7,5.4,2c1.6,1.3,2.7,3.1,3.4,5.3c0.6,2,1,4,1.3,6
		c-0.3,0.5-0.6,1-0.9,1.4c-1.2,1.9-2.3,3.9-4.1,5.4c-0.2,0.2-0.1,0.5,0,0.6c2,2.5,2.6,5.6,3.9,8.4c0.4,0.9,0.8,1.7,1.3,2.5
		c-0.1,0.9-0.2,1.8-0.3,2.7c-0.3,2.3-0.9,4.6-1.7,6.8c-0.8,1.9-1.8,3.3-3.1,4.2c-1.3,0.9-2.8,1.5-4.4,1.7c-3.6,0.5-6.3-1-8.3-4.5
		c-1.2-2.3-2.1-4.7-2.5-7.2c-0.2-1.2-0.4-2.5-0.5-3.8c0.3-0.5,0.5-1,0.8-1.5c1.3-2.8,1.9-5.9,3.9-8.4
		C41.8,235.1,41.9,234.8,41.7,234.7z"/>
	<path d="M257.7,234.7c-0.2,0.2-0.1,0.5,0,0.6c2.2,2.8,2.8,6.4,4.5,9.4c5.5,10.1,12,19.9,24.8,18.9c6.7-0.5,11.9-4.3,15.5-9.7
		c3.8-5.7,5-13.3,9.2-18.6c0.1-0.2,0.2-0.5,0-0.6c-3.5-2.8-5-7.1-6.8-10.9c-4-8.6-12-14.9-21.8-14.1c-10.8,0.9-16.4,11.4-21.4,19.6
		C260.6,231.2,259.5,233.2,257.7,234.7z M280.3,234.7c-1.8-1.4-3-3.4-4.1-5.4c-0.4-0.6-0.7-1.2-1.1-1.8c0.4-2.5,0.9-5,1.6-7.5
		c1.6-4.9,4.4-7.4,8.6-7.6c2,0,3.8,0.7,5.4,2c1.6,1.3,2.7,3.2,3.4,5.4c0.6,2.4,1.1,4.9,1.5,7.3c-0.4,0.7-0.9,1.4-1.3,2.1
		c-1.2,1.9-2.3,3.9-4.1,5.4c-0.2,0.2-0.1,0.5,0,0.6c2,2.5,2.6,5.6,3.9,8.4c0.4,0.9,0.9,1.8,1.5,2.7c-0.1,0.5-0.1,1.1-0.2,1.6
		c-0.3,2.4-0.9,4.7-1.7,7c-0.8,2-1.8,3.4-3.1,4.4c-1.3,1-2.8,1.6-4.4,1.8c-3.6,0.5-6.3-1.1-8.3-4.6c-1.2-2.4-2.1-4.8-2.5-7.4
		c-0.1-0.9-0.3-1.9-0.4-2.9c0.5-0.8,1-1.7,1.4-2.5c1.3-2.8,1.9-5.9,3.9-8.4C280.4,235.1,280.5,234.8,280.3,234.7z"/>
	<path d="M185.4,215.4c0.2-1,1.3-1.1,2.1-1.3c0.1,0,0.3-0.1,0.4-0.2c0.2-0.2,0.1-0.5,0-0.7c-1.1-2.4-3.9-3.2-6.4-2.9
		c-1.7,0.2-3.7,1-4.5,2.6c-0.2-0.3-0.4-0.6-0.6-0.9c-0.4-0.5-1-1-1.7-1.3c-1.4-0.6-2.9-0.3-4.2,0.4c-1.3,0.7-2.4,1.9-3.3,3.1
		c-0.6,0.8,0,1.5,0.9,1.6c0.6,0.1,1.2,0.1,1.9,0.3c0,0,1,40.7,1,40.7c0,0-2.8,1.9-6.7,0.4c0.2,2,1.6,6.7,4.8,6.7
		c4.5,0,5.5-2.8,5.5-2.8c0.7,1.8,3.2,2.9,5.2,2.8c4.3-0.1,5.3-5.5,5.2-7.1c-3,2-6.7,0-6.7,0c-0.2-1.6,0.3-25.8,0.3-28.3
		c0-0.4,0.1-0.7,0.2-1c0.1-0.3,0.3-0.5,0.7-0.7c0.4-0.1,0.8-0.1,1,0.1c0.3,0.2,0.5,0.5,0.7,0.8c0.1,0.1,0.2,0.2,0.2,0.3
		c2.9,3.7,5.7,7.5,8.6,11.2c2.7,3.6,5.4,7.1,8.1,10.6c2.4,3.2,4.4,6.7,7.1,9.7c2.1,2.3,5,4.5,8.3,3.8c0-1.7-0.1-3.3-0.1-5
		c-0.1-3.9-0.1-7.9-0.2-11.8c-0.1-4.7-0.1-9.3-0.1-14c0-3.8,0-7.6,0.1-11.4c0-1,0.1-1.9,0.2-2.9c0-0.3,0-0.6,0.1-0.9
		c0.4-1.3,2.2-1.4,3.4-1.4c0.3,0,0.5,0,0.8-0.2c0.4-0.3,0.4-0.9,0.3-1.3c-0.3-1-0.7-2-1.2-2.9c-0.8-1.3-2-2.2-3.6-2.1
		c-0.8,0.1-1.6,0.5-2.2,1c-0.2,0.2-1.6,1.5-1.4,1.8c0-0.1-0.1-0.1-0.1-0.2c-0.4-0.6-0.8-1.2-1.5-1.6c-1.5-1-3.5-0.5-4.9,0.4
		c-0.8,0.5-1.4,1.2-2,1.9c-0.7,0.9-2,2.5-0.1,2.9c1.9,0.4,3.9,1.1,5,2.8c0.7,1,1.1,2.2,1.4,3.7c0.3,2.2,0.5,10.9,0.4,13.1
		c-0.1,2.1-0.1,4.1-0.1,6.2c0,0.3,0,0.7-0.1,1c-0.1,0.3-0.3,0.6-0.6,0.8c-0.4,0.2-0.7,0.2-1.1,0c-0.3-0.2-0.6-0.4-0.8-0.7
		c-1.5-1.8-3-3.7-4.4-5.6c-2.7-3.6-5.5-7.1-8.2-10.7c-1.4-1.8-2.7-3.6-4.1-5.4c-0.8-1.1-1.9-2.1-2.6-3.3
		C185.6,216.9,185.3,216.1,185.4,215.4z M172.4,213.1C172.4,213.1,172.4,213.1,172.4,213.1C172.4,213.1,172.4,213.1,172.4,213.1
		C172.4,213.1,172.4,213.1,172.4,213.1z"/>
	<path d="M329.1,210.3c-1.7,0.2-3.7,1-4.5,2.6c-0.2-0.3-0.4-0.6-0.6-0.9c-0.4-0.5-1-1-1.7-1.3c-1.4-0.6-2.9-0.3-4.2,0.4
		c-1.3,0.7-2.4,1.9-3.3,3.1c-0.6,0.8,0,1.5,0.9,1.6c0.6,0.1,1.2,0.1,1.9,0.3c0,0,1,40.7,1,40.7c0,0-2.8,1.9-6.7,0.4
		c0.2,2,1.6,6.7,4.8,6.7c4.5,0,5.5-2.8,5.5-2.8c0.7,1.8,3.2,2.9,5.2,2.8c4.3-0.1,5.3-5.5,5.2-7.1c-3,2-6.7,0-6.7,0
		c-0.2-1.6,0.3-25.8,0.3-28.3c0-0.4,0.1-0.7,0.2-1c0.1-0.3,0.3-0.5,0.7-0.7c0.4-0.1,0.8-0.1,1,0.1c0.3,0.2,0.5,0.5,0.7,0.8
		c0.1,0.1,0.2,0.2,0.2,0.3c2.9,3.7,5.7,7.5,8.6,11.2c2.7,3.6,5.4,7.1,8.1,10.6c2.4,3.2,4.4,6.7,7.1,9.7c2.1,2.3,5,4.5,8.3,3.8
		c0-1.7-0.1-3.3-0.1-5c-0.1-3.9-0.1-7.9-0.2-11.8c-0.1-4.7-0.1-9.3-0.1-14c0-3.8,0-7.6,0.1-11.4c0-1,0.1-1.9,0.2-2.9
		c0-0.3,0-0.6,0.1-0.9c0.4-1.3,2.2-1.4,3.4-1.4c0.3,0,0.5,0,0.8-0.2c0.4-0.3,0.4-0.9,0.3-1.3c-0.3-1-0.7-2-1.2-2.9
		c-0.8-1.3-2-2.2-3.6-2.1c-0.8,0.1-1.6,0.5-2.2,1c-0.2,0.2-1.6,1.5-1.4,1.8c0-0.1-0.1-0.1-0.1-0.2c-0.4-0.6-0.8-1.2-1.5-1.6
		c-1.5-1-3.5-0.5-4.9,0.4c-0.8,0.5-1.4,1.2-2,1.9c-0.7,0.9-2,2.5-0.1,2.9c1.9,0.4,3.9,1.1,5,2.8c0.7,1,1.1,2.2,1.4,3.7
		c0.3,2.2,0.5,10.9,0.4,13.1c-0.1,2.1-0.1,4.1-0.1,6.2c0,0.3,0,0.7-0.1,1c-0.1,0.3-0.3,0.6-0.6,0.8c-0.4,0.2-0.7,0.2-1.1,0
		c-0.3-0.2-0.6-0.4-0.8-0.7c-1.5-1.8-3-3.7-4.4-5.6c-2.7-3.6-5.5-7.1-8.2-10.7c-1.4-1.8-2.7-3.6-4.1-5.4c-0.8-1.1-1.9-2.1-2.6-3.3
		c-0.3-0.6-0.6-1.5-0.5-2.2c0.2-1,1.3-1.1,2.1-1.3c0.1,0,0.3-0.1,0.4-0.2c0.2-0.2,0.1-0.5,0-0.7C334.3,210.8,331.5,210,329.1,210.3z
		 M319.9,213.1C319.9,213.1,319.9,213.1,319.9,213.1C320,213.1,320,213.1,319.9,213.1C320,213.1,319.9,213.1,319.9,213.1z"/>
</g>
</svg>
