<?xml version="1.0" encoding="iso-8859-1"?>
<!-- Generator: Adobe Illustrator 22.1.0, SVG Export Plug-In . SVG Version: 6.00 Build 0)  -->
<svg version="1.1" id="Layer_1" xmlns="http://www.w3.org/2000/svg" xmlns:xlink="http://www.w3.org/1999/xlink" x="0px" y="0px"
	 width="500px" height="500px" viewBox="0 0 500 500" enable-background="new 0 0 500 500" xml:space="preserve">
<g>
	<path d="M191.41,320.751c0.308-0.7,0.462-1.56,0.462-2.579c0-1.063-0.182-1.948-0.547-2.654c-0.364-0.706-0.915-1.243-1.654-1.613
		c-0.739-0.37-1.737-0.555-2.99-0.555c-1.009,0-1.826,0.023-2.453,0.067v9.979h1.899c0.975,0,1.764-0.07,2.369-0.21
		c0.605-0.14,1.165-0.406,1.68-0.798C190.69,321.996,191.102,321.451,191.41,320.751z M213.323,314.173
		c-0.862-0.728-1.865-1.092-3.007-1.092c-1.009,0-1.874,0.235-2.596,0.706c-0.723,0.47-1.322,1.14-1.798,2.008
		c-0.476,0.868-0.823,1.918-1.042,3.15c-0.218,1.232-0.327,2.604-0.327,4.116c0,3.438,0.501,6.054,1.504,7.846
		c1.002,1.792,2.467,2.688,4.393,2.688c1.22,0,2.257-0.39,3.108-1.168c0.851-0.778,1.489-1.918,1.915-3.419
		c0.426-1.5,0.638-3.253,0.638-5.259c0-2.442-0.249-4.465-0.747-6.073C214.866,316.069,214.186,314.901,213.323,314.173z
		 M265.626,314.425c-0.453-0.392-0.994-0.669-1.621-0.832c-0.627-0.162-1.311-0.244-2.05-0.244c-1.109,0-1.943,0.023-2.503,0.067
		v10.164h1.948c1.266,0,2.31-0.165,3.133-0.495c0.823-0.33,1.454-0.879,1.891-1.646c0.437-0.767,0.655-1.783,0.655-3.049
		c0-0.963-0.129-1.766-0.386-2.41C266.435,315.335,266.08,314.818,265.626,314.425z M114.97,314.173
		c-0.862-0.728-1.865-1.092-3.007-1.092c-1.009,0-1.874,0.235-2.596,0.706c-0.723,0.47-1.322,1.14-1.798,2.008
		c-0.476,0.868-0.823,1.918-1.042,3.15c-0.218,1.232-0.327,2.604-0.327,4.116c0,3.438,0.501,6.054,1.504,7.846
		c1.002,1.792,2.467,2.688,4.393,2.688c1.22,0,2.257-0.39,3.108-1.168c0.851-0.778,1.489-1.918,1.915-3.419
		c0.426-1.5,0.638-3.253,0.638-5.259c0-2.442-0.249-4.465-0.747-6.073C116.513,316.069,115.832,314.901,114.97,314.173z
		 M357.73,320.751c0.308-0.7,0.462-1.56,0.462-2.579c0-1.063-0.182-1.948-0.547-2.654c-0.364-0.706-0.915-1.243-1.654-1.613
		c-0.739-0.37-1.737-0.555-2.99-0.555c-1.009,0-1.826,0.023-2.453,0.067v9.979h1.899c0.975,0,1.764-0.07,2.369-0.21
		c0.605-0.14,1.165-0.406,1.68-0.798C357.01,321.996,357.422,321.451,357.73,320.751z M138.9,320.751
		c0.308-0.7,0.462-1.56,0.462-2.579c0-1.063-0.182-1.948-0.547-2.654c-0.364-0.706-0.915-1.243-1.654-1.613
		c-0.739-0.37-1.737-0.555-2.99-0.555c-1.009,0-1.826,0.023-2.453,0.067v9.979h1.899c0.975,0,1.764-0.07,2.369-0.21
		c0.605-0.14,1.165-0.406,1.68-0.798C138.18,321.996,138.592,321.451,138.9,320.751z M169.505,314.425
		c-0.453-0.392-0.994-0.669-1.621-0.832c-0.627-0.162-1.311-0.244-2.05-0.244c-1.109,0-1.943,0.023-2.503,0.067v10.164h1.948
		c1.266,0,2.31-0.165,3.133-0.495c0.823-0.33,1.454-0.879,1.891-1.646c0.437-0.767,0.655-1.783,0.655-3.049
		c0-0.963-0.129-1.766-0.386-2.41C170.315,315.335,169.959,314.818,169.505,314.425z M473.356,291.817H36.422
		c-2.202,8.817-8.779,15.889-17.298,18.78v78.961c8.577,2.911,15.179,10.058,17.337,18.949h437.307
		c2.245-7.998,8.116-14.467,15.733-17.53v-79.974C481.361,307.729,475.215,300.569,473.356,291.817z M98.542,316.945h-1.646
		c-0.247-0.761-0.484-1.377-0.714-1.848c-0.23-0.47-0.471-0.829-0.723-1.075c-0.252-0.247-0.546-0.42-0.882-0.521
		c-0.336-0.101-0.778-0.152-1.327-0.152h-4.922v9.14h3.46c0.493,0,0.879-0.081,1.16-0.244c0.279-0.162,0.512-0.434,0.697-0.815
		c0.185-0.381,0.361-0.969,0.529-1.765h1.579v7.09h-1.579c-0.168-0.761-0.347-1.335-0.538-1.722
		c-0.191-0.387-0.418-0.661-0.681-0.823c-0.264-0.162-0.652-0.244-1.168-0.244h-3.46v6.586c0,0.672,0.039,1.21,0.118,1.613
		c0.078,0.404,0.207,0.723,0.386,0.958c0.179,0.235,0.421,0.412,0.723,0.529c0.302,0.118,0.678,0.227,1.126,0.327v0.823H83.22
		v-0.823c0.695-0.178,1.159-0.378,1.394-0.596c0.235-0.218,0.389-0.529,0.462-0.932c0.073-0.404,0.109-1.019,0.109-1.848v-14.531
		c0-0.773-0.028-1.336-0.084-1.688c-0.056-0.353-0.149-0.627-0.277-0.823c-0.129-0.196-0.3-0.353-0.512-0.47
		c-0.213-0.118-0.577-0.25-1.092-0.395v-0.823h15.322V316.945z M120.044,329.68c-0.784,1.803-1.89,3.152-3.318,4.048
		c-1.428,0.896-3.094,1.344-4.998,1.344c-1.344,0-2.568-0.221-3.671-0.664c-1.103-0.442-2.05-1.132-2.839-2.067
		c-0.789-0.935-1.4-2.13-1.831-3.586c-0.431-1.456-0.646-3.198-0.646-5.225c0-2.497,0.381-4.642,1.142-6.434
		c0.762-1.791,1.851-3.155,3.268-4.091c1.417-0.935,3.06-1.403,4.93-1.403c1.994,0,3.671,0.44,5.032,1.319
		c1.361,0.879,2.385,2.173,3.075,3.88c0.689,1.708,1.033,3.789,1.033,6.241C121.22,325.665,120.827,327.877,120.044,329.68z
		 M145.93,334.804h-4.653c-0.426-0.593-0.829-1.232-1.209-1.915c-0.381-0.684-0.756-1.378-1.126-2.083L137.463,328
		c-0.448-0.851-0.815-1.478-1.1-1.882c-0.285-0.403-0.549-0.686-0.789-0.849c-0.241-0.162-0.498-0.274-0.773-0.335
		c-0.274-0.061-0.686-0.093-1.234-0.093h-1.848v5.712c0,0.806,0.031,1.392,0.093,1.756c0.061,0.364,0.154,0.638,0.278,0.823
		c0.123,0.184,0.291,0.335,0.504,0.453c0.213,0.118,0.577,0.25,1.092,0.395v0.823h-7.09v-0.823c0.695-0.178,1.159-0.378,1.394-0.596
		c0.235-0.218,0.389-0.529,0.462-0.932c0.073-0.404,0.109-1.019,0.109-1.848v-14.531c0-0.773-0.028-1.336-0.084-1.688
		c-0.056-0.353-0.149-0.627-0.277-0.823c-0.129-0.196-0.3-0.353-0.512-0.47c-0.213-0.118-0.577-0.25-1.092-0.395v-0.823h8.316
		c2.621,0,4.58,0.476,5.88,1.428c1.299,0.952,1.949,2.43,1.949,4.436c0,1.534-0.423,2.839-1.269,3.914
		c-0.846,1.075-2.114,1.916-3.806,2.52v0.135c0.684,0.28,1.269,0.681,1.756,1.201c0.487,0.521,1.028,1.33,1.621,2.427l1.512,2.756
		c0.437,0.806,0.812,1.423,1.126,1.848c0.313,0.426,0.633,0.751,0.958,0.975c0.325,0.224,0.756,0.381,1.294,0.47V334.804z
		 M173.731,321.095c-0.404,0.929-0.975,1.691-1.714,2.285c-0.74,0.594-1.613,1.02-2.621,1.277c-1.009,0.258-2.067,0.387-3.175,0.387
		c-1.243,0-2.207-0.022-2.89-0.067v5.578c0,0.661,0.036,1.188,0.109,1.58c0.073,0.392,0.185,0.703,0.336,0.932
		c0.151,0.23,0.355,0.409,0.613,0.538c0.258,0.129,0.661,0.255,1.209,0.378v0.823h-7.375v-0.823
		c0.695-0.178,1.159-0.378,1.394-0.596c0.235-0.218,0.389-0.529,0.462-0.932c0.073-0.404,0.109-1.019,0.109-1.848v-14.531
		c0-0.773-0.028-1.336-0.084-1.688c-0.056-0.353-0.149-0.627-0.277-0.823c-0.129-0.196-0.3-0.353-0.512-0.47
		c-0.213-0.118-0.577-0.25-1.092-0.395v-0.823h8.333c2.621,0,4.572,0.501,5.855,1.503c1.282,1.003,1.923,2.529,1.923,4.578
		C174.335,319.119,174.133,320.166,173.731,321.095z M198.441,334.804h-4.654c-0.426-0.593-0.829-1.232-1.209-1.915
		c-0.381-0.684-0.756-1.378-1.126-2.083L189.973,328c-0.448-0.851-0.815-1.478-1.1-1.882c-0.285-0.403-0.549-0.686-0.789-0.849
		c-0.241-0.162-0.498-0.274-0.773-0.335c-0.274-0.061-0.686-0.093-1.234-0.093h-1.848v5.712c0,0.806,0.031,1.392,0.093,1.756
		c0.061,0.364,0.154,0.638,0.278,0.823c0.123,0.184,0.291,0.335,0.504,0.453c0.213,0.118,0.577,0.25,1.092,0.395v0.823h-7.09v-0.823
		c0.695-0.178,1.159-0.378,1.394-0.596c0.235-0.218,0.389-0.529,0.462-0.932c0.073-0.404,0.109-1.019,0.109-1.848v-14.531
		c0-0.773-0.028-1.336-0.084-1.688c-0.056-0.353-0.149-0.627-0.277-0.823c-0.129-0.196-0.3-0.353-0.512-0.47
		c-0.213-0.118-0.577-0.25-1.092-0.395v-0.823h8.316c2.621,0,4.58,0.476,5.88,1.428c1.299,0.952,1.949,2.43,1.949,4.436
		c0,1.534-0.423,2.839-1.269,3.914c-0.846,1.075-2.114,1.916-3.806,2.52v0.135c0.684,0.28,1.269,0.681,1.756,1.201
		c0.487,0.521,1.028,1.33,1.621,2.427l1.512,2.756c0.437,0.806,0.812,1.423,1.126,1.848c0.313,0.426,0.633,0.751,0.958,0.975
		c0.325,0.224,0.756,0.381,1.294,0.47V334.804z M218.397,329.68c-0.784,1.803-1.89,3.152-3.318,4.048
		c-1.428,0.896-3.094,1.344-4.998,1.344c-1.344,0-2.568-0.221-3.671-0.664c-1.103-0.442-2.05-1.132-2.839-2.067
		c-0.789-0.935-1.4-2.13-1.831-3.586c-0.431-1.456-0.646-3.198-0.646-5.225c0-2.497,0.381-4.642,1.142-6.434
		c0.762-1.791,1.851-3.155,3.268-4.091c1.417-0.935,3.06-1.403,4.93-1.403c1.993,0,3.671,0.44,5.032,1.319
		c1.361,0.879,2.385,2.173,3.075,3.88c0.689,1.708,1.033,3.789,1.033,6.241C219.573,325.665,219.181,327.877,218.397,329.68z
		 M248.937,312.695c-0.492,0.123-0.848,0.246-1.066,0.37c-0.218,0.123-0.392,0.277-0.521,0.462c-0.13,0.184-0.224,0.461-0.286,0.832
		c-0.061,0.37-0.093,0.94-0.093,1.714v14.531c0,0.751,0.025,1.3,0.076,1.647c0.05,0.347,0.135,0.621,0.252,0.823
		c0.118,0.202,0.292,0.37,0.521,0.504c0.23,0.134,0.602,0.269,1.117,0.403v0.823h-7.005v-0.823c0.638-0.156,1.08-0.335,1.327-0.538
		c0.247-0.201,0.415-0.498,0.504-0.89c0.09-0.392,0.134-1.042,0.134-1.949v-6.434c0-1.691,0.025-3.402,0.076-5.132
		c0.05-1.731,0.109-2.915,0.176-3.553h-0.286l-6.653,16.649h-1.932l-6.182-16.917h-0.286c0.056,0.683,0.109,1.921,0.159,3.712
		c0.051,1.792,0.076,3.635,0.076,5.527v6.149c0,0.751,0.025,1.3,0.076,1.647c0.05,0.347,0.134,0.621,0.252,0.823
		c0.118,0.202,0.291,0.37,0.521,0.504c0.23,0.134,0.602,0.269,1.117,0.403v0.823h-6.132v-0.823c0.695-0.178,1.16-0.378,1.394-0.596
		c0.235-0.218,0.39-0.529,0.462-0.932c0.073-0.404,0.11-1.019,0.11-1.848v-14.531c0-0.773-0.028-1.336-0.084-1.688
		c-0.056-0.353-0.148-0.627-0.277-0.823c-0.129-0.196-0.3-0.353-0.512-0.47c-0.213-0.118-0.577-0.25-1.092-0.395v-0.823h5.998
		l5.897,16.346l6.485-16.346h5.678V312.695z M269.851,321.095c-0.404,0.929-0.975,1.691-1.714,2.285
		c-0.74,0.594-1.613,1.02-2.621,1.277c-1.009,0.258-2.067,0.387-3.175,0.387c-1.243,0-2.207-0.022-2.89-0.067v5.578
		c0,0.661,0.036,1.188,0.109,1.58c0.073,0.392,0.185,0.703,0.336,0.932c0.151,0.23,0.355,0.409,0.613,0.538
		c0.258,0.129,0.661,0.255,1.209,0.378v0.823h-7.375v-0.823c0.695-0.178,1.159-0.378,1.394-0.596
		c0.235-0.218,0.389-0.529,0.462-0.932c0.073-0.404,0.109-1.019,0.109-1.848v-14.531c0-0.773-0.028-1.336-0.084-1.688
		c-0.056-0.353-0.149-0.627-0.277-0.823c-0.129-0.196-0.3-0.353-0.512-0.47c-0.213-0.118-0.577-0.25-1.092-0.395v-0.823h8.333
		c2.621,0,4.572,0.501,5.855,1.503c1.282,1.003,1.923,2.529,1.923,4.578C270.456,319.119,270.254,320.166,269.851,321.095z
		 M292.478,317.718h-1.646c-0.247-0.963-0.49-1.725-0.731-2.285c-0.241-0.56-0.495-0.985-0.764-1.277
		c-0.269-0.291-0.558-0.498-0.866-0.621c-0.308-0.123-0.77-0.185-1.386-0.185h-2.133v17.203c0,0.661,0.036,1.188,0.109,1.58
		c0.073,0.392,0.185,0.703,0.336,0.932c0.151,0.23,0.355,0.409,0.613,0.538c0.258,0.129,0.661,0.255,1.209,0.378v0.823h-7.678
		v-0.823c0.336-0.078,0.633-0.162,0.891-0.252c0.258-0.09,0.467-0.198,0.63-0.327c0.162-0.129,0.296-0.294,0.403-0.496
		c0.107-0.201,0.19-0.475,0.252-0.823c0.061-0.347,0.093-0.857,0.093-1.529V313.35h-2.116c-0.526,0-0.96,0.05-1.303,0.152
		c-0.341,0.101-0.658,0.31-0.949,0.629c-0.292,0.319-0.558,0.773-0.798,1.361c-0.241,0.588-0.468,1.33-0.681,2.226h-1.663v-5.846
		h18.178V317.718z M318.699,331.637c-0.37,0.812-0.882,1.473-1.537,1.982s-1.44,0.879-2.352,1.109
		c-0.913,0.23-1.913,0.344-2.999,0.344c-1.758,0-3.786-0.297-6.081-0.89v-4.603h1.68c0.224,0.986,0.526,1.764,0.907,2.335
		c0.381,0.571,0.873,0.994,1.478,1.269s1.383,0.412,2.335,0.412c1.311,0,2.316-0.342,3.016-1.025c0.7-0.684,1.05-1.68,1.05-2.99
		c0-0.84-0.146-1.546-0.437-2.117c-0.292-0.571-0.767-1.109-1.428-1.613c-0.661-0.504-1.668-1.092-3.024-1.764
		c-1.311-0.649-2.347-1.285-3.108-1.907c-0.762-0.621-1.33-1.296-1.705-2.025c-0.375-0.728-0.563-1.523-0.563-2.385
		c0-1.254,0.294-2.344,0.882-3.268c0.588-0.923,1.451-1.638,2.587-2.142c1.137-0.504,2.439-0.756,3.906-0.756
		c0.852,0,1.683,0.045,2.495,0.134c0.812,0.09,1.828,0.292,3.049,0.605v4.536h-1.663c-0.258-0.986-0.583-1.753-0.975-2.302
		c-0.392-0.548-0.851-0.932-1.377-1.151c-0.527-0.218-1.209-0.327-2.05-0.327c-0.728,0-1.38,0.135-1.957,0.404
		c-0.577,0.269-1.033,0.675-1.369,1.217c-0.335,0.544-0.504,1.19-0.504,1.941c0,0.795,0.143,1.467,0.428,2.016
		c0.286,0.549,0.731,1.058,1.336,1.528c0.604,0.471,1.5,0.997,2.688,1.58c1.433,0.717,2.545,1.383,3.335,1.999
		c0.789,0.616,1.406,1.319,1.848,2.108c0.443,0.789,0.664,1.711,0.664,2.764C319.254,329.831,319.069,330.825,318.699,331.637z
		 M339.849,334.804h-15.557v-0.823c0.695-0.178,1.159-0.378,1.394-0.596c0.236-0.218,0.389-0.529,0.462-0.932
		c0.073-0.404,0.109-1.019,0.109-1.848v-14.531c0-0.773-0.028-1.336-0.084-1.688c-0.056-0.353-0.149-0.627-0.277-0.823
		c-0.129-0.196-0.3-0.353-0.512-0.47c-0.213-0.118-0.577-0.25-1.092-0.395v-0.823H340v5.073h-1.646
		c-0.168-0.549-0.342-1.03-0.521-1.445c-0.179-0.414-0.364-0.761-0.554-1.041c-0.191-0.28-0.401-0.504-0.63-0.672
		c-0.23-0.168-0.501-0.283-0.815-0.344c-0.314-0.061-0.689-0.093-1.126-0.093h-5.309v8.803h3.595c0.492,0,0.879-0.07,1.159-0.21
		c0.28-0.139,0.512-0.378,0.698-0.714c0.184-0.335,0.361-0.862,0.529-1.579h1.58v6.451h-1.58c-0.157-0.672-0.33-1.178-0.521-1.52
		c-0.19-0.341-0.418-0.585-0.681-0.731c-0.263-0.145-0.658-0.218-1.184-0.218h-3.595v9.694h5.224c0.549,0,0.994-0.048,1.336-0.143
		c0.341-0.096,0.635-0.258,0.882-0.487c0.246-0.23,0.464-0.529,0.655-0.899c0.19-0.37,0.35-0.753,0.478-1.151
		c0.129-0.398,0.305-0.977,0.529-1.739h1.663L339.849,334.804z M364.761,334.804h-4.653c-0.426-0.593-0.829-1.232-1.209-1.915
		c-0.381-0.684-0.756-1.378-1.126-2.083L356.293,328c-0.448-0.851-0.815-1.478-1.1-1.882c-0.285-0.403-0.549-0.686-0.789-0.849
		c-0.241-0.162-0.498-0.274-0.773-0.335c-0.274-0.061-0.686-0.093-1.234-0.093h-1.848v5.712c0,0.806,0.031,1.392,0.093,1.756
		c0.061,0.364,0.154,0.638,0.278,0.823c0.123,0.184,0.291,0.335,0.504,0.453c0.213,0.118,0.577,0.25,1.092,0.395v0.823h-7.09v-0.823
		c0.695-0.178,1.159-0.378,1.394-0.596c0.236-0.218,0.389-0.529,0.462-0.932c0.073-0.404,0.109-1.019,0.109-1.848v-14.531
		c0-0.773-0.028-1.336-0.084-1.688c-0.056-0.353-0.149-0.627-0.277-0.823c-0.129-0.196-0.3-0.353-0.512-0.47
		c-0.213-0.118-0.577-0.25-1.092-0.395v-0.823h8.316c2.621,0,4.58,0.476,5.88,1.428c1.299,0.952,1.949,2.43,1.949,4.436
		c0,1.534-0.423,2.839-1.269,3.914c-0.846,1.075-2.114,1.916-3.806,2.52v0.135c0.684,0.28,1.269,0.681,1.756,1.201
		c0.487,0.521,1.028,1.33,1.621,2.427l1.512,2.756c0.437,0.806,0.812,1.423,1.126,1.848c0.313,0.426,0.633,0.751,0.957,0.975
		c0.325,0.224,0.756,0.381,1.294,0.47V334.804z M385.49,312.695c-0.459,0.112-0.829,0.274-1.109,0.487
		c-0.28,0.213-0.558,0.555-0.832,1.025c-0.275,0.471-0.608,1.221-1,2.251l-6.972,18.615h-2.201l-5.661-18.732
		c-0.302-1.02-0.566-1.745-0.789-2.176c-0.224-0.431-0.471-0.756-0.74-0.975c-0.269-0.218-0.638-0.384-1.109-0.495v-0.823h7.593
		v0.823c-0.515,0.09-0.907,0.201-1.176,0.335c-0.269,0.135-0.47,0.325-0.604,0.572c-0.135,0.246-0.202,0.577-0.202,0.991
		c0,0.381,0.045,0.792,0.135,1.235c0.09,0.442,0.218,0.938,0.387,1.486l3.931,13.709l4.822-13.81
		c0.067-0.213,0.135-0.437,0.202-0.672c0.067-0.236,0.126-0.465,0.176-0.689c0.05-0.224,0.084-0.421,0.101-0.588
		c0.017-0.168,0.025-0.325,0.025-0.471c0-0.672-0.154-1.162-0.462-1.47c-0.308-0.307-0.832-0.518-1.571-0.629v-0.823h7.056V312.695z
		 M395.937,312.695c-0.493,0.123-0.849,0.246-1.067,0.37c-0.218,0.123-0.392,0.277-0.521,0.462
		c-0.129,0.184-0.224,0.461-0.286,0.832c-0.061,0.37-0.093,0.94-0.093,1.714v14.531c0,0.751,0.025,1.3,0.076,1.647
		c0.05,0.347,0.134,0.621,0.252,0.823c0.118,0.202,0.291,0.37,0.521,0.504c0.23,0.134,0.602,0.269,1.117,0.403v0.823h-7.09v-0.823
		c0.695-0.178,1.159-0.378,1.394-0.596c0.236-0.218,0.389-0.529,0.462-0.932c0.073-0.404,0.109-1.019,0.109-1.848v-14.531
		c0-0.773-0.028-1.336-0.084-1.688c-0.056-0.353-0.149-0.627-0.277-0.823c-0.129-0.196-0.3-0.353-0.512-0.47
		c-0.213-0.118-0.577-0.25-1.092-0.395v-0.823h7.09V312.695z M416.817,317.013h-1.663c-0.269-0.975-0.61-1.75-1.025-2.327
		c-0.414-0.577-0.896-0.989-1.445-1.235c-0.549-0.246-1.209-0.37-1.982-0.37c-1.153,0-2.181,0.384-3.083,1.151
		c-0.901,0.768-1.61,1.921-2.125,3.461c-0.515,1.54-0.773,3.402-0.773,5.586c0,2.196,0.213,4.068,0.638,5.62
		c0.426,1.551,1.053,2.721,1.882,3.511c0.829,0.789,1.848,1.185,3.058,1.185c0.918,0,1.668-0.132,2.251-0.395
		c0.582-0.263,1.072-0.68,1.47-1.251c0.398-0.571,0.775-1.411,1.134-2.52h1.663v4.805c-1.052,0.28-2.13,0.489-3.234,0.629
		c-1.103,0.14-2.316,0.21-3.637,0.21c-2.845,0-4.996-0.963-6.452-2.89c-1.456-1.926-2.184-4.799-2.184-8.618
		c0-2.397,0.378-4.496,1.134-6.3c0.756-1.803,1.868-3.198,3.335-4.183c1.467-0.985,3.22-1.478,5.259-1.478
		c1.019,0,1.96,0.053,2.823,0.159c0.862,0.107,1.848,0.306,2.956,0.597V317.013z M437.597,334.804H422.04v-0.823
		c0.695-0.178,1.159-0.378,1.394-0.596c0.236-0.218,0.389-0.529,0.462-0.932c0.073-0.404,0.109-1.019,0.109-1.848v-14.531
		c0-0.773-0.028-1.336-0.084-1.688c-0.056-0.353-0.149-0.627-0.277-0.823c-0.129-0.196-0.3-0.353-0.512-0.47
		c-0.213-0.118-0.577-0.25-1.092-0.395v-0.823h15.708v5.073h-1.646c-0.168-0.549-0.342-1.03-0.521-1.445
		c-0.179-0.414-0.364-0.761-0.554-1.041c-0.191-0.28-0.401-0.504-0.63-0.672s-0.501-0.283-0.815-0.344
		c-0.314-0.061-0.689-0.093-1.126-0.093h-5.309v8.803h3.595c0.492,0,0.879-0.07,1.159-0.21c0.28-0.139,0.512-0.378,0.698-0.714
		c0.184-0.335,0.361-0.862,0.529-1.579h1.58v6.451h-1.58c-0.157-0.672-0.33-1.178-0.521-1.52c-0.19-0.341-0.418-0.585-0.681-0.731
		c-0.263-0.145-0.658-0.218-1.184-0.218h-3.595v9.694h5.224c0.549,0,0.994-0.048,1.336-0.143c0.341-0.096,0.635-0.258,0.882-0.487
		c0.246-0.23,0.464-0.529,0.655-0.899c0.19-0.37,0.35-0.753,0.478-1.151c0.129-0.398,0.305-0.977,0.529-1.739h1.663L437.597,334.804
		z"/>
	<g>
		<path fill="#FFFFFF" d="M66.258,327.325c0,1.439-1.003,2.616-2.232,2.616c-1.228,0-2.233-1.178-2.233-2.616v-19.62h-5.581v19.62
			c0,1.439-1.003,2.616-2.233,2.616c-1.227,0-2.233-1.178-2.233-2.616v-19.65l-5.441,0.062l0.177,21.115
			c0,6.192,3.545,11.461,8.476,13.436l-0.979,43.004c0,3.369,2.261,6.125,5.023,6.125c2.764,0,5.023-2.756,5.023-6.125
			l-1.003-42.807c5.184-1.811,8.955-7.236,8.955-13.633v-21.146h-5.721V327.325z"/>
		<path fill="#FFFFFF" d="M448.885,331.234v18.327c0,4.223,2.171,7.771,5.581,8.574l-1.117,22.817c0,5.78,3.999,10.464,8.93,10.464
			v-83.711C453.552,310.001,448.885,320.754,448.885,331.234z"/>
		<rect x="86.196" y="341.732" fill="#FFFFFF" width="342.892" height="3.349"/>
	</g>
	<path d="M22.831,273.552h13.342c1.806,0,2.779-1.314,2.779-3.753V228.33l5.142-13.322l17.511,55.729
		c0.556,1.877,1.529,2.815,3.196,2.815h14.733c2.224,0,3.056-1.877,2.084-4.316l-25.156-75.806l23.628-65.487
		c0.972-2.627,0.138-4.503-1.947-4.503H63.552c-1.529,0-2.502,0.938-3.197,2.815L38.953,185.36v-58.169
		c0-2.439-0.973-3.753-2.779-3.753H22.831c-1.808,0-2.78,1.314-2.78,3.753v142.607C20.051,272.238,21.024,273.552,22.831,273.552z"
		/>
	<path d="M101.914,233.368h14.454c1.391,0,2.224-0.834,2.224-2.224V124.407c0-1.39-0.833-2.224-2.224-2.224h-14.454
		c-1.528,0-2.224,0.834-2.224,2.224v106.737C99.69,232.534,100.386,233.368,101.914,233.368z"/>
	<path d="M137.077,140.529h16.122v90.616c0,1.529,0.834,2.224,2.224,2.224h14.454c1.529,0,2.224-0.695,2.224-2.224v-90.616h16.122
		c1.529,0,2.224-0.834,2.224-2.223v-13.898c0-1.39-0.695-2.224-2.224-2.224h-51.146c-1.389,0-2.223,0.834-2.223,2.224v13.898
		C134.854,139.695,135.688,140.529,137.077,140.529z"/>
	<path d="M225.473,233.368h15.565c12.926,0,20.014-6.949,20.014-20.013v-15.01c0-1.39-0.834-2.224-2.224-2.224H244.93
		c-1.528,0-2.223,0.834-2.223,2.224v11.118c0,3.753-1.946,5.559-5.559,5.559h-7.227c-3.613,0-5.559-1.806-5.559-5.559v-63.375
		c0-3.614,1.808-5.56,5.559-5.56h7.227c3.613,0,5.559,1.946,5.559,5.56v11.118c0,1.389,0.695,2.224,2.223,2.224h13.898
		c1.39,0,2.224-0.835,2.224-2.224v-15.01c0-13.064-7.088-20.014-20.014-20.014h-15.565c-13.065,0-20.153,6.949-20.153,20.014v71.158
		C205.32,226.419,212.408,233.368,225.473,233.368z"/>
	<path d="M282.458,233.368h14.314c1.39,0,2.224-0.834,2.224-2.224v-44.196h17.789v44.196c0,1.39,0.834,2.224,2.224,2.224h14.314
		c1.668,0,2.363-0.834,2.363-2.224V124.407c0-1.39-0.695-2.224-2.363-2.224h-14.314c-1.39,0-2.224,0.834-2.224,2.224v44.196h-17.789
		v-44.196c0-1.39-0.834-2.224-2.224-2.224h-14.314c-1.668,0-2.363,0.834-2.363,2.224v106.737
		C280.095,232.534,280.791,233.368,282.458,233.368z"/>
	<path d="M356.816,233.368h51.145c1.668,0,2.224-0.834,2.224-2.224v-13.898c0-1.528-0.556-2.224-2.224-2.224h-34.746v-28.074h26.546
		c1.389,0,2.224-0.834,2.224-2.363v-13.759c0-1.528-0.835-2.362-2.224-2.362h-26.546v-27.796h34.746
		c1.668,0,2.224-0.973,2.224-2.362v-13.898c0-1.39-0.556-2.224-2.224-2.224h-51.145c-1.251,0-2.084,0.834-2.084,2.224v106.737
		C354.732,232.534,355.566,233.368,356.816,233.368z"/>
	<path d="M431.452,273.552h14.454c1.528,0,2.224-1.126,2.224-3.002v-79.56h0.695l21.264,80.123c0.418,1.689,1.25,2.439,2.501,2.439
		h13.759c1.391,0,2.223-1.126,2.223-3.002V126.442c0-1.877-0.832-3.003-2.223-3.003h-14.454c-1.528,0-2.224,1.126-2.224,3.003
		v79.184h-0.832l-21.125-79.748c-0.418-1.689-1.251-2.439-2.503-2.439h-13.758c-1.39,0-2.224,1.126-2.224,3.003V270.55
		C429.228,272.425,430.062,273.552,431.452,273.552z"/>
	<path d="M112.461,254.116c-1.086,1.947-1.629,4.205-1.629,6.775c0,2.547,0.518,4.812,1.553,6.796
		c1.035,1.984,2.51,3.532,4.418,4.642c1.908,1.111,4.137,1.665,6.683,1.665c2.495,0,4.711-0.573,6.645-1.722
		c1.934-1.148,3.432-2.733,4.493-4.754c1.06-2.022,1.591-4.318,1.591-6.888c0-2.495-0.538-4.698-1.61-6.608
		c-1.072-1.91-2.57-3.388-4.492-4.437c-1.922-1.049-4.131-1.572-6.626-1.572c-2.422,0-4.594,0.53-6.514,1.591
		C115.05,250.666,113.547,252.17,112.461,254.116z M122.887,250.372c1.424,0,2.695,0.494,3.82,1.48
		c1.123,0.986,1.989,2.327,2.601,4.024c0.612,1.697,0.918,3.57,0.918,5.616c0,3.019-0.544,5.453-1.629,7.3
		c-1.086,1.848-2.59,2.771-4.51,2.771c-1.573,0-2.901-0.524-3.987-1.573c-1.086-1.048-1.903-2.459-2.453-4.231
		c-0.549-1.771-0.824-3.706-0.824-5.803c0-2.97,0.549-5.31,1.648-7.019C119.568,251.228,121.041,250.372,122.887,250.372z"/>
	<path d="M157.705,262.539c-0.501,0-0.949-0.05-1.349-0.15c-0.175,0.375-0.261,0.836-0.261,1.386c0,0.149,0.024,0.424,0.075,0.823
		c0.649,0.251,1.51,0.375,2.582,0.375c1.897,0,3.526-0.398,4.886-1.197c1.36-0.799,2.39-1.891,3.089-3.275
		c0.699-1.386,1.049-2.939,1.049-4.662c0-5.042-3.12-7.562-9.359-7.562c-0.898,0-1.672,0.013-2.321,0.037l-3.857,0.038
		c-1.597,0-3.482-0.038-5.653-0.112c0,0.998,0.087,1.772,0.263,2.32c0.723,0.076,1.255,0.219,1.59,0.431
		c0.338,0.212,0.575,0.561,0.712,1.049c0.136,0.486,0.206,1.242,0.206,2.265v13.365c0,1.023-0.074,1.791-0.224,2.302
		c-0.151,0.512-0.399,0.874-0.75,1.086c-0.349,0.213-0.873,0.343-1.573,0.393c-0.149,0.449-0.224,1.223-0.224,2.321
		c1.374-0.076,3.506-0.113,6.403-0.113c2.77,0,4.804,0.037,6.103,0.113c0-1.049-0.087-1.822-0.262-2.321
		c-0.975-0.076-1.728-0.244-2.265-0.506c-0.537-0.262-0.924-0.692-1.161-1.292c-0.238-0.598-0.356-1.448-0.356-2.545v-16.212
		c0.623-0.174,1.186-0.261,1.685-0.261c1.723,0,3.001,0.568,3.837,1.702c0.837,1.137,1.254,2.677,1.254,4.624
		c0,1.972-0.387,3.395-1.161,4.268C159.888,262.103,158.902,262.539,157.705,262.539z"/>
	<path d="M178.145,248.239c0,1.072,0.076,1.846,0.224,2.32c0.724,0.076,1.26,0.219,1.611,0.431c0.349,0.212,0.592,0.561,0.73,1.049
		c0.136,0.486,0.205,1.242,0.205,2.265v13.178c0,1.098-0.069,1.916-0.205,2.452c-0.138,0.537-0.388,0.912-0.75,1.123
		c-0.362,0.213-0.892,0.343-1.591,0.393c-0.149,0.549-0.224,1.323-0.224,2.321c3.52-0.076,7.088-0.113,10.707-0.113
		c3.494,0,6.489,0.025,8.985,0.076c0.274-2.621,0.661-4.693,1.162-6.215c-0.526-0.523-1.473-0.886-2.846-1.086
		c-0.374,1.223-0.774,2.178-1.198,2.865c-0.425,0.686-1.012,1.198-1.759,1.534c-0.749,0.337-1.748,0.506-2.995,0.506h-0.449
		c-0.848,0-1.491-0.112-1.928-0.338c-0.437-0.224-0.749-0.617-0.936-1.178c-0.187-0.563-0.28-1.379-0.28-2.453v-5.241h1.086
		c1.298,0,2.196,0.199,2.695,0.599c0.499,0.4,0.798,1.16,0.898,2.284c0.573,0.2,1.434,0.299,2.584,0.299
		c-0.101-1.546-0.151-3.007-0.151-4.38c0-1.198,0.05-2.621,0.151-4.268c-1.024,0-1.91,0.125-2.658,0.375
		c-0.026,1.099-0.281,1.841-0.767,2.227c-0.487,0.388-1.404,0.581-2.752,0.581h-1.086v-9.286h2.583c1.922,0,3.282,0.401,4.08,1.198
		c0.799,0.799,1.31,1.922,1.534,3.369c1.149,0,2.098-0.187,2.847-0.561c-0.2-0.773-0.369-1.76-0.506-2.957
		c-0.138-1.198-0.231-2.322-0.28-3.37c-1.773,0.074-5.204,0.112-10.297,0.112C182.9,248.351,180.092,248.313,178.145,248.239z"/>
	<path d="M228.199,273.958c1.072,0,1.947-0.1,2.621-0.3v-17.746c0-1.446,0.063-2.539,0.187-3.275
		c0.124-0.736,0.349-1.254,0.674-1.553c0.324-0.3,0.799-0.475,1.423-0.525c0.15-0.599,0.224-1.372,0.224-2.32
		c-0.924,0.074-2.185,0.112-3.781,0.112c-1.773,0-3.208-0.038-4.306-0.112c0,0.848,0.075,1.622,0.224,2.32
		c0.824,0.076,1.442,0.262,1.854,0.562c0.411,0.299,0.691,0.812,0.841,1.534c0.151,0.725,0.224,1.811,0.224,3.257v8.761
		l-12.167-16.435c-0.575,0.074-1.735,0.112-3.481,0.112c-1.773,0-3.108-0.038-4.006-0.112c0,0.923,0.087,1.697,0.263,2.32
		c0.723,0.076,1.247,0.188,1.571,0.337c0.324,0.15,0.624,0.412,0.898,0.786l0.375,0.487v13.852c0,1.422-0.089,2.508-0.263,3.257
		c-0.175,0.749-0.462,1.285-0.861,1.608c-0.4,0.325-0.974,0.512-1.721,0.563c-0.176,0.499-0.263,1.272-0.263,2.321
		c0.949-0.076,2.396-0.113,4.342-0.113c1.722,0,3.12,0.037,4.194,0.113c0-1.049-0.088-1.822-0.263-2.321
		c-0.774-0.05-1.354-0.231-1.74-0.543c-0.387-0.312-0.655-0.843-0.805-1.591c-0.15-0.749-0.224-1.847-0.224-3.294v-10.633
		L228.199,273.958z"/>
	<path d="M258.897,250.559c0.723,0.076,1.26,0.219,1.611,0.431c0.349,0.212,0.592,0.561,0.729,1.049
		c0.136,0.486,0.206,1.242,0.206,2.265v13.178c0,1.098-0.07,1.916-0.206,2.452c-0.137,0.537-0.387,0.912-0.749,1.123
		c-0.362,0.213-0.892,0.343-1.591,0.393c-0.15,0.549-0.224,1.323-0.224,2.321c3.52-0.076,7.088-0.113,10.707-0.113
		c1.922,0,3.912-0.312,5.972-0.936c2.058-0.624,3.898-1.915,5.521-3.874c1.622-1.959,2.433-4.786,2.433-8.481
		c0-4.641-1.261-7.818-3.781-9.527c-2.521-1.709-5.866-2.565-10.033-2.565l-2.321,0.037c-0.424,0.025-1.037,0.038-1.835,0.038
		c-2.945,0-5.167-0.038-6.664-0.112C258.672,249.187,258.747,249.96,258.897,250.559z M267.171,250.821
		c0.524-0.224,1.21-0.337,2.059-0.337c2.371,0,4.323,0.824,5.859,2.471c1.535,1.647,2.302,4.331,2.302,8.049
		c0,3.969-0.674,6.683-2.022,8.143c-1.347,1.46-3.045,2.19-5.09,2.19c-0.849,0-1.492-0.112-1.929-0.338
		c-0.436-0.224-0.742-0.617-0.916-1.178c-0.175-0.563-0.262-1.379-0.262-2.453V250.821z"/>
	<path d="M306.519,271.45c-0.176,0.549-0.263,1.323-0.263,2.321c1.124-0.076,2.97-0.113,5.541-0.113
		c2.247,0,3.969,0.037,5.167,0.113c0-0.873-0.1-1.647-0.299-2.321c-0.374-0.05-0.699-0.181-0.974-0.393
		c-0.275-0.212-0.568-0.593-0.88-1.143c-0.312-0.548-0.729-1.409-1.254-2.582l-8.572-19.206c-0.425,0-0.818,0.012-1.179,0.037
		c-0.362,0.025-0.718,0.075-1.069,0.149l-7.861,19.243c-0.599,1.473-1.092,2.464-1.478,2.976c-0.388,0.512-0.894,0.818-1.517,0.918
		c-0.199,0.623-0.299,1.397-0.299,2.321c0.698-0.076,1.821-0.113,3.37-0.113c1.821,0,3.157,0.037,4.005,0.113
		c0-0.949-0.087-1.723-0.261-2.321c-1.199-0.15-1.797-0.736-1.797-1.76c0-0.399,0.124-0.947,0.374-1.647l0.487-1.235
		c2.77-0.175,5.815-0.263,9.134-0.263l0.861,2.022c0.324,0.774,0.487,1.31,0.487,1.61c0,0.349-0.138,0.618-0.412,0.804
		C307.554,271.169,307.117,271.325,306.519,271.45z M298.656,264.448l1.872-4.754c0.599-1.522,1.148-3.106,1.648-4.755
		c0.524,1.722,1.11,3.32,1.759,4.793l2.021,4.717H298.656z"/>
	<path d="M335.289,252.019c0.138-0.498,0.38-0.849,0.73-1.048c0.349-0.199,0.873-0.337,1.572-0.412
		c0.124-0.324,0.199-0.685,0.224-1.086c0.025-0.398,0.037-0.811,0.037-1.235c-1.497,0.074-3.331,0.112-5.502,0.112
		c-2.547,0-4.457-0.038-5.728-0.112c0,0.998,0.087,1.772,0.262,2.32c0.723,0.076,1.254,0.219,1.591,0.431
		c0.337,0.212,0.575,0.561,0.712,1.049c0.136,0.486,0.205,1.242,0.205,2.265v13.365c0,1.023-0.069,1.791-0.205,2.302
		c-0.137,0.512-0.381,0.874-0.73,1.086c-0.35,0.213-0.875,0.343-1.572,0.393c-0.176,0.649-0.262,1.423-0.262,2.321
		c1.546-0.076,3.52-0.113,5.915-0.113c2.27,0,4.043,0.037,5.315,0.113c0-1.023-0.074-1.797-0.224-2.321
		c-0.698-0.05-1.223-0.181-1.571-0.393c-0.35-0.212-0.6-0.574-0.749-1.086c-0.149-0.512-0.224-1.279-0.224-2.302v-13.365
		C335.083,253.28,335.152,252.519,335.289,252.019z"/>
	<path d="M351.049,269.933c-0.137,0.537-0.386,0.912-0.748,1.123c-0.361,0.213-0.892,0.343-1.591,0.393
		c-0.15,0.549-0.224,1.323-0.224,2.321c3.519-0.076,7.088-0.113,10.707-0.113c3.245,0,6.141,0.025,8.686,0.076
		c0.224-2.421,0.612-4.494,1.161-6.215c-0.549-0.523-1.511-0.886-2.884-1.086c-0.549,1.823-1.223,3.096-2.022,3.82
		c-0.799,0.724-1.997,1.086-3.594,1.086h-0.449c-0.849,0-1.492-0.112-1.928-0.338c-0.436-0.224-0.743-0.617-0.917-1.178
		c-0.176-0.563-0.262-1.379-0.262-2.453v-12.991c0-1.048,0.068-1.828,0.207-2.339c0.136-0.511,0.379-0.868,0.729-1.067
		c0.35-0.199,0.873-0.337,1.573-0.412c0.175-0.474,0.261-1.248,0.261-2.32c-1.497,0.074-3.382,0.112-5.652,0.112
		c-1.798,0-3.669-0.038-5.616-0.112c0,0.948,0.074,1.721,0.224,2.32c0.724,0.076,1.26,0.219,1.61,0.431
		c0.35,0.212,0.592,0.568,0.729,1.067c0.138,0.499,0.207,1.248,0.207,2.247v13.178C351.256,268.58,351.187,269.397,351.049,269.933z
		"/>
	<path d="M394.384,254.078c0.549-1.198,1.067-2.059,1.554-2.582c0.486-0.524,1.016-0.848,1.59-0.974
		c0.175-0.749,0.263-1.497,0.263-2.246c-0.7,0.05-1.822,0.075-3.369,0.075c-1.747,0-3.009-0.025-3.781-0.075
		c0,0.799,0.099,1.56,0.299,2.283c1.074,0.126,1.61,0.575,1.61,1.348c0,0.476-0.186,1.086-0.561,1.834
		c-1.298,2.847-2.421,5.404-3.37,7.675c-1.074-2.67-2.208-5.266-3.406-7.787c-0.4-0.849-0.599-1.485-0.599-1.909
		c0-0.649,0.487-1.049,1.46-1.198c0.15-0.675,0.224-1.422,0.224-2.246c-0.899,0.05-2.807,0.075-5.728,0.075
		c-2.496,0-4.231-0.025-5.204-0.075c0,0.973,0.087,1.735,0.261,2.283c0.549,0.05,1.024,0.244,1.423,0.58
		c0.399,0.336,0.787,0.88,1.161,1.628l5.653,11.381v2.883c0,1.323-0.074,2.259-0.225,2.808c-0.149,0.549-0.455,0.929-0.917,1.141
		c-0.462,0.213-1.254,0.369-2.377,0.469c-0.224,0.549-0.337,1.323-0.337,2.321c0.449,0,0.81-0.013,1.086-0.037
		c2.196-0.05,4.055-0.076,5.578-0.076c2.446,0,4.643,0.037,6.59,0.113c0-0.898-0.113-1.672-0.337-2.321
		c-1.024-0.1-1.754-0.268-2.19-0.506c-0.437-0.236-0.737-0.649-0.899-1.235c-0.162-0.587-0.243-1.541-0.243-2.864v-2.584
		L394.384,254.078z"/>
	<path d="M101.95,261.424c1.558,0,2.821-1.263,2.821-2.821c0-1.559-1.263-2.821-2.821-2.821c-1.559,0-2.822,1.262-2.822,2.821
		C99.127,260.161,100.391,261.424,101.95,261.424z"/>
	<path d="M403.852,258.603c0,1.558,1.265,2.821,2.824,2.821c1.557,0,2.821-1.263,2.821-2.821c0-1.559-1.264-2.821-2.821-2.821
		C405.117,255.782,403.852,257.044,403.852,258.603z"/>
	<g>
		<path fill="#FFFFFF" d="M311.853,366.532c-0.235-0.183-0.517-0.324-0.843-0.422c-0.327-0.098-0.709-0.147-1.148-0.147
			c-0.438,0-0.865,0.281-1.284,0.843c-0.183,0.223-1.66,2.784-4.432,7.688c-0.456,0.809-1.174,1.882-2.156,3.215
			c-0.497,0.681-1.007,1.337-1.529,1.971c-0.524,0.635-1.027,1.193-1.51,1.677c-0.484,0.484-0.929,0.869-1.334,1.157
			c-0.405,0.288-0.76,0.432-1.068,0.432c-0.307,0-0.519-0.075-0.637-0.226s-0.177-0.409-0.177-0.774c0-0.365,0.203-1,0.607-1.901
			l0.725-1.511c0.314-0.679,0.923-2.077,1.825-4.195c0.328-0.811,0.628-1.595,0.902-2.353c0.275-0.758,0.497-1.461,0.667-2.108
			c0.169-0.646,0.253-1.231,0.253-1.755c0-0.522-0.214-1-0.646-1.431c-0.21-0.209-0.481-0.382-0.815-0.52
			c-0.333-0.137-0.82-0.205-1.46-0.205c-0.641,0-1.281,0.151-1.921,0.45c-0.301,0.157-0.547,0.341-0.736,0.549
			c-0.19,0.21-0.284,0.429-0.284,0.658c0,0.229,0.078,0.389,0.235,0.48c0.432,0.248,0.726,0.497,0.883,0.745
			c0.353,0.563-0.15,2.353-1.511,5.373l-1.058,2.352c-0.353,0.785-0.68,1.55-0.98,2.295c-0.301,0.746-0.547,1.46-0.736,2.148
			c-0.19,0.686-0.284,1.306-0.284,1.862c0,0.556,0.078,1.049,0.236,1.48c0.536,1.399,1.614,2.099,3.235,2.099
			c1.059,0,2.241-0.536,3.549-1.608c0.602-0.498,1.307-1.193,2.119-2.089c0.809-0.895,2.222-2.702,4.234-5.421
			c-1.084,2.667-1.626,4.647-1.626,5.941c0,1.02,0.398,1.883,1.194,2.588c0.445,0.392,1.086,0.589,1.923,0.589
			c1.019,0,1.908-0.249,2.666-0.746c1.125-0.771,1.686-1.725,1.686-2.863c0-0.301-0.15-0.451-0.449-0.451
			c-0.131,0-0.38,0.101-0.746,0.304c-0.367,0.203-0.831,0.304-1.394,0.304c-0.601,0-0.901-0.497-0.901-1.49
			c0-0.222,0.033-0.628,0.099-1.217c0.247-1.712,1.967-5.895,5.157-12.548C312.579,367.343,312.402,366.938,311.853,366.532z"/>
		<path fill="#FFFFFF" d="M283.067,365.964c-2.051,0-4.033,0.732-5.941,2.196c-0.877,0.68-1.677,1.478-2.402,2.393
			c-0.726,0.915-1.346,1.896-1.862,2.941c-0.516,1.047-0.915,2.131-1.197,3.255c-0.281,1.125-0.415,2.236-0.402,3.335
			c0.013,1.097,0.177,2.048,0.49,2.853c0.313,0.803,0.745,1.467,1.294,1.991c0.549,0.523,1.199,0.908,1.951,1.156
			c0.752,0.249,1.608,0.373,2.568,0.373c0.961,0,1.938-0.196,2.932-0.589c1.973-0.784,3.686-2.111,5.138-3.981
			c1.463-1.868,2.471-3.921,3.02-6.157c0.601-2.432,0.562-4.502-0.118-6.215C287.584,367.147,285.76,365.964,283.067,365.964z
			 M283.558,376.807c-0.367,0.968-0.792,1.896-1.274,2.785c-0.484,0.889-1,1.674-1.549,2.353c-0.549,0.68-1.115,1.226-1.696,1.638
			c-0.582,0.411-1.174,0.617-1.775,0.617c-0.601,0-1.037-0.257-1.303-0.774c-0.268-0.517-0.41-1.229-0.422-2.137
			c-0.014-0.909,0.095-1.873,0.324-2.893c0.228-1.019,0.539-2.012,0.931-2.98c0.393-0.967,0.844-1.889,1.354-2.764
			c0.509-0.877,1.038-1.641,1.587-2.295c0.549-0.654,1.099-1.173,1.648-1.559c0.549-0.386,1.036-0.578,1.461-0.578
			c0.424,0,0.755,0.078,0.989,0.235c0.589,0.392,0.883,1.307,0.883,2.746C284.741,372.834,284.355,374.703,283.558,376.807z"/>
		<path fill="#FFFFFF" d="M269.322,366.532c-0.235-0.183-0.516-0.324-0.843-0.422c-0.326-0.098-0.71-0.147-1.147-0.147
			c-0.438,0-0.873,0.281-1.305,0.843c-0.17,0.236-1.665,2.954-4.49,8.157c-0.561,1.034-1.425,2.268-2.589,3.706
			c-0.443,0.562-0.898,1.102-1.362,1.617c-0.464,0.517-0.911,0.972-1.343,1.364c-0.432,0.391-0.833,0.705-1.206,0.94
			c-0.373,0.235-0.713,0.353-1.02,0.353c-0.307,0-0.519-0.075-0.637-0.226c-0.118-0.15-0.176-0.409-0.176-0.774
			c0-0.365,0.203-1,0.608-1.901l0.725-1.511c0.314-0.679,0.921-2.077,1.824-4.195c0.327-0.811,0.628-1.595,0.902-2.353
			c0.275-0.758,0.496-1.461,0.666-2.108c0.17-0.646,0.255-1.231,0.255-1.755c0-0.522-0.215-1-0.646-1.431
			c-0.209-0.209-0.481-0.382-0.814-0.52c-0.334-0.137-0.821-0.205-1.462-0.205c-0.64,0-1.28,0.151-1.921,0.45
			c-0.301,0.157-0.546,0.341-0.735,0.549c-0.19,0.21-0.285,0.429-0.285,0.658c0,0.229,0.079,0.389,0.235,0.48
			c0.432,0.248,0.726,0.497,0.883,0.745c0.353,0.563-0.15,2.353-1.511,5.373l-1.059,2.352c-0.352,0.785-0.679,1.55-0.98,2.295
			c-0.301,0.746-0.547,1.46-0.736,2.148c-0.19,0.686-0.284,1.306-0.284,1.862c0,0.556,0.079,1.049,0.236,1.48
			c0.536,1.399,1.614,2.099,3.235,2.099c1.217,0,2.595-0.621,4.138-1.863c0.811-0.654,1.83-1.758,3.058-3.314l1.413-1.882
			c0.456-0.615,0.875-1.15,1.254-1.608l-1.529,4.667c-0.497,1.516-1.152,3.125-1.961,4.823c-0.955,1.935-2.295,3.726-4.02,5.372
			c-0.587,0.549-1.2,1.03-1.834,1.443c-0.633,0.411-1.248,0.686-1.843,0.823c-0.595,0.138-0.891,0.383-0.891,0.736
			c0,0.352,0.327,0.725,0.98,1.118c0.379,0.235,0.889,0.326,1.529,0.275c1.674-0.144,3.464-1.235,5.373-3.275
			c0.836-0.903,1.624-1.902,2.363-3.001c0.738-1.097,1.383-2.185,1.931-3.264c0.549-1.078,1.194-2.506,1.931-4.284
			c0.739-1.778,2.35-6.269,4.834-13.472c0.287-0.823,0.533-1.471,0.736-1.942C270.006,367.337,269.845,366.912,269.322,366.532z"/>
		<path fill="#FFFFFF" d="M237.253,366.552c-0.373,0-0.684,0.007-0.931,0.019l-1.118,0.02c-0.498,0.013-1.152,0.019-1.962,0.019
			h-0.469l1.45-3.157c0.157-0.34,0.236-0.641,0.236-0.902c0-0.483-0.21-0.921-0.628-1.314c-0.183-0.17-0.392-0.301-0.627-0.392
			c-0.235-0.09-0.528-0.136-0.881-0.136c-0.353,0-0.674,0.104-0.962,0.313c-0.601,0.458-1.608,2.34-3.019,5.647h-1.55
			c-0.47,0-0.935,0.19-1.391,0.569c-0.196,0.17-0.358,0.347-0.481,0.529c-0.125,0.184-0.186,0.344-0.186,0.481
			c0,0.138,0.019,0.265,0.059,0.383c0.131,0.392,0.947,0.654,2.45,0.785c-2.666,7.242-3.667,11.98-3,14.215
			c0.563,1.882,1.896,2.824,4,2.824c1.216,0,2.424-0.386,3.628-1.157c1.058-0.681,1.764-1.4,2.117-2.157
			c0.261-0.406,0.392-0.824,0.392-1.256c0-0.509-0.19-0.764-0.569-0.764c-0.183,0-0.401,0.098-0.656,0.295
			c-0.255,0.196-0.557,0.415-0.911,0.656c-0.353,0.242-0.766,0.461-1.237,0.657c-0.47,0.196-0.993,0.295-1.569,0.295
			c-0.574,0-0.966-0.127-1.176-0.383c-0.21-0.255-0.314-0.61-0.314-1.068c0-1.634,0.752-4.491,2.256-8.569l1.333-3.452h0.157
			c4.079,0,6.118-0.863,6.118-2.588C237.811,366.689,237.625,366.552,237.253,366.552z"/>
		<path fill="#FFFFFF" d="M149.141,365.964c-2.052,0-4.033,0.732-5.941,2.196c-0.875,0.68-1.677,1.478-2.403,2.393
			c-0.725,0.915-1.345,1.896-1.862,2.941c-0.517,1.047-0.915,2.131-1.197,3.255c-0.281,1.125-0.414,2.236-0.401,3.335
			c0.013,1.097,0.177,2.048,0.491,2.853c0.312,0.803,0.744,1.467,1.292,1.991c0.549,0.523,1.2,0.908,1.951,1.156
			c0.752,0.249,1.609,0.373,2.57,0.373c0.96,0,1.938-0.196,2.931-0.589c1.974-0.784,3.686-2.111,5.139-3.981
			c1.463-1.868,2.47-3.921,3.019-6.157c0.602-2.432,0.563-4.502-0.118-6.215C153.657,367.147,151.835,365.964,149.141,365.964z
			 M149.63,376.807c-0.365,0.968-0.79,1.896-1.273,2.785c-0.484,0.889-1,1.674-1.55,2.353c-0.549,0.68-1.115,1.226-1.697,1.638
			c-0.582,0.411-1.172,0.617-1.774,0.617c-0.602,0-1.035-0.257-1.303-0.774c-0.269-0.517-0.409-1.229-0.421-2.137
			c-0.014-0.909,0.094-1.873,0.323-2.893c0.229-1.019,0.54-2.012,0.931-2.98c0.393-0.967,0.844-1.889,1.354-2.764
			c0.51-0.877,1.039-1.641,1.588-2.295c0.548-0.654,1.097-1.173,1.647-1.559c0.549-0.386,1.036-0.578,1.461-0.578
			s0.754,0.078,0.989,0.235c0.589,0.392,0.883,1.307,0.883,2.746C150.814,372.834,150.428,374.703,149.63,376.807z"/>
		<path fill="#FFFFFF" d="M137.474,357.669c-1.06-1.268-2.504-1.902-4.334-1.902c-2.406,0-4.877,0.968-7.412,2.903
			c-2.561,1.961-4.686,4.529-6.373,7.705c-1.83,3.478-2.818,7.171-2.96,11.08l-0.02,0.569c0,2.614,0.692,4.68,2.078,6.196
			c0.667,0.719,1.483,1.271,2.451,1.656c0.967,0.386,2.242,0.579,3.823,0.579c1.583,0,3.198-0.367,4.845-1.098
			c0.706-0.313,1.303-0.654,1.794-1.02c0.49-0.367,0.836-0.683,1.04-0.951c0.201-0.268,0.303-0.775,0.303-1.52
			c0-0.444-0.118-0.836-0.353-1.177c-0.275-0.418-0.621-0.463-1.038-0.137c-1.386,1.125-2.524,1.915-3.412,2.373
			c-0.549,0.275-1.097,0.491-1.647,0.648c-0.55,0.155-1.134,0.234-1.755,0.234c-0.621,0-1.153-0.162-1.598-0.49
			c-1.243-0.915-1.862-2.844-1.862-5.784l0.019-0.746c0.079-2.457,0.778-5.157,2.099-8.099c1.266-2.862,2.836-5.241,4.705-7.137
			c2-2.053,3.94-3.078,5.824-3.078c1.203,0,1.803,0.635,1.803,1.902c0,0.601-0.15,1.215-0.45,1.843
			c-0.772,1.634-2.229,3.222-4.372,4.765c-0.21,0.157-0.314,0.438-0.314,0.843c0,0.405,0.241,0.863,0.725,1.373
			c0.235,0.235,0.51,0.431,0.823,0.588c0.314,0.157,0.657,0.236,1.03,0.236c0.372,0,0.775-0.118,1.206-0.353
			c0.914-0.47,1.777-1.242,2.588-2.313c1.398-1.857,2.097-3.739,2.097-5.647C138.826,360.114,138.376,358.767,137.474,357.669z"/>
		<path fill="#FFFFFF" d="M169.789,365.964c-2.053,0-4.034,0.732-5.942,2.196c-0.875,0.68-1.677,1.478-2.402,2.393
			c-0.725,0.915-1.346,1.896-1.862,2.941c-0.516,1.047-0.915,2.131-1.197,3.255c-0.281,1.125-0.414,2.236-0.401,3.335
			c0.013,1.097,0.176,2.048,0.49,2.853c0.312,0.803,0.744,1.467,1.293,1.991c0.549,0.523,1.2,0.908,1.95,1.156
			c0.752,0.249,1.609,0.373,2.57,0.373s1.938-0.196,2.931-0.589c1.974-0.784,3.686-2.111,5.139-3.981
			c1.463-1.868,2.47-3.921,3.019-6.157c0.602-2.432,0.563-4.502-0.118-6.215C174.305,367.147,172.482,365.964,169.789,365.964z
			 M170.277,376.807c-0.365,0.968-0.79,1.896-1.273,2.785c-0.484,0.889-1,1.674-1.55,2.353c-0.549,0.68-1.114,1.226-1.696,1.638
			c-0.582,0.411-1.173,0.617-1.775,0.617c-0.601,0-1.035-0.257-1.303-0.774c-0.268-0.517-0.409-1.229-0.421-2.137
			c-0.015-0.909,0.093-1.873,0.322-2.893c0.229-1.019,0.54-2.012,0.931-2.98c0.392-0.967,0.844-1.889,1.355-2.764
			c0.509-0.877,1.038-1.641,1.588-2.295c0.549-0.654,1.098-1.173,1.647-1.559c0.549-0.386,1.036-0.578,1.461-0.578
			c0.425,0,0.754,0.078,0.989,0.235c0.589,0.392,0.883,1.307,0.883,2.746C171.462,372.834,171.076,374.703,170.277,376.807z"/>
		<path fill="#FFFFFF" d="M196.476,366.61c-0.288-0.222-0.624-0.384-1.01-0.49c-0.386-0.104-0.866-0.156-1.441-0.156
			c-0.575,0-1.066,0.117-1.471,0.353c-0.406,0.235-0.649,0.481-0.735,0.735c-0.085,0.256-0.078,0.432,0.019,0.53
			c0.099,0.098,0.281,0.239,0.549,0.421c0.267,0.183,0.401,0.478,0.401,0.883c0,0.798-0.458,1.654-1.372,2.568
			c-1.517,1.517-3.792,2.877-6.824,4.079c0.13-0.274,0.313-0.712,0.548-1.313l1.845-5.079c0.418-1.164,1.051-3.111,1.901-5.844
			c0.314-1.046,0.595-2.05,0.843-3.01c0.249-0.961,0.447-1.846,0.598-2.657c0.15-0.81,0.239-1.539,0.266-2.187
			c0.027-0.646-0.314-1.251-1.02-1.813c-0.366-0.288-0.823-0.432-1.373-0.432c-0.928,0-1.463,0.549-1.607,1.647
			c-0.327,2.275-0.857,4.836-1.589,7.686c-1.986,7.727-4.202,14.106-6.647,19.139l-0.784,1.589c-0.274,0.575-0.412,0.96-0.412,1.157
			c0,0.497,0.228,0.955,0.686,1.372c0.222,0.196,0.483,0.356,0.785,0.481c0.301,0.124,0.634,0.187,1.001,0.187
			c0.365,0,0.695-0.203,0.99-0.609c0.294-0.404,0.61-0.973,0.95-1.705l1.178-2.667c0.458-1.046,1.032-2.209,1.725-3.49
			c1.764,5.635,4.13,8.451,7.099,8.451c1.11,0,2.091-0.333,2.941-1.001c0.34-0.274,0.618-0.555,0.834-0.843
			c0.215-0.287,0.381-0.559,0.499-0.814c0.118-0.254,0.177-0.552,0.177-0.892c0-0.392-0.164-0.588-0.491-0.588
			c-0.131,0-0.268,0.039-0.411,0.118l-0.707,0.353c-0.326,0.156-0.718,0.235-1.176,0.235c-0.864,0-1.811-0.627-2.843-1.882
			c-1.086-1.32-1.831-2.849-2.236-4.588c3.255-1.177,5.621-2.393,7.097-3.647c0.746-0.655,1.295-1.331,1.648-2.03
			c0.353-0.7,0.529-1.468,0.529-2.304C197.437,367.716,197.117,367.069,196.476,366.61z"/>
		<path fill="#FFFFFF" d="M216.79,365.964c-0.783,0-1.471,0.151-2.058,0.45c-0.288,0.157-0.52,0.341-0.697,0.549
			c-0.176,0.21-0.265,0.429-0.265,0.658c0,0.229,0.066,0.389,0.196,0.48l0.393,0.274c0.144,0.105,0.277,0.253,0.401,0.442
			c0.124,0.19,0.187,0.578,0.187,1.166c0,0.589-0.379,1.804-1.138,3.647l-1.04,2.471c-0.379,0.849-0.728,1.689-1.049,2.519
			c-0.321,0.83-0.589,1.622-0.804,2.373c-0.215,0.752-0.323,1.434-0.323,2.049c0,0.615,0.105,1.137,0.314,1.569
			c0.561,1.229,1.6,1.843,3.118,1.843c1.32,0,2.372-0.458,3.157-1.373c0.536-0.627,0.804-1.236,0.804-1.823
			c0-0.445-0.171-0.667-0.51-0.667c-0.13,0-0.34,0.072-0.628,0.215c-0.287,0.144-0.713,0.216-1.274,0.216
			c-0.576,0-0.863-0.288-0.863-0.864c0-0.875,0.432-2.307,1.294-4.294l1.176-2.707c0.432-0.928,0.955-2.146,1.569-3.657
			c0.614-1.51,0.921-2.853,0.921-4.029C219.672,366.467,218.713,365.964,216.79,365.964z"/>
		<path fill="#FFFFFF" d="M221.497,357.16c-0.262-0.183-0.546-0.314-0.854-0.392c-0.306-0.079-0.738-0.118-1.294-0.118
			s-1.146,0.203-1.774,0.607c-0.327,0.21-0.598,0.481-0.813,0.815c-0.216,0.333-0.325,0.834-0.325,1.5
			c0,0.667,0.281,1.327,0.843,1.981c0.262,0.314,0.572,0.556,0.931,0.726c0.36,0.17,0.743,0.233,1.148,0.187
			c0.404-0.046,0.79-0.164,1.157-0.353s0.693-0.438,0.981-0.746c0.287-0.307,0.518-0.666,0.695-1.078
			c0.176-0.412,0.265-0.929,0.265-1.548C222.458,358.117,222.137,357.591,221.497,357.16z"/>
		<path fill="#FFFFFF" d="M330.266,370.651c0.196-0.327,0.344-0.678,0.441-1.05c0.097-0.372,0.136-0.839,0.117-1.402
			c-0.02-0.561-0.232-1.075-0.637-1.539c-0.406-0.464-0.938-0.696-1.598-0.696c-0.661,0-1.226,0.136-1.696,0.411
			c-1.621,0.995-3.281,3.021-4.981,6.08l-0.765,1.451c-0.066,0.261-0.254,0.529-0.568,0.804c-0.026-0.118,0.013-0.405,0.118-0.863
			c0.051-0.222,0.164-0.566,0.333-1.029c0.169-0.464,0.339-0.955,0.509-1.471c0.169-0.516,0.317-1.043,0.442-1.579
			c0.124-0.536,0.183-1.065,0.176-1.589c-0.007-0.522-0.259-1.019-0.755-1.49c-0.236-0.222-0.52-0.398-0.853-0.53
			c-0.334-0.129-0.797-0.195-1.392-0.195c-0.595,0-1.174,0.151-1.735,0.45c-0.275,0.157-0.497,0.341-0.667,0.549
			c-0.17,0.21-0.253,0.429-0.245,0.658c0.005,0.229,0.069,0.389,0.187,0.48l0.392,0.274c0.392,0.262,0.607,0.706,0.646,1.334
			c0,2.248-1.333,6.654-3.999,13.216c-0.144,0.367-0.26,0.678-0.344,0.932c-0.085,0.255-0.12,0.47-0.107,0.647
			c0.013,0.176,0.099,0.386,0.255,0.628c0.157,0.242,0.365,0.46,0.627,0.656c0.261,0.196,0.559,0.356,0.893,0.481
			c0.333,0.124,0.667,0.187,1,0.187c0.333,0,0.585-0.121,0.755-0.363c0.169-0.242,0.366-0.644,0.588-1.206l0.863-2.275
			c1.307-3.386,2.993-6.445,5.058-9.177c0.615-0.823,1.206-1.497,1.775-2.02c0.569-0.522,1.052-0.783,1.451-0.783
			c0.399,0,0.814,0.19,1.245,0.569l0.431,0.372c0.144,0.118,0.301,0.177,0.471,0.177
			C329.311,371.748,329.834,371.383,330.266,370.651z"/>
		<path fill="#FFFFFF" d="M392.856,353.199c-2.051,0-3.758,0.823-5.119,2.47c-0.612,0.758-1.148,1.645-1.606,2.657
			c-0.458,1.013-0.866,2.082-1.226,3.206c-0.359,1.125-0.7,2.279-1.02,3.461c-0.321,1.183-0.657,2.324-1.009,3.421l-0.177,0.549
			c-0.968,0.249-1.91,0.607-2.823,1.078c-0.458,0.236-0.844,0.487-1.158,0.755c-0.314,0.268-0.471,0.499-0.471,0.695
			c0,0.196,0.039,0.367,0.118,0.51c0.327,0.536,0.746,0.805,1.256,0.805l2.039-0.549l-1.529,5.176
			c-0.458,1.569-0.909,3.039-1.354,4.413c-0.445,1.372-0.912,2.692-1.402,3.96c-0.49,1.268-0.942,2.311-1.354,3.127
			c-0.412,0.818-0.617,1.364-0.617,1.639c0,0.797,0.601,1.196,1.803,1.196c1.203,0,2.099-0.556,2.688-1.667
			c0.628-1.215,1.271-2.7,1.931-4.452c0.658-1.751,1.52-4.555,2.577-8.412l1.609-5.686c1.151-0.118,2.405-0.177,3.765-0.177
			l2.49,0.099c0.732,0,1.099-0.372,1.099-1.118c0-0.746-0.386-1.372-1.157-1.882c-0.341-0.222-0.72-0.395-1.136-0.52
			c-0.418-0.124-0.901-0.187-1.443-0.187c-0.54,0-1.408,0.092-2.596,0.275l1.842-6.255c0.288-0.954,0.576-1.831,0.863-2.628
			c0.968-2.601,2.025-3.901,3.176-3.901c0.838,0,1.256,0.535,1.256,1.608c0,0.275-0.046,0.556-0.137,0.843
			c-0.288,0.915-0.791,1.647-1.511,2.196c-0.392,0.236-0.588,0.497-0.588,0.785c0,0.169,0.052,0.378,0.157,0.626
			c0.379,0.968,1.098,1.451,2.158,1.451c0.848,0,1.62-0.437,2.314-1.314c0.823-1.058,1.236-2.306,1.236-3.745
			c0-1.386-0.445-2.483-1.334-3.295C395.575,353.604,394.374,353.199,392.856,353.199z"/>
		<path fill="#FFFFFF" d="M373.619,382.317c-0.13,0-0.421,0.118-0.872,0.353c-0.45,0.235-0.951,0.353-1.5,0.353
			c-0.575,0-0.862-0.353-0.862-1.06c0-1.32,0.778-4.241,2.334-8.765l2.705-7.961c0.458-1.333,0.864-2.599,1.215-3.794
			c0.353-1.196,0.641-2.301,0.864-3.314c0.222-1.012,0.346-1.873,0.372-2.579c0.026-0.706-0.34-1.346-1.099-1.921
			c-0.39-0.288-0.887-0.432-1.488-0.432c-0.955,0-1.491,0.549-1.609,1.647c-0.365,3.713-1.718,8.968-4.057,15.765l-1.648,4.883
			c-0.498,1.503-0.905,2.842-1.226,4.02c-0.321,1.176-0.48,2.115-0.48,2.813c0,0.7,0.101,1.314,0.304,1.843
			c0.202,0.53,0.467,0.965,0.793,1.304c0.327,0.34,0.693,0.589,1.099,0.746c0.406,0.157,0.938,0.236,1.598,0.236
			s1.388-0.268,2.187-0.805c1.188-0.783,1.783-1.757,1.783-2.921C374.031,382.455,373.894,382.317,373.619,382.317z"/>
		<path fill="#FFFFFF" d="M340.207,365.964c-2.208,0-4.019,0.673-5.43,2.02c-1.243,1.19-1.864,2.516-1.864,3.98
			c0,1.765,0.785,3.693,2.353,5.785l1.117,1.568c0.353,0.484,0.647,0.944,0.883,1.383c0.236,0.437,0.353,0.919,0.353,1.441
			c0,0.523-0.236,0.975-0.706,1.354c-0.21,0.17-0.438,0.293-0.687,0.372c-0.249,0.079-0.549,0.118-0.902,0.118
			c-0.353,0-0.693-0.099-1.019-0.295c-0.903-0.535-1.354-1.483-1.354-2.843c0-0.536-0.262-0.803-0.785-0.803
			c-0.601,0-1.175,0.253-1.725,0.764c-0.261,0.235-0.481,0.526-0.657,0.873c-0.177,0.346-0.265,0.722-0.265,1.127
			c0,0.929,0.406,1.732,1.217,2.413c0.98,0.81,2.313,1.215,4,1.215c1.764,0,3.36-0.529,4.783-1.588
			c0.667-0.484,1.21-1.062,1.628-1.736c0.418-0.674,0.628-1.51,0.628-2.51c0-1-0.412-2.159-1.236-3.48
			c-0.34-0.561-0.713-1.097-1.119-1.608c-0.405-0.51-0.78-1.012-1.127-1.51c-0.347-0.497-0.636-0.993-0.872-1.49
			c-0.235-0.497-0.353-1.089-0.353-1.774c0-0.687,0.255-1.265,0.765-1.736c0.247-0.209,0.535-0.369,0.863-0.48
			c0.326-0.111,0.742-0.167,1.246-0.167c0.503,0,0.983,0.216,1.441,0.647c0.222,0.21,0.398,0.464,0.529,0.764
			c0.131,0.301,0.196,0.628,0.196,0.981c0,0.353-0.052,0.693-0.157,1.019c-0.104,0.327-0.072,0.618,0.098,0.873
			c0.17,0.255,0.412,0.415,0.725,0.48c0.706,0.145,1.413-0.059,2.119-0.607c0.783-0.615,1.176-1.437,1.176-2.471
			c0-0.993-0.444-1.876-1.333-2.647C343.652,366.441,342.142,365.964,340.207,365.964z"/>
		<path fill="#FFFFFF" d="M359.542,365.964c-1.91,0-3.797,0.699-5.668,2.098c-0.862,0.654-1.663,1.416-2.402,2.285
			c-0.739,0.869-1.383,1.791-1.931,2.764c-0.549,0.975-0.986,1.98-1.314,3.021c-0.327,1.038-0.517,2.128-0.569,3.264
			c-0.078,2.249,0.536,4.027,1.843,5.334c1.163,1.15,2.707,1.725,4.627,1.725c3.255,0,5.707-0.824,7.354-2.471
			c0.392-0.51,0.589-1.111,0.589-1.804c0-0.352-0.088-0.669-0.264-0.951c-0.177-0.281-0.383-0.422-0.618-0.422
			c-0.236,0-0.513,0.161-0.833,0.481c-0.32,0.32-0.735,0.631-1.245,0.931c-1.439,0.889-2.916,1.334-4.432,1.334
			c-0.889,0-1.568-0.392-2.038-1.177c-0.224-0.353-0.379-0.754-0.471-1.205c-0.092-0.452-0.131-0.861-0.118-1.226
			c0.013-0.367,0.046-0.641,0.098-0.824c2.117-0.026,4.104-0.366,5.96-1.019c0.903-0.327,1.736-0.726,2.501-1.197
			c0.765-0.47,1.423-1.003,1.979-1.598c0.556-0.594,0.991-1.255,1.305-1.981c0.312-0.725,0.476-1.516,0.489-2.372
			c0.013-0.857-0.111-1.598-0.372-2.226C363.267,366.885,361.777,365.964,359.542,365.964z M358.248,374.573
			c-1.609,1.503-3.504,2.365-5.686,2.587c0.652-2.222,1.515-4.143,2.587-5.765c1.268-1.882,2.588-2.824,3.961-2.824
			c0.902,0,1.353,0.648,1.353,1.942C360.463,371.807,359.724,373.16,358.248,374.573z"/>
	</g>
</g>
<g>
</g>
<g>
</g>
<g>
</g>
<g>
</g>
<g>
</g>
<g>
</g>
<g>
</g>
<g>
</g>
<g>
</g>
<g>
</g>
<g>
</g>
<g>
</g>
<g>
</g>
<g>
</g>
<g>
</g>
</svg>
